<svg xmlns="http://www.w3.org/2000/svg" viewBox="0 0 56.78 60.95"><defs><style>.cls-1{fill:#99c5c8;}</style></defs><title>dots1</title><g id="圖層_2" data-name="圖層 2"><g id="bg"><path class="cls-1" d="M4.35,11.77a8.61,8.61,0,0,1,1.15.38l-1.43-.6a8.23,8.23,0,0,1,1.46.86l-1.21-.94a7,7,0,0,1,1.16,1.15,6,6,0,0,0,4.24,1.75,6,6,0,0,0,6-6l-.21-1.59A6,6,0,0,0,14,4.13,12.38,12.38,0,0,0,7.54.19,6.26,6.26,0,0,0,2.92.8,6.17,6.17,0,0,0,.16,4.39a6.11,6.11,0,0,0,4.19,7.38Z"/><path class="cls-1" d="M4.62,33.43l3.94,4a6,6,0,0,0,8.48,0A6.1,6.1,0,0,0,17,29l-3.93-4.06a6.08,6.08,0,0,0-8.49,0,6.11,6.11,0,0,0,0,8.49Z"/><path class="cls-1" d="M46.55,39.59a8.13,8.13,0,0,1,1.1.07l-1.59-.22A8.75,8.75,0,0,1,48,40l-1.44-.61a9.59,9.59,0,0,1,1.26.69A6,6,0,0,0,56,37.92a6.14,6.14,0,0,0-2.15-8.21,13.43,13.43,0,0,0-7.31-2.12,6,6,0,1,0,0,12Z"/><path class="cls-1" d="M37.23,58.66l3.19,1.49a6.48,6.48,0,0,0,4.63.6,6,6,0,0,0,4.19-7.38,5.89,5.89,0,0,0-2.76-3.58l-3.2-1.49a6.45,6.45,0,0,0-4.62-.6,6,6,0,0,0-4.19,7.38,5.85,5.85,0,0,0,2.76,3.58Z"/></g></g></svg>