<svg xmlns="http://www.w3.org/2000/svg" viewBox="0 0 56.72 74.6"><defs><style>.cls-1{fill:#c4e4e9;}</style></defs><title>dots2</title><g id="圖層_2" data-name="圖層 2"><g id="bg"><path class="cls-1" d="M9.2,74.38a10.55,10.55,0,0,0,7.21-5.44A6.38,6.38,0,0,0,17,64.31a6.12,6.12,0,0,0-2.76-3.58c-2.75-1.46-6.67-.83-8.21,2.15a6.21,6.21,0,0,1-.58.92c.31-.4.62-.81.94-1.21a6.45,6.45,0,0,1-.92.89l1.21-.94a6.35,6.35,0,0,1-.91.53l1.43-.61A5.09,5.09,0,0,1,6,62.81a6,6,0,0,0-3.59,2.76,6,6,0,0,0,2.15,8.21l1.44.6a6,6,0,0,0,3.19,0Z"/><path class="cls-1" d="M11.2,39.11q1.74-2.51,3.47-5c1.8-2.59.57-6.77-2.15-8.21A6.15,6.15,0,0,0,4.31,28l-3.47,5C-.95,35.64.28,39.83,3,41.27a6.15,6.15,0,0,0,8.21-2.16Z"/><path class="cls-1" d="M44.72,42.85a12.78,12.78,0,0,0,5.54,0A11.94,11.94,0,0,0,55,40.27,6,6,0,0,0,56.72,36a6,6,0,0,0-6-6l-1.59.21a6,6,0,0,0-2.65,1.55l-.22.16L47.48,31a6.73,6.73,0,0,1-.94.54L48,31a6.56,6.56,0,0,1-1.31.38l1.6-.22a6.46,6.46,0,0,1-1.39,0l1.6.22a5.48,5.48,0,0,1-.56-.1,6.45,6.45,0,0,0-4.62.61,6.13,6.13,0,0,0-2.76,3.59c-.67,3,.89,6.75,4.19,7.38Z"/><path class="cls-1" d="M38.38,12.68l3.19-1.5A6,6,0,0,0,44.32,7.6,6,6,0,0,0,40.13.21L38.54,0a6,6,0,0,0-3,.82l-3.19,1.5a6,6,0,0,0,1.43,11l1.6.21a5.89,5.89,0,0,0,3-.82Z"/></g></g></svg>