<svg xmlns="http://www.w3.org/2000/svg" viewBox="0 0 100.12 75.88"><defs><style>.cls-1{fill:#99c5c8;}</style></defs><title>dots3</title><g id="圖層_2" data-name="圖層 2"><g id="bg"><path class="cls-1" d="M54.84,11.77a6.36,6.36,0,0,1,1,.32l-1.43-.6a6.6,6.6,0,0,1,1.23.72l-1.21-.94a5.93,5.93,0,0,1,1,1A6,6,0,0,0,59.6,14a6.13,6.13,0,0,0,4.25-1.75A6,6,0,0,0,65.6,8L65.39,6.4a6,6,0,0,0-1.54-2.65A11.23,11.23,0,0,0,58,.19,6.28,6.28,0,0,0,53.4.8a6.11,6.11,0,0,0-2.75,3.59A6.06,6.06,0,0,0,51.25,9a6.21,6.21,0,0,0,3.59,2.76Z"/><path class="cls-1" d="M54.64,29.74,58,33.15a6,6,0,0,0,8.49-8.49l-3.31-3.41a6.2,6.2,0,0,0-4.25-1.76,6,6,0,0,0-4.24,10.25Z"/><path class="cls-1" d="M90.58,35.2a7.09,7.09,0,0,1,.92,0L89.9,35a7,7,0,0,1,1.62.46l-1.43-.61a8.24,8.24,0,0,1,1,.58A6,6,0,1,0,97.2,25.11a12.13,12.13,0,0,0-6.62-1.91A6.2,6.2,0,0,0,86.33,25,6,6,0,0,0,90.58,35.2Z"/><path class="cls-1" d="M82.25,51.1l2.69,1.25a4.49,4.49,0,0,0,2.23.72A4.62,4.62,0,0,0,89.56,53a6,6,0,0,0,4.2-7.38A5.92,5.92,0,0,0,91,42l-2.69-1.25A4.48,4.48,0,0,0,86.08,40a4.56,4.56,0,0,0-2.4.11,6,6,0,0,0-4.19,7.38,5.9,5.9,0,0,0,2.76,3.58Z"/><path class="cls-1" d="M4.39,34.47a7.72,7.72,0,0,1,1,.32l-1.43-.6a7.2,7.2,0,0,1,1.23.72L3.93,34a6,6,0,0,1,1,1A6,6,0,0,0,9.15,36.7a6.12,6.12,0,0,0,4.24-1.76,6,6,0,0,0,1.76-4.24l-.21-1.6a6,6,0,0,0-1.55-2.65A11.29,11.29,0,0,0,7.58,22.9,6.28,6.28,0,0,0,3,23.5,6.17,6.17,0,0,0,.19,27.09,6.06,6.06,0,0,0,.8,31.71a6.17,6.17,0,0,0,3.59,2.76Z"/><path class="cls-1" d="M4.19,52.44,7.5,55.85a6.18,6.18,0,0,0,4.24,1.76A6,6,0,0,0,16,47.36L12.67,44A6.15,6.15,0,0,0,8.43,42.2,6.11,6.11,0,0,0,4.19,44a6.11,6.11,0,0,0,0,8.49Z"/><path class="cls-1" d="M40.12,57.9a7.14,7.14,0,0,1,.93.06l-1.6-.22a7.12,7.12,0,0,1,1.62.46l-1.44-.61a7.33,7.33,0,0,1,1.06.59,6,6,0,0,0,6.06-10.36,12.14,12.14,0,0,0-6.63-1.92,6.24,6.24,0,0,0-4.24,1.76A6,6,0,0,0,40.12,57.9Z"/><path class="cls-1" d="M31.8,73.81l2.69,1.25a4.48,4.48,0,0,0,2.23.71,4.52,4.52,0,0,0,2.39-.11,6,6,0,0,0,4.19-7.38,5.83,5.83,0,0,0-2.76-3.58l-2.68-1.25a4.53,4.53,0,0,0-2.24-.72,4.63,4.63,0,0,0-2.39.11A6,6,0,0,0,29,70.22a5.88,5.88,0,0,0,2.76,3.59Z"/></g></g></svg>