<svg xmlns="http://www.w3.org/2000/svg" viewBox="0 0 146.52 41.3"><defs><style>.cls-1{fill:#c4e4e9;}</style></defs><title>dots4</title><g id="圖層_2" data-name="圖層 2"><g id="bg"><path class="cls-1" d="M2.25,7.53c2.77,5,10.25,4.83,13.12.07A5.06,5.06,0,0,0,13.58.76,5.1,5.1,0,0,0,6.74,2.55c-.33.55.43-.54.44-.55-.45.56.94-.64.48-.38-.29.16,1-.25.66-.29a3.89,3.89,0,0,0-.47.09l1.33-.17a4.07,4.07,0,0,1-.78,0l1.33.18-.38-.08c-.71-.13,1,.53.58.24s.94.81.57.44.76,1.15.38.47A5,5,0,0,0,4,.68,5.11,5.11,0,0,0,2.25,7.53Z"/><path class="cls-1" d="M.68,25.54l.83,1.89a5,5,0,0,0,3,2.3,5.12,5.12,0,0,0,3.85-.5,5.06,5.06,0,0,0,2.3-3l.18-1.33a5,5,0,0,0-.69-2.52l-.82-1.9a5,5,0,0,0-3-2.29,5.12,5.12,0,0,0-3.85.5,5,5,0,0,0-2.3,3L0,23a5,5,0,0,0,.68,2.52Z"/><path class="cls-1" d="M37.23,36.05a7.4,7.4,0,0,0,8.37,3.37,5.22,5.22,0,0,0,3-2.3,5,5,0,0,0-1.79-6.84,5.16,5.16,0,0,0-3.86-.51,2,2,0,0,1-.42.1l1.33-.18a2.72,2.72,0,0,1-.57,0l1.33.18a2.91,2.91,0,0,1-.56-.15l1.2.51a3,3,0,0,1-.63-.36l1,.78a3.09,3.09,0,0,1-.4-.41l.78,1a1.58,1.58,0,0,1-.15-.24,5,5,0,0,0-8.64,5Z"/><path class="cls-1" d="M134.18,33.51A13.73,13.73,0,0,0,138,39.87a5,5,0,1,0,7.07-7.08c-.19-.17-.38-.35-.56-.54l-.34-.39c.48.64.61.8.39.49a11.73,11.73,0,0,1-.82-1.47l.5,1.2a8.92,8.92,0,0,1-.42-1.23,5,5,0,0,0-9.65,2.66Z"/></g></g></svg>