<svg xmlns="http://www.w3.org/2000/svg" viewBox="0 0 178.98 128.86"><defs><style>.cls-1{fill:none;stroke:#8c756a;stroke-linecap:round;stroke-linejoin:round;stroke-width:4px;}.cls-2{fill:#8c756a;}</style></defs><title>instruction1</title><g id="圖層_2" data-name="圖層 2"><g id="圖層_3" data-name="圖層 3"><path class="cls-1" d="M2.62,66.71c1.19.71,4.81,3.12,6.17,6.66,2.3,1,24.6,11.15,24.6,11.15s2.29.66,3.6,0,2-2.62,2.95-2.3,12.79,3.28,23.29,2.63,91.49-19,93.46-19.35a3.76,3.76,0,0,0,2.95-3.61c0-1.31.66-10.82,0-12.13a9.73,9.73,0,0,0-4.59-4.26c-2.62-1.32-44.27-11.81-46.24-12.14s-9.51-1.31-12.79-1S11.41,45.82,9.12,46.48s-4.59,2.3-4.92,3.94,0,4.91-.33,6.23c-1,.65-1.31,0-1.64,2A35.76,35.76,0,0,0,2.15,66,1,1,0,0,0,2.62,66.71Z"/><path class="cls-1" d="M63.23,84.85c-10.5.65-22.3-2.3-23.29-2.63S38.3,83.86,37,84.52s-3.6,0-3.6,0S19.61,78.24,12.6,75.07l-.86.6L16,104.85s1,4.59,3.6,5.91,31.16,14.42,31.16,14.42,6.23,2,10.16,1.64,79.69-19.67,79.69-19.67,3.61-1.64,4.59-4.27,5.25-35.41,5.25-35.41l-.3-.55C130.35,71.31,72,84.3,63.23,84.85Z"/><path class="cls-1" d="M14.69,50.09s0-2,4.92-2.63S93.07,35.33,94.71,35s9.84-.33,14.1,1,35.09,9.51,36.07,9.83,4.92,2,1.32,2.63-78.38,14.75-80,15.08-12.46.33-15.74-.65S16.66,51.73,16,51.4A4.65,4.65,0,0,1,14.69,50.09Z"/><path class="cls-1" d="M15.93,51.35c.6-.58,1.82-1.26,4.34-1.59,4.92-.66,73.46-12.13,75.1-12.46s9.83-.33,14.1,1,35.09,9.51,36.07,9.84l.78.3c3.38-.67-.46-2.27-1.44-2.6S113.07,37.3,108.81,36s-12.46-1.32-14.1-1S24.53,46.81,19.61,47.46s-4.92,2.63-4.92,2.63A4.88,4.88,0,0,0,15.93,51.35Z"/><path class="cls-2" d="M149.13,10c.25-.47.54-.91.83-1.35s-.06.05.16-.2l.52-.6c.33-.34.67-.67,1-1,.14-.12.57-.43.2-.17.25-.18.52-.35.79-.52a3.35,3.35,0,0,0,1.18-4.51A3.34,3.34,0,0,0,149.33.46a17.19,17.19,0,0,0-5.89,6.18A3.3,3.3,0,1,0,149.13,10Z"/><path class="cls-2" d="M160.5,22.38a23.07,23.07,0,0,1,5.56-1.82,3.29,3.29,0,1,0-1.75-6.35,29.64,29.64,0,0,0-7.14,2.48,3.3,3.3,0,1,0,3.33,5.69Z"/><path class="cls-2" d="M170.69,37.45a8,8,0,0,1,4.13-.48,3.39,3.39,0,0,0,4.06-2.3,3.32,3.32,0,0,0-2.31-4.05,14.56,14.56,0,0,0-7.63.48,3.38,3.38,0,0,0-2.3,4,3.32,3.32,0,0,0,4.05,2.3Z"/></g></g></svg>