<svg xmlns="http://www.w3.org/2000/svg" viewBox="0 0 205.85 127.22"><defs><style>.cls-1{fill:#8c756a;}.cls-2,.cls-4{fill:none;}.cls-2,.cls-3,.cls-4{stroke:#8c756a;}.cls-2{stroke-linecap:round;stroke-linejoin:round;stroke-width:4px;}.cls-3{fill:#f1ece9;stroke-width:3px;}.cls-3,.cls-4{stroke-miterlimit:10;}.cls-4{stroke-width:2px;}</style></defs><title>instruction2</title><g id="圖層_2" data-name="圖層 2"><g id="圖層_3" data-name="圖層 3"><path class="cls-1" d="M196.34,19.69c.52-.1,1-.16,1.55-.22s-.07,0,.26,0l.79,0a13,13,0,0,1,1.4.16c.19,0,.7.15.26,0l.91.26a3.28,3.28,0,1,0,2.2-6.17,17.06,17.06,0,0,0-8.48-.53,3.28,3.28,0,1,0,1.11,6.46Z"/><path class="cls-1" d="M194.17,36.31a22.77,22.77,0,0,1,4.94,3.07A3.28,3.28,0,0,0,202.83,34a29.87,29.87,0,0,0-6.46-3.84,3.31,3.31,0,0,0-4.19,2,3.35,3.35,0,0,0,2,4.19Z"/><path class="cls-1" d="M189.22,53.73a7.83,7.83,0,0,1,3,2.83,3.37,3.37,0,0,0,4.35,1.62,3.31,3.31,0,0,0,1.61-4.35,14.43,14.43,0,0,0-5.26-5.51,3.36,3.36,0,0,0-4.56.85,3.31,3.31,0,0,0,.85,4.56Z"/><path class="cls-2" d="M156.82,26.51c-21.31-7.1-76.35-8.88-76.35-8.88s-55,1.78-76.34,8.88C2,27.22,2,28.64,2,30.77S2,84,2.71,86.87v26.28c0,.71,1.42.71,1.42.71v10.63a.74.74,0,0,0,.74.73H13a.74.74,0,0,0,.74-.73v-6.72H147.23v6.72a.74.74,0,0,0,.74.73h8.11a.74.74,0,0,0,.74-.73V113.86s1.42,0,1.42-.71V86.87c.71-2.84.71-54,.71-56.1S159,27.22,156.82,26.51Z"/><path class="cls-2" d="M24,67s.71,5,5,5.68,98.71.71,100.13.71,5-1.42,5.68-4.26,0-14.92,0-17.05-1.42-5-3.55-5.68-35.51-4.26-51.13-4.26-44,.71-51.13,3.55c-2.13.71-4.26,2.84-4.26,4.26S24,67,24,67Z"/><circle class="cls-2" cx="116.34" cy="100.37" r="7.1"/><path class="cls-1" d="M118.57,95.67l-6.89,6.47a.76.76,0,0,0-.05,1.06l2,2.19a.69.69,0,0,0,1,0l6.83-6.65a.75.75,0,0,0,0-1l-1.82-2A.75.75,0,0,0,118.57,95.67Z"/><circle class="cls-2" cx="43.85" cy="99.68" r="7.1"/><path class="cls-1" d="M48,96.49l-9.06,2.69a.76.76,0,0,0-.52.93l.77,2.83a.72.72,0,0,0,.89.49l9.08-2.88a.76.76,0,0,0,.51-.93L48.89,97A.75.75,0,0,0,48,96.49Z"/><path class="cls-1" d="M68.05,96.82v6.81a1.7,1.7,0,0,0,.94,1.53,8,8,0,0,0,3.32.89h14.2a6.5,6.5,0,0,0,3.76-1,1.24,1.24,0,0,0,.5-1V97.53c0-1.42-2.13-2.13-2.84-2.13s-13.29-.73-17,0C69.49,95.66,68.76,95.4,68.05,96.82Z"/><line class="cls-2" x1="2.62" y1="86.2" x2="158.24" y2="87.66"/><line class="cls-2" x1="14.07" y1="117.41" x2="14.07" y2="86.31"/><line class="cls-2" x1="147.23" y1="117.41" x2="147.23" y2="87.66"/><path class="cls-2" d="M49.17,24.38c-1.48.93-2.43,3.19,1.12,5.32,5,2.84,26.28,3.2,30.54,3.2s23.44-.36,29.12-3.2c2.84-1.42,2.84-4.61.71-5.32S85.09,23,80.83,23,50.29,23.67,49.17,24.38Z"/><circle class="cls-3" cx="158.24" cy="25.17" r="17.05"/><line class="cls-4" x1="163.59" y1="12.71" x2="162.48" y2="15.08"/><line class="cls-4" x1="145.78" y1="19.82" x2="148.15" y2="20.93"/><line class="cls-4" x1="152.89" y1="37.63" x2="154" y2="35.25"/><line class="cls-4" x1="170.7" y1="30.52" x2="168.32" y2="29.41"/><rect class="cls-4" x="165.23" y="1.21" width="5.83" height="6.99" rx="2.12" transform="translate(17.86 -70.86) rotate(25.09)"/></g></g></svg>