<svg xmlns="http://www.w3.org/2000/svg" viewBox="0 0 144 66.1"><defs><style>.cls-1,.cls-2,.cls-3{fill:#f1ece9;}.cls-2{font-size:4.13px;font-family:GenEiLateGo_v2, GenEi LateGo v2;letter-spacing:0.06em;}.cls-3{font-size:2.75px;font-family:NotoSansCJKtc-Light-B5pc-H, Noto Sans CJK TC;letter-spacing:0.07em;}.cls-4{letter-spacing:0.05em;}.cls-5{letter-spacing:0.07em;}.cls-6{letter-spacing:0.06em;}.cls-7{letter-spacing:0.05em;}.cls-8{letter-spacing:0.05em;}.cls-9{letter-spacing:0.06em;}.cls-10{letter-spacing:0.05em;}</style></defs><title>logo_white</title><g id="圖層_2" data-name="圖層 2"><g id="圖層_3" data-name="圖層 3"><path class="cls-1" d="M29.07,23.81c-.09,0-.24.17-.32-.06,0,.08-.05.16-.08.27s-.32-.15-.42-.1c-.27.12-.45-.07-.67-.1s-.49,0-.74,0-.2-.1-.31-.13a2.6,2.6,0,0,0-.39-.05c-.13,0-.25,0-.37,0a3.58,3.58,0,0,0-.54-.14A2.67,2.67,0,0,1,24,23a3.23,3.23,0,0,1-1.38-2.12,14.4,14.4,0,0,1-.17-1.61c0-.19,0-.32-.29-.37a4.16,4.16,0,0,1-.73-.3.78.78,0,0,1-.45-.9,1.76,1.76,0,0,1,.1-.41.49.49,0,0,1,.29-.22,2,2,0,0,1,.64-.05.76.76,0,0,0,.86-.62c0-.17.09-.34.12-.51s.07-.51.12-.76.14-.46.2-.69a2.29,2.29,0,0,1,.09-.28c.16-.44.34-.88.5-1.33,0-.14,0-.31.1-.46s.17-.21.23-.33.09-.3.16-.43.13-.48.45-.53c0,0,.06-.07.08-.12a2.91,2.91,0,0,1,.72-1.14,1.19,1.19,0,0,1,.94-.33,1.43,1.43,0,0,1,.49.22v.09a8.34,8.34,0,0,0,1.11-.7,5.67,5.67,0,0,1,1.9-1,4.44,4.44,0,0,1,1.24-.32,3.8,3.8,0,0,1,1.33.12A2.2,2.2,0,0,1,34,8.9c.13.17.3.33.45.49a1.61,1.61,0,0,1,.24.29c.21.35.4.7.6,1.05.09.14.2.28.3.42a8.8,8.8,0,0,1,.7,1.45,4.27,4.27,0,0,1,.21.6.23.23,0,0,0,.29.18c.22,0,.44-.07.67-.09a3.68,3.68,0,0,1,1.54.23.18.18,0,0,1,.09.31c-.23.3-.48.59-.71.9s-.36.49-.54.73a.29.29,0,0,1-.35.17c-.21,0-.41.25-.36.45.15.58.3,1.17.43,1.75.09.41.13.83.2,1.25,0,.05,0,.09.07.13a2.22,2.22,0,0,1,.4,1.49,3.2,3.2,0,0,0,.1.42c.08.34.15.67.24,1a4,4,0,0,0,.19.43c.2.5.39,1,.58,1.5a2,2,0,0,1,.24.74,3.42,3.42,0,0,1-.27.84.6.6,0,0,1-.6.36c-.12,0-.24.08-.36.11a6,6,0,0,1-1.07.26,1.12,1.12,0,0,1-.6-.31,1.22,1.22,0,0,1-.32-.39c0-.07,0-.18-.1-.24a.5.5,0,0,0-.26-.18.55.55,0,0,1-.58-.54c0-.05,0-.11.08-.17-.15-.21,0-.71.28-1.05-.37,0-.17-.32-.36-.45-.21.35-.6.4-.91.58a6.72,6.72,0,0,1-1.91.59,1.35,1.35,0,0,1-.51-.08.73.73,0,0,0-.25,0c-.13,0-.27.09-.39.07a4.62,4.62,0,0,0-1,.08A2.1,2.1,0,0,1,29.19,24C29.14,24,29.12,23.9,29.07,23.81ZM29.46,15c-.15-.39-.27-.73-.4-1.07,0-.05-.07-.08-.1-.12a4.13,4.13,0,0,1-.25-.38,1.75,1.75,0,0,1-.17-.43c0-.22-.14-.48.1-.66A2.22,2.22,0,0,1,29.81,12,6.78,6.78,0,0,1,31,12c.37,0,.73.11,1.1.17a.26.26,0,0,1,.15.09,2,2,0,0,1,.46.68,3.33,3.33,0,0,1-.07,1s0,0-.07.08l-.21.26c.24,0,.43,0,.61-.05s.36-.12.32-.35-.13-.6-.2-.89-.18-.7-.28-1a6.53,6.53,0,0,0-.39-1.18,4.91,4.91,0,0,0-.7-.82l0,.07c-.17,0-.33,0-.49,0a1.31,1.31,0,0,0-.54.07c-.48.27-.94.58-1.4.89s-.84.63-1.27.91c-.25.16-.5.36-.85.23a.16.16,0,0,0-.09.05,1.79,1.79,0,0,0-.2.42c0,.27,0,.56-.09.84s-.17.53-.23.8-.16.82-.24,1.23c0,.19.05.29.25.26.35-.05.71-.1,1.05-.18s.82-.2,1.22-.3Zm5.12,3.9a.43.43,0,0,1,0-.05c-.18-.65-.35-1.3-.56-1.93a.86.86,0,0,0-.4-.4c-.3-.17-.6,0-.89.07-.56.14-1.11.33-1.67.48-.21.05-.44,0-.65.1-.47.12-.93.27-1.4.42l-2,.67a.24.24,0,0,0,.11.08l1.28.27a1.22,1.22,0,0,0,.27,0,.26.26,0,0,0,.17-.09s0-.11-.05-.16a.36.36,0,0,0-.08-.09.44.44,0,0,1,.42-.33,2,2,0,0,1,.55,0,9.63,9.63,0,0,0,1,.22,2.58,2.58,0,0,1,1.22.42,3.08,3.08,0,0,0,1,.5.83.83,0,0,0,.31,0l.17,0Z"/><path class="cls-1" d="M.62,23.37C.3,23,.32,22.58.2,22.18c-.07-.24,0-.53-.11-.76a1.6,1.6,0,0,1,0-.89,2.43,2.43,0,0,0,0-.85C0,19.51,0,19,0,18.89A4.6,4.6,0,0,1,0,18c.12-.29,0-.45.24-.81a1.77,1.77,0,0,1,.36-.47c.18-.17.36-.32.53-.5a4.71,4.71,0,0,1,.35-.41c.24-.18.51-.34.77-.5a10.52,10.52,0,0,1,1-.53,5.63,5.63,0,0,1,1.4-.47,5.6,5.6,0,0,0,.54-.17c.26-.08.58-.07.76-.23a1.66,1.66,0,0,1,.83-.27,4,4,0,0,1,1,0c.31,0,.6.11.91.14a1.52,1.52,0,0,1,.8.42,1,1,0,0,1,.38.64c0,.07.09.12.14.19s.19.22.2.33,0,.48,0,.71a1.44,1.44,0,0,0,.34,1.11,1.49,1.49,0,0,1,.47,1.3,6.49,6.49,0,0,1,.23.65,4.21,4.21,0,0,1,.1,1.5,2.56,2.56,0,0,1-.14.74,1.4,1.4,0,0,1-.42.46,5,5,0,0,1-.46.34.6.6,0,0,1-.13.09l-1.49.59a2.92,2.92,0,0,1-.54.25c-.32.08-.67.11-1,.16a2.5,2.5,0,0,1-.26.07l-.78.13a2.94,2.94,0,0,0-.83.09,1.46,1.46,0,0,1-.66,0,4.8,4.8,0,0,0-1.06-.07c-.36.05-.72,0-1.07.08-.1,0-.17.14-.27.19a.91.91,0,0,1-.41.14,3,3,0,0,1-.66-.1,1.28,1.28,0,0,1-.28-.15A2.23,2.23,0,0,1,.62,23.37Zm6.07-3.44A.23.23,0,0,0,7,20l.8-.34c.23-.11.49-.21.5-.52a.21.21,0,0,1,0-.1.51.51,0,0,0,0-.68c-.11-.14-.2-.29-.31-.43a2.21,2.21,0,0,0-.73-.76,1.2,1.2,0,0,1-.4-.31,1.07,1.07,0,0,0-1.12-.25,3.7,3.7,0,0,0-.65.47,9.19,9.19,0,0,0-.95.92c-.28.34-.67.22-1,.29a1.37,1.37,0,0,1-.35,0c-.22,0-.21.37-.14.46A1.78,1.78,0,0,1,2.9,19a3.71,3.71,0,0,0,.19.4,1.61,1.61,0,0,0,.68.49.53.53,0,0,1,.25.24.25.25,0,0,0,.28.12c.27,0,.55,0,.82,0s.46,0,.69,0a.44.44,0,0,1,.12,0Z"/><path class="cls-1" d="M12.85,10.33c.28-.48.4-1.08,1.05-1.24a7,7,0,0,1,.78.31,1.44,1.44,0,0,0,.76.13c.11,0,.22.14.34.19l.46.16a5.35,5.35,0,0,1,1,.27,1.15,1.15,0,0,1,.69.91c0,.3.14.58.17.88a1.29,1.29,0,0,1-.65,1.17l-.63.47c-.1.08-.22.13-.33.21a.28.28,0,0,0-.13.16.27.27,0,0,1-.24.22c-.07,0-.12.1-.17.16a2.38,2.38,0,0,1-.24.35.34.34,0,0,1-.49,0,.51.51,0,0,0-.23-.12,1.07,1.07,0,0,1-.77-.66.26.26,0,0,0-.16-.13.89.89,0,0,1-.48-.41c-.12-.21-.28-.39-.41-.6s0-.19-.09-.28a2.79,2.79,0,0,1-.31-1.35.28.28,0,0,1,.07-.13C13.05,10.71,13.05,10.6,12.85,10.33Z"/><path class="cls-1" d="M13.7,26.58a4.86,4.86,0,0,1,0-.65,4.18,4.18,0,0,1,.15-.61.31.31,0,0,0,0-.19c-.15-.28,0-.59.33-.52s.58-.11.86-.18l.34-.1a3.42,3.42,0,0,0,.65-.27,1.3,1.3,0,0,1,.79-.22,3.63,3.63,0,0,0,.71-.16c.24-.06.42-.25.7-.23a.81.81,0,0,1,.67.47c.05.22.19.42.1.66a1.12,1.12,0,0,0-.09.36,3.45,3.45,0,0,0,.11.54c.05.31.09.6-.22.83-.1.08-.11.28-.16.42a1.28,1.28,0,0,1-.57.83.23.23,0,0,0-.11.11c-.05.26-.3.23-.48.3s-.24.09-.28.17a.48.48,0,0,1-.47.24,1.8,1.8,0,0,1-1.19-.29,14.63,14.63,0,0,1-1.59-1.34A2.65,2.65,0,0,0,13.7,26.58Z"/><path class="cls-1" d="M14.84,15.74l.16.09s.09.09.13.08c.43,0,.83.29,1.29.14.2-.06.47.08.7.13l.3.05c.11,0,.26,0,.34.05a1.35,1.35,0,0,0,.73.24A.54.54,0,0,1,19,17a.93.93,0,0,1-.05.78.3.3,0,0,0,0,.21.92.92,0,0,1-.12.76,5.45,5.45,0,0,1-.4.58,2.53,2.53,0,0,1-.18.27,1.62,1.62,0,0,1-.18.19s-.07,0-.07.07c-.07.27-.3.35-.54.41a.76.76,0,0,1-.26,0,.57.57,0,0,0-.49.2c-.07.06-.17.16-.24.15a1.8,1.8,0,0,1-1.23-.68.5.5,0,0,0-.08-.12c-.19-.17-.38-.34-.36-.62a.13.13,0,0,0-.06-.09,2.12,2.12,0,0,1-.68-1,2.29,2.29,0,0,1-.07-.87c0-.09.08-.17.13-.25s.17-.25,0-.42.05-.18.1-.27.12-.13.12-.2C14.34,15.73,14.43,15.65,14.84,15.74Z"/><path class="cls-1" d="M37.52,1.6c-.08-.07-.11-.19-.18-.27s-.18-.18-.27-.18a3,3,0,0,0-.67.06c-.37.07-.73.2-1.11.24a1.64,1.64,0,0,0-.8.31c-.34-.16-.43-.14-.46.1-.19,0-.37.06-.54.11-.35.1-.68.23-1,.32s-.84.18-1.27.28c-.8.18-1.61.38-2.42.54a3.86,3.86,0,0,0-.56.23h-.47a1.08,1.08,0,0,0-.3-.11l-.19-.06a.91.91,0,0,0-.33,0,3.43,3.43,0,0,0-.44.19l-.41.13s-.07.06-.11.06c-.19,0-.39.05-.57.09a2.62,2.62,0,0,0-.49.19.48.48,0,0,1-.54,0A1,1,0,0,1,24,3.27a.83.83,0,0,0-.09-.16c-.17-.34-.38-.65-.22-1.06a1.38,1.38,0,0,0,0-.64A1.73,1.73,0,0,0,22.52.07a.5.5,0,0,0-.74.28,1.48,1.48,0,0,0-.1.27,2.4,2.4,0,0,1-.51,1A3.24,3.24,0,0,0,21,2a5.24,5.24,0,0,1-.49.79,4.92,4.92,0,0,0-.6,1.16s0,0,0,.06a.71.71,0,0,1-.08.31,1.1,1.1,0,0,0-.26,1.18,2,2,0,0,1,.06.26c.09.35.18.7.29,1,0,.11.17.21.18.31a1.24,1.24,0,0,0,.89,1c.1,0,.18.11.27.15a1.78,1.78,0,0,0,.29.12c.23.06.47.1.69.18a1.3,1.3,0,0,0,.9.14A6.92,6.92,0,0,0,25,7.84a5,5,0,0,1,.85-.39l.25-.1c.51-.25,1-.54,1.54-.74A1.4,1.4,0,0,0,28.38,6l-.13-.13,0-.06.82.09.09,0,1.26-.38c.32-.1.63-.22,1-.31.78-.22,1.58-.42,2.36-.65.17,0,.3-.23.45-.35s.34.07.43-.19a.14.14,0,0,1,.14,0,1.11,1.11,0,0,0,.91,0,1.9,1.9,0,0,0,.55-.37c.25-.18.55-.28.65-.61,0,0,.06-.06.1-.09a4.78,4.78,0,0,0,.54-.47A.56.56,0,0,0,37.52,1.6Z"/><path class="cls-1" d="M70.28,15.36a1.48,1.48,0,0,0-1.47-1.19,5.58,5.58,0,0,0-3.18.36c-.14.06-.49,0-.51,0-.19-.52-.32-1.06-.48-1.59,0-.07-.11-.12-.17-.18h0a.07.07,0,0,1,0-.06c0-.39,0-.78.08-1.17A1.4,1.4,0,0,0,63.59,10c-.39-.19-.79-.37-1.17-.57-.21-.12-.37-.35-.59-.41a2.15,2.15,0,0,0-.79.06.69.69,0,0,0,0,.37c.22.46.46.92.7,1.37.05.11.14.22.14.32,0,.53,0,1.06.07,1.58s.26,1.1.38,1.65a2.93,2.93,0,0,1,.1.78c0,.16-.11.4-.23.43a14.35,14.35,0,0,1-1.61.33,8.41,8.41,0,0,1-3.73-.05s-.25-.05-.27-.16a2.68,2.68,0,0,1-.11-1.12,15.18,15.18,0,0,1,.5-1.75c.06-.19.07-.49.2-.55.76-.31.82-1,1.1-1.63a9.85,9.85,0,0,0,.44-1.06A2.45,2.45,0,0,0,58.87,9c0-.05-.1-.29-.07-.39a2.7,2.7,0,0,0,.08-.39,2.71,2.71,0,0,0-.37.21c-.17.11-.32.26-.48.38-.57.42-1.16.81-1.7,1.25a2.84,2.84,0,0,0-.61.77,22.51,22.51,0,0,0-1.63,3.06,3.54,3.54,0,0,0,.13,2,4.63,4.63,0,0,0,2.53,2.61.45.45,0,0,1,.14.13,6.47,6.47,0,0,1-.78.79c-.31.23-.74.35-1,.6-.58.52-1.12,1.09-1.64,1.65-.77.83-1.53,1.67-2.27,2.52-.17.19-.21.48-.36.68a12.45,12.45,0,0,0-1.2,1.43,10.24,10.24,0,0,0-.84,2,1.54,1.54,0,0,0,0,1c.16.31.48.5.26.93s-.27.88.13,1.12a3.47,3.47,0,0,0,1.24.23c.26,0,.51.11.76.15s.26.07.31,0a7.74,7.74,0,0,0,1.06-1c.58-.75,1.1-1.54,1.64-2.32.2-.3.36-.61.54-.91a13.11,13.11,0,0,1,.82-1.35c.74-1,1.53-1.91,2.29-2.87.49-.61,1-1.24,1.43-1.86.1-.12.17-.29.3-.34a1.69,1.69,0,0,0,1-1.31c.07-.28.12-.71.32-.81a6.31,6.31,0,0,1,1.41-.33l.1,0a.67.67,0,0,1-.11-.24l.09-.05c.1.18.19.36.28.54s0,.1,0,.14a2,2,0,0,0-.2.63c0,.6.13,1.19.2,1.78a2.1,2.1,0,0,0,0,.36c.19.49.44.95.6,1.45a8.65,8.65,0,0,1,.11.89c.1.4.28.78.39,1.17s.48.49.84.42a2.41,2.41,0,0,0,.66-.29c.27-.12.53-.24.79-.38s.48-.22.48-.34a25.18,25.18,0,0,0,0-3.25A30.09,30.09,0,0,0,66,18.22a1.75,1.75,0,0,1,.58-1.49,1.47,1.47,0,0,1,.85-.31c.73-.13,1.46-.19,2.19-.31C70,16,70.33,15.86,70.28,15.36Z"/><path class="cls-1" d="M49.82,13.69c0-.35.13-.7.21-1.12,0-.27,0-.62.08-1,.08-.94,0-1.92-.91-2.44a8.22,8.22,0,0,0-2.5-.85,8.34,8.34,0,0,0-2.39.08,3.75,3.75,0,0,0-2.84,2.28,4.64,4.64,0,0,0-.18,2.47,4.46,4.46,0,0,0,1.32,2.79,5,5,0,0,0,2.29,1.72c.41.11.79.49,1.26.15s1-.71,1.48-1.11,1-.91,1.48-1.39c.08-.07,0-.26.12-.34s.45-.35.56-.57S49.79,13.93,49.82,13.69Zm-3.32-.08c0,.1-.34.08-.5.17-.57.3-1.11.66-1.7.92a1,1,0,0,1-.74-.24,3.42,3.42,0,0,1-.91-1.84c-.38-1.23.92-1.95,2.11-1.7.13,0,.26,0,.55.06a4.74,4.74,0,0,1,1.06.4c.18.12.2.49.26.75a1.4,1.4,0,0,1,0,.5A4,4,0,0,1,46.5,13.61Z"/><path class="cls-1" d="M69.31,3.33a.45.45,0,0,0-.3,0s0,.16,0,.24a.53.53,0,0,1-.12.14s-.06,0-.09,0,0-.11,0-.16-.06-.29-.12-.3a3.27,3.27,0,0,0-.82-.09c-.62,0-1.24.07-1.85.16-.92.15-1.83.34-2.74.53-.14,0-.4.11-.08.3l.06.07a.29.29,0,0,1-.1,0,10.36,10.36,0,0,0-1.25-.06,20,20,0,0,0-2.18.29c-.73.14-1.45.35-2.16.55s-1.46.39-2.15.65-1.53.67-2.29,1h0a.19.19,0,0,0,0,.3l.08.07h0a.18.18,0,0,1,0,.28h0c-.07,0-.16.11-.17.19s.07.16.13.18l2.15.73a.17.17,0,0,0,.1,0c.38-.08.85-.2,1.33-.27,1-.15,2.05-.26,3.08-.39A19.28,19.28,0,0,0,62,7.48,5.89,5.89,0,0,0,63.24,7,5.57,5.57,0,0,1,64,6.74a5.2,5.2,0,0,0,1-.41l.92-.1a3.76,3.76,0,0,0,.75,0c.39,0,.77-.2,1.16-.24.69-.07,1.48.16,1.76-.78.07-.25.41-.41.51-.66C70.21,4.09,69.91,3.61,69.31,3.33Z"/><path class="cls-1" d="M80.8,34.29a5.82,5.82,0,0,1,1.53-.7,9.72,9.72,0,0,1,2.35,0,12.41,12.41,0,0,1,3.54.49,6.9,6.9,0,0,0,3.3.23,6.81,6.81,0,0,1,1.19.28c.86.14,1.72.28,2.59.35,1.16.08,2.34,0,3.5.15a4.63,4.63,0,0,1,3.55,3.81c0,.57.36,1.12.39,1.69a14.28,14.28,0,0,1-.13,2.26c-.17,1.55-.42,3.09-.54,4.64-.09,1.07,0,2.16,0,3.24a.2.2,0,0,0,0,.13c.78.92,0,1.59-.32,2.39a9.41,9.41,0,0,0-.28,2.55,11.6,11.6,0,0,1-3.14,7.3,8.58,8.58,0,0,1-2.13,1.38c-.68.38-1.49,1.09-2.1,1A14.59,14.59,0,0,1,90.49,64,4.47,4.47,0,0,1,89,62.84c-.13-.16.33-.74.51-1.14s.15-.73.36-.83a5.06,5.06,0,0,1,2-.55,7.82,7.82,0,0,1,2.77.46c1.57.64,2-.48,2.56-1.33a8.64,8.64,0,0,0,.67-2.05,11.45,11.45,0,0,0,.77-2.34c.11-1.3,0-2.61,0-3.92,0-1.84,0-3.68,0-5.52s.24-3.5.28-5.25A6.91,6.91,0,0,0,98.54,38c-.09-.26-.8-.44-1.24-.46-1.52-.1-3.06-.05-4.57-.18s-2.74-.47-4.12-.57a3.55,3.55,0,0,0-1.54.53,6.63,6.63,0,0,1-4.85.35c-.22-.07-.27-.61-.48-.68-.56-.18-1.19-.18-1.76-.34a3.1,3.1,0,0,1-1.29-.62.93.93,0,0,1,.08-1,13.93,13.93,0,0,1,1.91-1Z"/><path class="cls-1" d="M83.89,48.55l2.78.3c.65,0,1.32,0,2,.13,1.18.21,2.82,2.08,2.53,2.93A19.28,19.28,0,0,1,90.08,54a5.64,5.64,0,0,0-.55,1.55c-.09.7-1,1.26-1.92,1.38a22.43,22.43,0,0,0-2.79.87,2.14,2.14,0,0,1-1.32,0,15.39,15.39,0,0,1-3-1.6,2.69,2.69,0,0,1-.86-1.66,4.7,4.7,0,0,1,.24-2.13A4.33,4.33,0,0,1,81,50.73,36,36,0,0,1,83.89,48.55Zm1.39,4.62c.53-.43,1-.77,1.41-1.16A2.07,2.07,0,0,0,87,51.3a.27.27,0,0,0,0-.25.35.35,0,0,0-.28-.09,8.8,8.8,0,0,0-1.46.77,1.59,1.59,0,0,0-.47.86C84.75,52.7,85,52.88,85.28,53.17Z"/><path class="cls-1" d="M89.16,46.42c-1.28,0-2.75.45-3.8,0s-1.5.27-2.22,0c-1-.34-2.26-.26-2.6-1.61-.11-.45-.59-.85-.62-1.3s.38-.76.71-.93c.92-.45,1.5-1.53,2.79-1.33.67.11,1.36,0,2,.11.2,0,.38.37.56.36.53,0,1.06-.17,1.6-.19a1.88,1.88,0,0,1,.82.23c.74.36,1.47.74,2.17,1.16a1,1,0,0,1,.5.58,3,3,0,0,1,.09,1.6c-.16.41-.74.69-1.18,1a2.93,2.93,0,0,1-.86.2Z"/><path class="cls-1" d="M129,31.9A8.73,8.73,0,0,0,129.4,34a2.11,2.11,0,0,0,2,1,6.42,6.42,0,0,1,2.33.56c1.3.61,2.52,1.36,3.75,2.09a3.57,3.57,0,0,1,.73.81c-.37,0-.74,0-1.1,0-1.51.14-3,.26-4.53.47a28.06,28.06,0,0,1-2.78.58c-1.86.08-3.74-.16-5.59,0s-3.68.66-5.52,1c-.55.09-1.14-.06-1.67.06a1.61,1.61,0,0,0-1,.69c-1.09,2.5-2.11,5-3.16,7.54-.6,1.43-1.18,2.87-1.89,4.25-.23.45-.85.72-1.27,1.1a1.12,1.12,0,0,0-.27.53c-.14.5-.23,1-.4,1.5a.72.72,0,0,1-.43.3,7.9,7.9,0,0,1-.76-.77c-.08-.08-.19-.26-.24-.25-1.3.37-.79-.65-.74-1a26.32,26.32,0,0,1,.88-4c.42-1.33,1.12-2.58,1.56-3.9a11.4,11.4,0,0,0,.25-2.2A5.53,5.53,0,0,1,112.56,40c1-.55-.08-.72-.21-.79a.91.91,0,0,1-.4-1.52,2.5,2.5,0,0,1,1.49-.65c.94-.15,1.91-.14,2.87-.2a27.64,27.64,0,0,0,2.88-.16c2.12-.34,4.23-.77,6.34-1.18a2.76,2.76,0,0,0,0-.45c-.12-.52-.22-1-.38-1.55s-.37-.93-.5-1.41-.27-.82-.11-1.07c.4-.65.91-1.29,1.93-1a11.08,11.08,0,0,1,2.13.55c.38.2.53.81.79,1.23Z"/><path class="cls-1" d="M121.18,49.55c-1,0-2-.09-3-.16a1.29,1.29,0,0,1-.49-.23,2.31,2.31,0,0,0-.28-.19c-.42-.15-.84-.28-1.26-.44a.27.27,0,0,1,0-.25,9.44,9.44,0,0,1,.65-.91c.08-.11.32-.15.35-.25.26-.92.86-.85,1.66-.66s1.6.09,2.39.19c.57.08,1.12.3,1.69.41a5.7,5.7,0,0,0,1.24.07c.1,0,.3-.35.26-.41a.86.86,0,0,0-.51-.33c-1.27-.14-2.55-.2-3.81-.39-.22,0-.52-.51-.52-.78s.28-.62.44-.93c.47-.93,1.1-.61,1.94-.43.66.14,1.47-.38,2.22-.62.11,0,.21-.13.32-.15.75-.14,1.12-.44.81-1.23-.06-.18.23-.61.46-.73a2.6,2.6,0,0,1,1.09-.13.47.47,0,0,1,.32.28c.14.5.14,1.4.35,1.44a4.5,4.5,0,0,0,2.28-.09,3.36,3.36,0,0,1,3.55.62c.23.23.78.14,1.06.34s.66.65.63.95a22.51,22.51,0,0,1-.5,2.55c0,.06.16.21.23.2.7-.11,1.4-.32,2.11-.37a7.64,7.64,0,0,1,1.55.23c-.33.36-.58.86-1,1.05a20.35,20.35,0,0,1-2.47.8c-.09,0-.22.13-.22.18.14,1.12-.49,1.44-1.53,1.35-.11,0-.22,0-.13,0a6.82,6.82,0,0,1-.39.66c-.64.72-1.15,1.58-2.41,1.46a1.79,1.79,0,0,0-2.05,2.07c.08,1.57.1,3.15.08,4.73,0,1-.89,1.48-1.82,1.56s-1.4,0-1.6-.79a12.28,12.28,0,0,1-.23-1.92,12.93,12.93,0,0,1-.06-2.06c0-.32.37-.6.51-.92.32-.76-.39-1.74-1-2.26-.86-.77-1.81-.46-2.71-.66-.55-.13-1-.73-1.45-1.12a1.89,1.89,0,0,1-.31-.25c-.19-.21-.37-.43-.56-.65a3.43,3.43,0,0,1,.87-.59,5.09,5.09,0,0,1,1.24-.06Zm6.73.33c.39.2.59.38.79.38.73,0,1.46,0,2.18,0h.35c-.1-.12-.2-.32-.33-.35-.73-.14-1.46-.26-2.2-.34C128.51,49.54,128.3,49.71,127.91,49.88Zm-3.59.87c.12-.27.3-.48.25-.6s-.33-.56-.5-.56a9.27,9.27,0,0,0-1.45.28Zm6.1-3.66c-.25-.36-.32-.59-.42-.6-.61-.07-1.23-.1-1.84-.11,0,0-.11.17-.17.26.46.15.92.33,1.39.44A5.65,5.65,0,0,0,130.42,47.09Z"/><path class="cls-1" d="M132.38,63.86a3.53,3.53,0,0,1-.4-1.2,3.1,3.1,0,0,1,.61-1.16c.07-.12.34-.18.35-.28.06-1,.66-.59,1.16-.42a22.46,22.46,0,0,1,2.71,1,26.64,26.64,0,0,1,3,1.85c.09.05,0,.52-.11.61-.68.44-.86,1.55-2.22,1.17-.79-.22-1.78.3-2.7.36-.51,0-1.19.82-1.6-.25A7.82,7.82,0,0,0,132.07,64Z"/><path class="cls-1" d="M136.36,56.89c0,.2.11.44,0,.6s-.37.06-.57.08l-2.6.29c-.16,0-.42,0-.5-.06a2.11,2.11,0,0,1-.48-.86c-.08-.4.08-.85,0-1.25-.32-1.31.87-1.11,1.44-1.12a15.52,15.52,0,0,1,3.65.45c.38.09.61.77.91,1.18l-1.78.71S136.33,56.88,136.36,56.89Z"/><path class="cls-1" d="M120.39,63.63a11.41,11.41,0,0,1-2-.12,2.84,2.84,0,0,1-1.33-.8c-.15-.16.11-.68.25-1a12.48,12.48,0,0,1,.68-1.24.53.53,0,0,1,.34-.23c.77,0,1.55-.07,2.32-.07.14,0,.3.15.4.27.55.68,1.09,1.38,1.64,2.08-.54.33-1.07.67-1.63,1A2,2,0,0,1,120.39,63.63Z"/><path class="cls-1" d="M118.4,54.15c.33.44.65.89,1,1.3.19.22.63.37.65.57a1.92,1.92,0,0,1-.27,1.23c-.21.27-.76.29-1.07.53-.51.39-.94.87-1.43,1.3-.07.05-.26,0-.39,0s-.12-.13-.16-.12c-1,.27-1-.65-1.1-1.09s.43-.87.78-1.22.93-.36.75-1.12c-.09-.36.44-.86.69-1.29Z"/><path class="cls-1" d="M90,16.36a2.83,2.83,0,0,1-1.16,0c-.77-.18-1.55-.34-2.31-.55a16.75,16.75,0,0,1-2.59-1c-.17-.08-.31-.2-.48-.26-.43-.18-.87-.34-1.32-.49s-.72-.22-1.08-.31a.62.62,0,0,0-.27,0c-.32,0-.64,0-1,.08S79.29,14,79,14l-.08,0c-.32.23-.65.45-1,.69-.13.09-.23.22-.36.32-.36.3-.72.61-1.11.88a3.41,3.41,0,0,1-.67.3,7.56,7.56,0,0,1-.71.3,3.88,3.88,0,0,1-.61.11l-.15,0c-.35.12-.64-.07-.6-.43a1.51,1.51,0,0,1,.17-.49l.14-.25c.33-.63.68-1.25,1-1.88a6.06,6.06,0,0,1,1-1.38,4,4,0,0,1,.7-.59A12.86,12.86,0,0,1,77.9,11a10.38,10.38,0,0,1,1.18-.53,7.91,7.91,0,0,1,2.6-.56,8.78,8.78,0,0,1,2.54.38,5.81,5.81,0,0,1,1.84.93c.36.26.7.57,1.08.81a7.19,7.19,0,0,0,1.12.53,4.09,4.09,0,0,0,2.3.12A3.14,3.14,0,0,0,91.85,12a.39.39,0,0,0,.15-.21,1.19,1.19,0,0,1,.46-.6c.21-.17.37-.37.57-.53a2.77,2.77,0,0,1,.46-.22c.23-.11.47-.19.69-.3a1.42,1.42,0,0,1,1-.26.76.76,0,0,0,.26,0,.3.3,0,0,1,.37.14,1.55,1.55,0,0,1,.3.83c0,.13,0,.27,0,.41a.32.32,0,0,0,.2.3.41.41,0,0,1,.18.27.38.38,0,0,0,.28.37c.14.06.14.14.13.26a1.42,1.42,0,0,1-.57.92,11,11,0,0,0-.8.87,3.44,3.44,0,0,1-1,.84c-.15.08-.26.23-.41.32a5.26,5.26,0,0,1-.79.39c-.41.13-.84.2-1.24.34a5.44,5.44,0,0,1-1.27.21h-.15C90.42,16.42,90.1,16.25,90,16.36Z"/><path class="cls-1" d="M38.06,54.57c.1.16.16.39.3.47a1.17,1.17,0,0,1,.56,1.19c0,.19.17.39.24.59.13.42.25.85.38,1.27.07.24.13.49.2.73.16.6.31,1.2.49,1.8a.58.58,0,0,0,.31.26c.45.19.89.36,1.35.51.26.08.54.11.81.17,1,.2,2,.47,3.07.6s2,.1,3.08.17c.61.05,1.21.16,1.82.24,0,0,.11,0,.13,0,.44-.63,1-.11,1.47-.14.1,0,.2,0,.34,0l-.21-.18,1.33.2a3,3,0,0,0,1.92-.14A7.2,7.2,0,0,1,57.3,62c.46-.1.9-.29,1.36-.38a1.86,1.86,0,0,1,.68.11c.18,0,.35.1.62.18-.24-.57-.12-.89.31-1.14.13-.08.14-.35.23-.53s.13-.26.24-.31l2-.88c.59-.25,1.18-.48,1.75-.76.17-.09.39-.15.35-.53a4.33,4.33,0,0,1,.27-1.38.31.31,0,0,0,0-.28c-.2.23-.39.46-.6.67s-.24.12-.34.21a.58.58,0,0,0-.16.31c0,.64-.48.84-1,1a3.13,3.13,0,0,1-.72.27,1.69,1.69,0,0,1-1.83-1.2s-.15-.06-.22-.05c-.59.09-1.17.23-1.75.26a1.8,1.8,0,0,1-1.1-.19,1,1,0,0,1-.14-1.14c.12-.3-.1-.74-.18-1.11,0-.15-.1-.3-.15-.46a4.2,4.2,0,0,0-.92.36,7,7,0,0,0-.8.75.41.41,0,0,1-.26.09,1.16,1.16,0,0,0-.49,0l.31.08v0l-1.31.08V56h.27c0-.15-.14-.33-.11-.47a3.59,3.59,0,0,1,.3-.74c.07,0,0,0,0,0,.14-.4.43-.82.36-1.16-.12-.53.2-.78.43-1.09a1.86,1.86,0,0,1,1.81-.88c.41,0,.85-.39,1.27-.39a9.77,9.77,0,0,1,2.15.24c.17,0,.26.4.42.58a.88.88,0,0,0,1.44,0c.19-.19.59-.19.9-.22a1.38,1.38,0,0,1,.49.13,2.84,2.84,0,0,0,.49.17.63.63,0,0,0,.43,0,1.49,1.49,0,0,1,1.58.25c.46-.6.46-.6.94-.36a5.12,5.12,0,0,1,.18-.7,3.84,3.84,0,0,1,.45-.85c.29-.37.1-.6-.1-.92a13.59,13.59,0,0,1-.53-1.3c0-.1-.25-.15-.38-.15a7.38,7.38,0,0,0-.94,0c-.25,0-.62,0-.71.12-.32.48-.81.24-1.2.38-.12,0-.25,0-.37.07-.76.31-1.38.27-1.7-.64,0-.06-.24-.06-.53-.14,0-.06-.12-.28-.24-.54l-.22.16c-.55.38-1.09.78-1.66,1.12a4,4,0,0,1-.79.23.51.51,0,0,1-.71-.21c-.2-.29-.53-.48-.76-.75-.07-.09,0-.28,0-.39l-.27-.47c-.21-.42-.66-.32-1-.32a2.69,2.69,0,0,1-2.34-1.92c0-.07,0-.14,0-.2s0-.34,0-.44c-.32-.49-.7-.93-1-1.43-.05-.09.14-.48.28-.52a3.23,3.23,0,0,1,1.16-.12,5,5,0,0,1,1.33.26c.31.11.55.43.85.56.53.22.32.64.4,1,0,.14.3.27.49.32a2.2,2.2,0,0,0,.68,0,1.79,1.79,0,0,0,.62-.08,1.57,1.57,0,0,1,1.69.06,2.37,2.37,0,0,0,.66.14l-.43.21a6.29,6.29,0,0,1,1.1-.12c.16,0,.31.19.47.29l.58.41s.05.06.06.05c.64-.32.81.67,1.43.51.22-.06.49.13.74.19.06,0,.19,0,.19,0a.29.29,0,0,0,0-.23A1.36,1.36,0,0,1,63.8,44s.09-.07.14-.09l1.72-.43-.11-.21c.09,0,.21-.05.27-.11a2.73,2.73,0,0,0,.25-.41l.13.25.08-.08c.08,0,.16.15.23.15.63,0,.79.61,1.23.86A1.74,1.74,0,0,1,68.56,46c0,.09-.18.15-.19.16l.33.73c.54-.1.61.42.81.8.29.58.74,1.11.58,1.82-.06.3-.25.57-.32.87s-.06.63-.11.93c0,.12-.15.22-.23.33l-.24.34.39.2-.31.25c.2.33.23.65-.25.84,0,0,0,.22,0,.34,0,.47-.09.94-.14,1.41-.08.76-.13,1.53-1,1.91-.14.07-.2.3-.34.51l-.13,0-.21,0a.49.49,0,0,0,0,.21,3.92,3.92,0,0,1,.48.9,2,2,0,0,1-.13.93,2.57,2.57,0,0,1-.37.74,1.4,1.4,0,0,1-.44.29A3.68,3.68,0,0,1,64.9,61c-.13,0-.26.13-.39.2l.13.12a6.1,6.1,0,0,1-.54.59,10.38,10.38,0,0,0-1,.83c-.2.24-.72.45-1,.27s-.28-.13-.37,0-.47.41-.72.42a5.35,5.35,0,0,1-1.22-.22,4.27,4.27,0,0,1-.9.57,7.33,7.33,0,0,1-1.17.15c-.31,0-.6.16-.91.23a23.5,23.5,0,0,1-2.46.54A3.12,3.12,0,0,1,53,64.4h-.38c-.53,0-1.05-.05-1.57-.09-.16,0-.31-.15-.46-.15-.43,0-.86,0-1.29,0a2,2,0,0,1-.34,0c-1.19-.08-2.38-.16-3.56-.26a1.26,1.26,0,0,1-.35-.14,4.67,4.67,0,0,0-.93-.24c-.84-.06-1.69-.07-2.53-.1a7.67,7.67,0,0,1-3.47-1.07,2.32,2.32,0,0,1-1.21-1.52c-.05-.27-.3-.49-.39-.76-.18-.53-.31-1.08-.46-1.62,0,0,0-.09,0-.11.72-.45-.07-.68-.15-1a2.35,2.35,0,0,0-.18-.4c-.1-.22-.23-.44-.32-.68a2.37,2.37,0,0,1-.1-.54c-.57.07-.74-.51-.84-1s.09-1,0-1.52.14-.84-.26-1.17c-.09-.08-.05-.33-.07-.5l.43,0c-.21-.31-.44-.6-.63-.92a3.54,3.54,0,0,1-.35-.85,6.89,6.89,0,0,1-.3-1.25c0-.4,0-.81,0-1.21s-.16-.54.26-.66c.09,0,.08-.34.16-.5.23-.48.5-.94.73-1.42A17.12,17.12,0,0,1,35.28,43c.18-.28.58-.42.86-.64l.92-.7c.1-.08.25-.11.33-.2a7.17,7.17,0,0,1,.82-.91,2.38,2.38,0,0,1,1.08-.5,7,7,0,0,1,1.25.19,1.93,1.93,0,0,0,.72-.08,11.68,11.68,0,0,0,1.43-.54c.14-.06.23-.25.34-.37s.14-.23.24-.27c.7-.33,1.39-.67,2.1-.93A15.29,15.29,0,0,1,47,37.66a4.89,4.89,0,0,1,1.09-.29,14.61,14.61,0,0,1,2.28.26,2.5,2.5,0,0,1,1.3.58,1.55,1.55,0,0,0,1,.48,6.55,6.55,0,0,0,.89,0,2.86,2.86,0,0,1,1.86.39c.09.08.39-.09.59-.14a6.47,6.47,0,0,1,1.13-.23,6.28,6.28,0,0,1,1,.21,1.39,1.39,0,0,0,.41,0,3.35,3.35,0,0,1,.54-.08,1.77,1.77,0,0,1,.73.21c.36.24.64.59,1,.83s.49.41.89.25c.55-.21,1,.11,1.49.36s.48.54.57,1,.44.61.65.93a.68.68,0,0,1,.14.42c0,.25-.07.59-.24.71a3.42,3.42,0,0,1-1,.37c-.07,0-.18,0-.22,0-.52.41-.88.09-1.24-.24s-.51-.45-.75-.69c0,0,0-.16,0-.24l-.06-.39c-.1,0-.22,0-.29.05a1.76,1.76,0,0,1-1.94.13A11.5,11.5,0,0,1,57.63,42c-.12-.07-.27-.23-.26-.35,0-.4-.09-.55-.49-.34a1.45,1.45,0,0,1-.4,0l-.16.14-.11-.17L55.52,41l-1.39-.42a4.86,4.86,0,0,0-1.2-.32c-.87,0-1.76.06-2.64.06-.47,0-.95-.15-1.42-.12a17.54,17.54,0,0,0-1.74.29l-.18,0a5.8,5.8,0,0,0-1.2.24c-.31.13-.54.46-.84.62a3.09,3.09,0,0,1-.77.14,2,2,0,0,0-.32.11c-.22.09-.43.21-.66.29a5.2,5.2,0,0,0-1,.3c-.59.35-1.12.76-1.9.46-.24-.1-.6.17-.91.21a.88.88,0,0,1-.6-.12c-.36-.26-.66-.6-1-.87-.08-.06-.28,0-.36,0,.09.39.18.74.25,1.1,0,.2,0,.42.05.63,0,0,.16.11.24.09.25,0,.5-.15.75-.21a1.31,1.31,0,0,1,.34,0c0,.15,0,.36-.13.46-.33.33-.7.62-1.06.93-.05,0-.13.07-.14.13a4.19,4.19,0,0,1-.19,1,9.14,9.14,0,0,1-.76,1.07,1.62,1.62,0,0,1-.41,1.55c-.42.29-.13.57-.07.83.16.61.38,1.2.58,1.79,0,.09.15.16.24.2.33.12.66.24,1,.34s.75.19,1.11.3c.08,0,.13.14.19.2s.15.15.19.13c.74-.35,1.26.17,1.84.46.06,0,.11.1.17.1a2.81,2.81,0,0,1,2,1.08c.31.31.34.63,0,.86,0,0-.12.12-.11.17a.43.43,0,0,0,.15.28c.53.29,1.06.57,1.61.83a2.13,2.13,0,0,0,.66.16c.43,0,.51.35.51.66a1,1,0,0,1-1,1.18,11.46,11.46,0,0,1-2,0c-.16,0-.35-.3-.43-.49a1.71,1.71,0,0,0-1.23-.58,3.33,3.33,0,0,1-.85.26.53.53,0,0,1-.45-.27c-.25-.58-.42-1.19-.67-1.77-.09-.2-.18-.45-.6-.38-.26,0-.58-.34-.88-.53ZM63.68,55.8l.62-.28a1.37,1.37,0,0,1,1.45.4.38.38,0,0,1,0,.1c.1.24.21.47.3.71a1.73,1.73,0,0,1,.12.43c0,.07-.08.15-.13.22s.19,0,.2,0,.13-.23.1-.32A2.9,2.9,0,0,0,65,55c0-.22,0-.4,0-.68-.51,1-1.42.47-2.22.71l.36.3v0Zm-5.43-9.3a7.46,7.46,0,0,0-.58-1c-.12-.15-.38-.2-.58-.29-.05.13-.16.25-.15.37A1.06,1.06,0,0,0,58.25,46.5Z"/><text class="cls-2" transform="translate(104.14 11.83) scale(1 0.98)">HIYA~ SCONE</text><text class="cls-3" transform="translate(104.14 16.81)">The be<tspan class="cls-4" x="9.58" y="0">s</tspan><tspan class="cls-5" x="10.95" y="0">t </tspan><tspan class="cls-6" x="12.9" y="0">g</tspan><tspan x="14.54" y="0">ood </tspan><tspan class="cls-7" x="20.83" y="0">g</tspan><tspan class="cls-5" x="22.48" y="0">ood </tspan><tspan class="cls-8" x="28.77" y="0">e</tspan><tspan class="cls-9" x="30.39" y="0">a</tspan><tspan class="cls-5" x="32.04" y="0">t </tspan><tspan x="0" y="3.44">s</tspan><tspan class="cls-10" x="1.43" y="3.44">c</tspan><tspan x="2.93" y="3.44">one in your neighborhood</tspan></text></g></g></svg>