<svg xmlns="http://www.w3.org/2000/svg" viewBox="0 0 136.32 62.58"><defs><style>.cls-1,.cls-2,.cls-3{fill:#484848;}.cls-2{font-size:3.91px;font-family:GenEiLateGo_v2, GenEi LateGo v2;letter-spacing:0.06em;}.cls-3{font-size:2.6px;font-family:NotoSansCJKtc-Light-B5pc-H, Noto Sans CJK TC;letter-spacing:0.07em;}.cls-4{letter-spacing:0.05em;}.cls-5{letter-spacing:0.06em;}.cls-6{letter-spacing:0.05em;}.cls-7{letter-spacing:0.07em;}.cls-8{letter-spacing:0.05em;}.cls-9{letter-spacing:0.05em;}</style></defs><title>logo_black</title><g id="圖層_2" data-name="圖層 2"><g id="圖層_3" data-name="圖層 3"><path class="cls-1" d="M27.52,22.54c-.09,0-.23.16-.31-.06l-.07.26c-.14,0-.3-.14-.39-.1-.26.12-.43-.06-.64-.09s-.47,0-.7,0-.19-.1-.3-.12a2.2,2.2,0,0,0-.37-.05l-.35,0a3.07,3.07,0,0,0-.5-.13,2.42,2.42,0,0,1-1.13-.5,3,3,0,0,1-1.31-2,12.84,12.84,0,0,1-.16-1.52c0-.18-.05-.31-.27-.36a3.44,3.44,0,0,1-.69-.28.74.74,0,0,1-.43-.85,1.24,1.24,0,0,1,.1-.39.49.49,0,0,1,.26-.21,1.8,1.8,0,0,1,.61,0,.74.74,0,0,0,.82-.59c0-.16.09-.32.12-.48s.06-.49.11-.72.12-.44.19-.66a2,2,0,0,1,.08-.26c.15-.42.32-.84.47-1.26.05-.14,0-.3.1-.43s.16-.2.22-.32.08-.28.15-.41.12-.45.42-.5c0,0,.06-.07.08-.11a2.72,2.72,0,0,1,.68-1.08,1.19,1.19,0,0,1,.89-.32,1.66,1.66,0,0,1,.47.22v.08a6.26,6.26,0,0,0,1-.67,5.66,5.66,0,0,1,1.81-1,4.31,4.31,0,0,1,1.16-.3A3.6,3.6,0,0,1,31,7.41a2.09,2.09,0,0,1,1.2,1,6.29,6.29,0,0,0,.43.47,1.86,1.86,0,0,1,.22.27c.2.33.38.67.57,1,.09.14.19.27.29.4a8.74,8.74,0,0,1,.66,1.38,3.47,3.47,0,0,1,.19.57.24.24,0,0,0,.28.17l.63-.09a3.63,3.63,0,0,1,1.46.22c.14.06.18.18.09.29-.22.29-.45.57-.68.85s-.34.46-.5.7a.3.3,0,0,1-.33.16c-.2,0-.39.23-.35.42.15.55.29,1.11.41,1.66.08.39.12.79.19,1.18a.19.19,0,0,0,.07.13,2.2,2.2,0,0,1,.38,1.41,2.07,2.07,0,0,0,.09.4c.08.31.14.63.23.95a2.44,2.44,0,0,0,.18.41c.18.47.37.94.55,1.42a1.9,1.9,0,0,1,.22.7,2.71,2.71,0,0,1-.26.79c-.09.26-.3.32-.56.35a1.91,1.91,0,0,0-.34.1,5.29,5.29,0,0,1-1,.24,1.1,1.1,0,0,1-.58-.29,1.57,1.57,0,0,1-.3-.37c-.05-.07,0-.17-.09-.23s-.16-.16-.24-.16c-.34,0-.54-.2-.56-.52,0-.05,0-.1.08-.15-.15-.21,0-.68.26-1-.34,0-.16-.31-.34-.43-.19.33-.56.38-.86.55a6.61,6.61,0,0,1-1.8.56c-.15,0-.32-.05-.49-.08a1,1,0,0,0-.23,0,1.76,1.76,0,0,1-.38.06,4.8,4.8,0,0,0-.93.08,2,2,0,0,1-1.17-.21C27.58,22.71,27.57,22.63,27.52,22.54Zm.37-8.36-.38-1a.54.54,0,0,0-.09-.12,2.82,2.82,0,0,1-.24-.36,1.16,1.16,0,0,1-.16-.4c0-.21-.13-.45.1-.62a2,2,0,0,1,1.1-.36,7,7,0,0,1,1.12,0,9.56,9.56,0,0,1,1.05.17.22.22,0,0,1,.15.08,2,2,0,0,1,.43.65,3.72,3.72,0,0,1-.07.93s0,.05-.07.08l-.2.24.59,0c.23,0,.33-.12.29-.34s-.12-.56-.19-.84-.16-.66-.26-1a6,6,0,0,0-.37-1.11A5.35,5.35,0,0,0,30,9.38L30,9.44l-.46,0a1.35,1.35,0,0,0-.51.06c-.46.26-.9.56-1.33.85s-.79.59-1.21.86c-.23.15-.47.34-.8.22,0,0-.07,0-.08,0a1.56,1.56,0,0,0-.19.39c0,.26,0,.54-.09.8s-.15.5-.21.75-.16.78-.23,1.17c0,.18.05.28.24.25s.66-.1,1-.17l1.16-.29Zm4.84,3.7s0,0,0-.05c-.17-.62-.32-1.23-.52-1.84a.91.91,0,0,0-.38-.37c-.29-.16-.57,0-.85.06-.53.14-1,.32-1.58.46-.2.05-.42,0-.61.09-.45.12-.89.26-1.32.41l-1.93.63a.26.26,0,0,0,.1.07l1.22.26h.26a.24.24,0,0,0,.15-.08s0-.11-.05-.16-.05-.06-.07-.08a.45.45,0,0,1,.4-.32,3,3,0,0,1,.52,0,8.57,8.57,0,0,0,1,.21,2.44,2.44,0,0,1,1.16.4,2.78,2.78,0,0,0,1,.47.68.68,0,0,0,.28,0l.16,0Z"/><path class="cls-1" d="M.59,22.13C.29,21.8.31,21.38.19,21s0-.5-.1-.73a1.42,1.42,0,0,1,0-.84,2.1,2.1,0,0,0,0-.79c0-.17,0-.68,0-.76A4.11,4.11,0,0,1,0,17c.11-.27,0-.43.22-.76a1.89,1.89,0,0,1,.34-.45c.17-.16.35-.31.51-.47s.19-.29.33-.39a5,5,0,0,1,.73-.47A10.62,10.62,0,0,1,3.11,14a5.39,5.39,0,0,1,1.32-.44,5.08,5.08,0,0,0,.51-.17c.25-.07.55-.06.72-.21a1.57,1.57,0,0,1,.78-.26,3.65,3.65,0,0,1,1,0c.29,0,.57.09.86.12a1.44,1.44,0,0,1,.76.4,1,1,0,0,1,.36.6c0,.07.09.13.13.19s.18.2.19.31,0,.45,0,.68a1.32,1.32,0,0,0,.33,1,1.45,1.45,0,0,1,.44,1.23,5.69,5.69,0,0,1,.21.62,4,4,0,0,1,.11,1.42,2.64,2.64,0,0,1-.14.7,1.38,1.38,0,0,1-.4.44c-.13.12-.29.21-.43.32a.57.57,0,0,1-.13.08l-1.41.57a3.22,3.22,0,0,1-.5.23c-.32.07-.64.1-1,.15l-.24.07-.74.12a2.7,2.7,0,0,0-.79.09,1.43,1.43,0,0,1-.62,0,4.88,4.88,0,0,0-1-.06c-.34.05-.68,0-1,.07-.1,0-.17.14-.26.18a1,1,0,0,1-.39.14,2.59,2.59,0,0,1-.62-.1,1,1,0,0,1-.27-.14A2.67,2.67,0,0,1,.59,22.13Zm5.75-3.26c.08.14.18.15.32.09s.51-.21.75-.33.46-.2.48-.49a.15.15,0,0,1,0-.09.48.48,0,0,0,0-.65c-.1-.13-.18-.28-.28-.41a2.16,2.16,0,0,0-.7-.71,1.23,1.23,0,0,1-.38-.3,1,1,0,0,0-1.06-.24,3.84,3.84,0,0,0-.61.45,8.24,8.24,0,0,0-.9.87c-.27.32-.64.21-1,.28a.92.92,0,0,1-.33,0c-.21,0-.2.36-.14.44a1.64,1.64,0,0,1,.21.25,2.32,2.32,0,0,0,.18.39,1.52,1.52,0,0,0,.63.45.61.61,0,0,1,.25.23.22.22,0,0,0,.26.12c.26,0,.52,0,.78,0H5.5l.11,0Z"/><path class="cls-1" d="M12.17,9.78c.26-.46.37-1,1-1.17a6.27,6.27,0,0,1,.74.29,1.49,1.49,0,0,0,.72.13c.11,0,.21.12.32.17a3.26,3.26,0,0,0,.44.15,5.54,5.54,0,0,1,.93.26,1.06,1.06,0,0,1,.65.86c0,.28.14.55.17.83a1.22,1.22,0,0,1-.62,1.11l-.6.45c-.09.07-.21.12-.31.19s-.12.1-.13.16-.1.17-.22.2-.12.1-.16.16a1.61,1.61,0,0,1-.23.33.32.32,0,0,1-.46,0,.59.59,0,0,0-.22-.12,1,1,0,0,1-.72-.62A.29.29,0,0,0,13.3,13a.81.81,0,0,1-.45-.38c-.11-.2-.27-.37-.39-.57s0-.18-.09-.26a2.73,2.73,0,0,1-.29-1.28.25.25,0,0,1,.06-.13C12.36,10.14,12.36,10,12.17,9.78Z"/><path class="cls-1" d="M13,25.17a4.58,4.58,0,0,1,0-.62,3.77,3.77,0,0,1,.14-.58.37.37,0,0,0,0-.18c-.14-.27,0-.56.31-.49s.54-.1.81-.17l.32-.1a2.62,2.62,0,0,0,.62-.26,1.27,1.27,0,0,1,.74-.2,3.32,3.32,0,0,0,.68-.15c.22-.06.4-.24.66-.22a.76.76,0,0,1,.63.45c.06.2.18.39.1.62a.84.84,0,0,0-.08.34,5.16,5.16,0,0,0,.09.52c.06.29.1.56-.2.78-.1.07-.11.26-.15.4a1.26,1.26,0,0,1-.54.78.19.19,0,0,0-.1.1c-.06.25-.29.22-.46.29s-.23.08-.27.16a.42.42,0,0,1-.44.22,1.69,1.69,0,0,1-1.13-.27,15.15,15.15,0,0,1-1.5-1.26A1.3,1.3,0,0,0,13,25.17Z"/><path class="cls-1" d="M14.05,14.9l.15.09s.08.08.12.08c.42,0,.79.27,1.23.13.18-.06.44.07.66.12l.28,0c.11,0,.25,0,.32.05a1.27,1.27,0,0,0,.69.23.51.51,0,0,1,.44.46.88.88,0,0,1-.05.74.27.27,0,0,0,0,.2.85.85,0,0,1-.11.71c-.11.19-.25.37-.37.55a2.4,2.4,0,0,1-.18.26c0,.06-.11.11-.17.17s-.06,0-.07.07c-.07.26-.28.33-.51.39h-.24a.52.52,0,0,0-.47.19c-.06.06-.16.15-.23.14a1.76,1.76,0,0,1-1.16-.64.32.32,0,0,0-.08-.12.71.71,0,0,1-.33-.58.13.13,0,0,0-.06-.09,2,2,0,0,1-.65-1,2.44,2.44,0,0,1-.07-.82c0-.08.08-.16.13-.24s.16-.23,0-.39.05-.17.09-.26.11-.12.12-.19C13.57,14.89,13.66,14.82,14.05,14.9Z"/><path class="cls-1" d="M35.52,1.52c-.08-.07-.1-.19-.17-.26a.51.51,0,0,0-.25-.18,3.48,3.48,0,0,0-.64.07c-.35.07-.69.18-1.05.22a1.68,1.68,0,0,0-.76.29c-.32-.15-.4-.12-.43.1-.18,0-.35.06-.52.11s-.64.21-1,.3-.8.17-1.2.26c-.76.17-1.52.36-2.29.51a4.82,4.82,0,0,0-.53.22h-.45a1,1,0,0,0-.29-.1A1,1,0,0,0,25.79,3a.81.81,0,0,0-.31,0c-.14,0-.27.12-.42.18s-.25.08-.38.12-.07.06-.1.06a4.68,4.68,0,0,0-.54.09,1.76,1.76,0,0,0-.47.18.45.45,0,0,1-.51,0,.88.88,0,0,1-.36-.53c0-.06-.06-.11-.08-.16a1.15,1.15,0,0,1-.21-1,1.25,1.25,0,0,0,0-.61A1.66,1.66,0,0,0,21.32.06a.47.47,0,0,0-.7.28.75.75,0,0,0-.09.25,2.38,2.38,0,0,1-.49.93,3.79,3.79,0,0,0-.2.34,5.09,5.09,0,0,1-.46.74,4.43,4.43,0,0,0-.57,1.1s0,0,0,.06,0,.22-.07.29a1,1,0,0,0-.25,1.12,2.1,2.1,0,0,1,.06.24q.12.5.27,1c0,.11.17.19.17.3a1.19,1.19,0,0,0,.85,1c.09,0,.16.1.25.14l.28.11c.21.06.44.1.65.17a1.21,1.21,0,0,0,.85.14,6.51,6.51,0,0,0,1.82-.83,4.18,4.18,0,0,1,.8-.37l.24-.1c.48-.23.95-.5,1.46-.7a1.33,1.33,0,0,0,.7-.57l-.12-.12V5.5l.78.08h.08l1.2-.36.9-.3c.75-.21,1.5-.39,2.24-.61.16,0,.29-.22.43-.33s.32.07.4-.18a.14.14,0,0,1,.14,0,1,1,0,0,0,.85,0,1.61,1.61,0,0,0,.53-.34c.24-.17.52-.27.61-.58,0,0,.06-.06.09-.08a4.54,4.54,0,0,0,.52-.45A.52.52,0,0,0,35.52,1.52Z"/><path class="cls-1" d="M66.53,14.54c-.06-.58-.57-1-1.39-1.12a5.34,5.34,0,0,0-3,.33c-.13.07-.46,0-.48,0-.18-.49-.3-1-.46-1.5,0-.06-.1-.11-.16-.17H61A.13.13,0,0,1,61,12c0-.36.05-.73.07-1.1a1.32,1.32,0,0,0-.83-1.45c-.38-.18-.76-.35-1.12-.54-.2-.11-.35-.34-.55-.39a2.12,2.12,0,0,0-.75.06.62.62,0,0,0,0,.35c.21.44.44.86.65,1.3a.68.68,0,0,1,.14.3c0,.5,0,1,.07,1.5s.24,1,.36,1.55a2.72,2.72,0,0,1,.09.74.53.53,0,0,1-.22.42c-.49.13-1,.21-1.52.31A8.16,8.16,0,0,1,53.84,15s-.23-.05-.25-.15a2.81,2.81,0,0,1-.11-1.07A14.13,14.13,0,0,1,54,12.13c.05-.18.06-.47.18-.52.72-.29.77-1,1-1.54.16-.33.29-.67.42-1a2.71,2.71,0,0,0,.12-.58s-.09-.27-.06-.37,0-.24.07-.37a4,4,0,0,0-.35.2c-.16.11-.3.25-.46.36-.53.4-1.09.77-1.6,1.19a2.6,2.6,0,0,0-.58.73,19.57,19.57,0,0,0-1.54,2.89,3.37,3.37,0,0,0,.12,1.9,4.41,4.41,0,0,0,2.4,2.47.52.52,0,0,1,.13.12,6.46,6.46,0,0,1-.74.74c-.3.23-.7.33-1,.58-.55.49-1,1-1.55,1.56-.73.78-1.45,1.58-2.15,2.39-.16.17-.19.45-.34.63A12.93,12.93,0,0,0,47,24.86a9.25,9.25,0,0,0-.8,1.89,1.43,1.43,0,0,0,0,1c.15.29.45.47.24.88s-.25.83.12,1.06a3.45,3.45,0,0,0,1.19.22l.71.14c.1,0,.24.07.29,0a7,7,0,0,0,1-.95c.55-.71,1-1.46,1.56-2.2.19-.28.34-.57.51-.86s.48-.88.78-1.28c.7-.92,1.45-1.81,2.17-2.71.46-.58.9-1.18,1.35-1.76.09-.11.16-.27.28-.32a1.58,1.58,0,0,0,1-1.24c.06-.27.11-.68.3-.77A6.16,6.16,0,0,1,59,17.65l.1,0-.06-.1a.28.28,0,0,1,0-.13l.08,0c.09.17.19.34.27.52,0,0,0,.09,0,.13a1.74,1.74,0,0,0-.19.6c0,.56.13,1.12.19,1.68a1.27,1.27,0,0,0,0,.34c.18.46.41.9.57,1.37.09.26,0,.57.1.84s.26.74.37,1.12.45.45.8.39a2.43,2.43,0,0,0,.62-.27l.75-.36c.16-.09.45-.21.45-.32a24.51,24.51,0,0,0,0-3.09,27.23,27.23,0,0,0-.57-3.05A1.63,1.63,0,0,1,63,15.84a1.44,1.44,0,0,1,.81-.3c.68-.11,1.38-.17,2.07-.29C66.24,15.18,66.58,15,66.53,14.54Z"/><path class="cls-1" d="M47.16,13c.05-.33.13-.66.21-1.06s0-.59.07-.91c.07-.89,0-1.81-.87-2.3a7.59,7.59,0,0,0-2.36-.81A7.87,7.87,0,0,0,41.94,8a3.59,3.59,0,0,0-2.68,2.16,4.36,4.36,0,0,0-.17,2.34,4.25,4.25,0,0,0,1.25,2.64,4.73,4.73,0,0,0,2.17,1.63c.39.1.75.47,1.19.14s.95-.68,1.4-1S46,15,46.5,14.5c.07-.08,0-.25.11-.33s.43-.33.53-.54S47.13,13.18,47.16,13ZM44,12.88c0,.09-.32.08-.47.16-.54.29-1,.63-1.61.87a.94.94,0,0,1-.7-.22A3.13,3.13,0,0,1,40.38,12c-.36-1.17.87-1.85,2-1.61a5,5,0,0,0,.53.06,3.84,3.84,0,0,1,1,.38c.17.11.18.46.24.71a1.47,1.47,0,0,1,0,.47A4,4,0,0,1,44,12.88Z"/><path class="cls-1" d="M65.62,3.15a.49.49,0,0,0-.29,0s0,.15,0,.22a.49.49,0,0,1-.11.14l-.09,0a.28.28,0,0,0,0-.15c0-.1,0-.27-.11-.28A3,3,0,0,0,64.24,3a17.21,17.21,0,0,0-1.75.15c-.87.14-1.73.32-2.59.5-.13,0-.38.11-.08.29l.06.06-.09,0A8,8,0,0,0,58.6,4a15.91,15.91,0,0,0-2.06.27c-.69.13-1.37.33-2,.52s-1.38.37-2,.62S51,6,50.29,6.34h0a.18.18,0,0,0,0,.28l.08.07h0a.17.17,0,0,1,0,.27h0c-.06,0-.15.11-.17.17s.07.15.14.18l2,.69a.21.21,0,0,0,.11,0c.35-.08.8-.2,1.25-.26,1-.14,1.94-.24,2.91-.37a19.54,19.54,0,0,0,2.17-.31,5.5,5.5,0,0,0,1.16-.44,5.72,5.72,0,0,1,.67-.27A4.37,4.37,0,0,0,61.48,6l.87-.09a3.38,3.38,0,0,0,.71,0c.37,0,.73-.19,1.1-.23.65-.07,1.4.15,1.66-.74.07-.23.4-.39.48-.62C66.47,3.87,66.18,3.42,65.62,3.15Z"/><path class="cls-1" d="M76.5,32.46a5.46,5.46,0,0,1,1.44-.66,9.16,9.16,0,0,1,2.22,0,11.91,11.91,0,0,1,3.36.46,6.54,6.54,0,0,0,3.12.22,5.88,5.88,0,0,1,1.12.27c.82.13,1.64.26,2.46.32,1.1.08,2.22,0,3.31.15a4.39,4.39,0,0,1,3.37,3.61c0,.53.33,1.06.36,1.6a12.8,12.8,0,0,1-.12,2.14C97,42,96.75,43.49,96.63,45c-.09,1,0,2,0,3.06a.18.18,0,0,0,0,.13c.74.87,0,1.5-.31,2.26a9.21,9.21,0,0,0-.26,2.42,10.92,10.92,0,0,1-3,6.9,7.9,7.9,0,0,1-2,1.31c-.65.37-1.41,1-2,.93a13.9,13.9,0,0,1-3.42-1.37,4.14,4.14,0,0,1-1.46-1.11c-.12-.15.31-.7.48-1.08s.15-.69.35-.78a4.51,4.51,0,0,1,1.83-.52,7.48,7.48,0,0,1,2.63.43c1.49.61,1.92-.46,2.43-1.26a8.17,8.17,0,0,0,.63-1.94,11,11,0,0,0,.72-2.21c.12-1.23,0-2.48,0-3.72,0-1.74,0-3.48,0-5.22s.22-3.31.26-5A6.65,6.65,0,0,0,93.29,36c-.08-.25-.76-.42-1.18-.45-1.44-.09-2.89,0-4.33-.16s-2.59-.45-3.89-.55a3.56,3.56,0,0,0-1.46.51,6.27,6.27,0,0,1-4.6.33c-.2-.06-.24-.57-.45-.64-.53-.18-1.12-.18-1.66-.33a2.88,2.88,0,0,1-1.22-.58.88.88,0,0,1,.07-.91,15.63,15.63,0,0,1,1.81-1Z"/><path class="cls-1" d="M79.42,46c1.06.12,1.85.21,2.63.28.62.06,1.25,0,1.85.13,1.11.2,2.66,2,2.4,2.78a21.08,21.08,0,0,1-1,2,5.27,5.27,0,0,0-.52,1.47c-.08.66-1,1.19-1.82,1.3a21.75,21.75,0,0,0-2.64.83,2.15,2.15,0,0,1-1.25.05,14.31,14.31,0,0,1-2.84-1.52,2.52,2.52,0,0,1-.81-1.57,4.3,4.3,0,0,1,.22-2,4.09,4.09,0,0,1,1-1.68C77.55,47.24,78.56,46.6,79.42,46Zm1.31,4.38c.5-.41,1-.73,1.34-1.11a1.77,1.77,0,0,0,.29-.67c0-.07,0-.19,0-.23s-.2-.12-.26-.09A8,8,0,0,0,80.7,49a1.5,1.5,0,0,0-.44.8C80.23,49.89,80.49,50.06,80.73,50.34Z"/><path class="cls-1" d="M84.41,43.94c-1.22,0-2.61.44-3.6,0s-1.42.25-2.1,0c-.95-.33-2.14-.26-2.46-1.53-.11-.43-.56-.81-.59-1.23s.36-.72.68-.88c.86-.43,1.41-1.45,2.63-1.26.63.1,1.29,0,1.93.11.19,0,.36.34.53.34.51,0,1-.16,1.52-.18a1.78,1.78,0,0,1,.77.21c.7.35,1.39.71,2.06,1.1a1,1,0,0,1,.48.55,2.94,2.94,0,0,1,.08,1.52c-.16.38-.7.65-1.12.9a3.31,3.31,0,0,1-.81.2Z"/><path class="cls-1" d="M122.1,30.2a7.5,7.5,0,0,0,.41,2,2,2,0,0,0,1.85.91,6.07,6.07,0,0,1,2.2.53c1.23.58,2.39,1.28,3.56,2a3.33,3.33,0,0,1,.68.76c-.34,0-.69,0-1,0-1.44.14-2.87.25-4.3.45-.88.12-1.74.51-2.63.55-1.76.07-3.54-.16-5.29,0s-3.48.62-5.23.91c-.51.08-1.08-.06-1.58,0a1.53,1.53,0,0,0-1,.66c-1,2.36-2,4.75-3,7.13-.56,1.35-1.11,2.72-1.78,4-.22.43-.81.68-1.2,1a1,1,0,0,0-.26.5c-.14.47-.22,1-.38,1.42a.73.73,0,0,1-.41.29,8.16,8.16,0,0,1-.71-.73c-.08-.08-.18-.25-.23-.24-1.23.35-.75-.62-.7-1a25.86,25.86,0,0,1,.83-3.81c.4-1.26,1.06-2.44,1.48-3.7a10.2,10.2,0,0,0,.23-2.08,5.28,5.28,0,0,1,2.91-4c.92-.51-.07-.68-.2-.74a.86.86,0,0,1-.38-1.44,2.41,2.41,0,0,1,1.41-.62c.89-.13,1.81-.13,2.72-.18a27.21,27.21,0,0,0,2.72-.15c2-.32,4-.73,6-1.12a2.6,2.6,0,0,0,0-.43c-.11-.49-.21-1-.36-1.46s-.35-.89-.48-1.34-.25-.78-.1-1c.39-.62.87-1.23,1.83-1a10.87,10.87,0,0,1,2,.52c.36.19.5.77.75,1.17Z"/><path class="cls-1" d="M114.72,46.9c-1,0-1.9-.07-2.85-.14a1.43,1.43,0,0,1-.47-.22,2.4,2.4,0,0,0-.26-.18c-.39-.14-.8-.27-1.19-.42a.27.27,0,0,1,0-.24,10.13,10.13,0,0,1,.61-.85c.09-.11.31-.14.33-.24.25-.87.82-.81,1.58-.63s1.51.09,2.26.19c.54.07,1.06.28,1.6.38a5.17,5.17,0,0,0,1.18.07c.09,0,.28-.33.24-.39a.84.84,0,0,0-.48-.31c-1.2-.13-2.42-.19-3.61-.37-.21,0-.49-.48-.49-.74s.27-.59.42-.88c.45-.88,1-.58,1.83-.41.63.13,1.4-.36,2.1-.58a2.12,2.12,0,0,1,.31-.14c.71-.14,1.06-.42.77-1.17-.06-.17.21-.58.43-.69a2.5,2.5,0,0,1,1-.12.43.43,0,0,1,.31.26c.13.47.13,1.32.32,1.36a4.3,4.3,0,0,0,2.17-.08,3.16,3.16,0,0,1,3.36.59c.21.21.74.12,1,.32s.62.61.6.9c-.07.81-.32,1.6-.47,2.41,0,.05.15.2.21.19.67-.11,1.33-.3,2-.35a7.55,7.55,0,0,1,1.47.21c-.31.35-.55.82-1,1a19.83,19.83,0,0,1-2.33.76c-.08,0-.21.12-.2.17.12,1.06-.47,1.36-1.46,1.28-.1,0-.2,0-.12,0a5.29,5.29,0,0,1-.37.62c-.6.69-1.09,1.49-2.29,1.39a1.69,1.69,0,0,0-1.94,2c.09,1.49.1,3,.08,4.48,0,.94-.84,1.41-1.71,1.48s-1.34,0-1.52-.75A10.06,10.06,0,0,1,118,55.2a12.75,12.75,0,0,1-.06-2c0-.3.35-.56.48-.87.31-.72-.36-1.64-.92-2.14-.81-.73-1.71-.43-2.56-.63-.52-.11-.92-.68-1.37-1a3.5,3.5,0,0,1-.3-.24l-.53-.61a2.89,2.89,0,0,1,.83-.56,4.53,4.53,0,0,1,1.17-.06Zm6.37.32c.37.19.56.36.75.36.69,0,1.38,0,2.07,0h.33c-.1-.11-.19-.31-.31-.33-.69-.13-1.39-.25-2.09-.32C121.66,46.9,121.46,47.06,121.09,47.22Zm-3.4.83c.12-.26.29-.46.24-.57s-.31-.53-.47-.53a7.2,7.2,0,0,0-1.37.26Zm5.78-3.47c-.23-.34-.3-.56-.4-.57-.58-.06-1.16-.09-1.74-.11,0,0-.11.17-.16.25.44.14.87.31,1.31.42A6.12,6.12,0,0,0,123.47,44.58Z"/><path class="cls-1" d="M125.33,60.45c-.14-.38-.42-.77-.38-1.13a2.9,2.9,0,0,1,.57-1.1c.07-.11.32-.17.33-.26.06-.93.63-.56,1.1-.4a22.49,22.49,0,0,1,2.57.94,27.9,27.9,0,0,1,2.8,1.75.6.6,0,0,1-.1.58c-.65.42-.82,1.47-2.1,1.11-.75-.2-1.69.28-2.56.34-.48,0-1.12.78-1.52-.23a7.21,7.21,0,0,0-1-1.46Z"/><path class="cls-1" d="M129.09,53.86c0,.19.1.42,0,.56s-.35.06-.54.09c-.82.09-1.64.19-2.46.27-.16,0-.4,0-.47-.06a1.89,1.89,0,0,1-.46-.81c-.07-.39.08-.81,0-1.19-.31-1.24.81-1,1.35-1a14.37,14.37,0,0,1,3.46.42c.37.08.58.72.86,1.11l-1.68.68S129.06,53.85,129.09,53.86Z"/><path class="cls-1" d="M114,60.24a11,11,0,0,1-1.94-.12,2.73,2.73,0,0,1-1.27-.75c-.14-.15.11-.65.24-1a8.92,8.92,0,0,1,.65-1.17A.46.46,0,0,1,112,57c.74,0,1.47-.07,2.2-.07a.63.63,0,0,1,.38.25l1.55,2c-.51.31-1,.64-1.54.91A1.87,1.87,0,0,1,114,60.24Z"/><path class="cls-1" d="M112.09,51.26c.31.42.61.84,1,1.24.18.21.6.34.62.54a1.76,1.76,0,0,1-.26,1.15c-.19.27-.72.28-1,.51-.48.37-.89.83-1.35,1.23-.07,0-.25,0-.37,0s-.12-.12-.15-.11c-1,.25-1-.62-1-1s.4-.83.73-1.16.89-.34.71-1.06c-.08-.34.42-.81.66-1.22Z"/><path class="cls-1" d="M85.19,15.49a2.9,2.9,0,0,1-1.1,0c-.73-.17-1.46-.32-2.18-.52a16.91,16.91,0,0,1-2.46-.91A4,4,0,0,0,79,13.8c-.41-.16-.82-.32-1.24-.46s-.69-.2-1-.3a1.1,1.1,0,0,0-.26,0c-.3,0-.6,0-.89.08s-.51.1-.77.16l-.08,0-.91.65a3.39,3.39,0,0,0-.34.31c-.35.28-.69.57-1,.83a4.63,4.63,0,0,1-.64.29c-.22.09-.44.2-.67.28a5.4,5.4,0,0,1-.58.11.8.8,0,0,0-.15,0c-.33.12-.6-.07-.56-.41a1.68,1.68,0,0,1,.16-.46c0-.08.09-.16.13-.24.32-.59.65-1.18.95-1.78a5.85,5.85,0,0,1,1-1.31,4,4,0,0,1,.67-.55c.34-.23.68-.47,1-.67a8.59,8.59,0,0,1,1.11-.51,7.68,7.68,0,0,1,2.46-.53,8.18,8.18,0,0,1,2.41.36,5.32,5.32,0,0,1,1.74.89c.35.24.66.53,1,.76a6.33,6.33,0,0,0,1,.5,3.8,3.8,0,0,0,2.19.11A2.77,2.77,0,0,0,87,11.38a.37.37,0,0,0,.15-.2,1.07,1.07,0,0,1,.44-.57c.19-.15.34-.35.54-.5a1.56,1.56,0,0,1,.43-.21l.65-.28a1.38,1.38,0,0,1,1-.25.7.7,0,0,0,.25,0,.27.27,0,0,1,.34.14,1.38,1.38,0,0,1,.29.78c0,.13,0,.26,0,.39a.29.29,0,0,0,.19.29.37.37,0,0,1,.17.25.37.37,0,0,0,.26.35c.13,0,.14.13.13.25a1.33,1.33,0,0,1-.54.86c-.27.26-.51.55-.76.83a3.23,3.23,0,0,1-.93.79c-.14.08-.25.23-.39.31a3.45,3.45,0,0,1-.75.36c-.38.13-.78.2-1.17.32a4.08,4.08,0,0,1-1.2.2l-.14,0C85.6,15.54,85.3,15.38,85.19,15.49Z"/><path class="cls-1" d="M36,51.66c.09.15.15.37.28.45a1.11,1.11,0,0,1,.54,1.12c0,.19.16.37.22.56.13.4.24.8.36,1.2.07.23.13.46.19.69.15.57.3,1.15.47,1.71,0,.1.18.2.29.25.42.17.85.34,1.28.48.24.08.51.1.76.16,1,.19,1.93.45,2.91.57s1.94.09,2.91.16c.58,0,1.15.15,1.73.22a.16.16,0,0,0,.12,0c.42-.6.93-.1,1.39-.13a2.12,2.12,0,0,1,.33,0l-.2-.17c.47.07.87.12,1.26.19A2.76,2.76,0,0,0,52.68,59a7.06,7.06,0,0,1,1.56-.27c.44-.09.85-.27,1.29-.35a1.69,1.69,0,0,1,.65.1l.58.17c-.22-.54-.11-.84.29-1.08.13-.07.14-.34.22-.5s.13-.25.23-.29c.62-.29,1.24-.57,1.87-.84s1.12-.45,1.66-.72c.15-.08.36-.14.32-.5a4.17,4.17,0,0,1,.26-1.31.29.29,0,0,0,0-.26c-.19.21-.37.43-.57.63s-.23.12-.31.2a.55.55,0,0,0-.16.3c0,.6-.46.79-.9,1a2.61,2.61,0,0,1-.69.25,1.24,1.24,0,0,1-.66-.05,1.45,1.45,0,0,1-1.08-1.08s-.13-.06-.2,0a16.25,16.25,0,0,1-1.66.25,1.68,1.68,0,0,1-1-.18.93.93,0,0,1-.13-1.08c.11-.29-.1-.7-.17-1,0-.15-.1-.29-.15-.44a3.94,3.94,0,0,0-.87.34,7.17,7.17,0,0,0-.75.71A.38.38,0,0,1,52,53a1,1,0,0,0-.46,0l.29.07v0l-1.24.08V53h.26c0-.14-.14-.3-.11-.44a3.07,3.07,0,0,1,.29-.7h0c.13-.38.4-.78.34-1.1-.11-.5.18-.73.4-1a1.79,1.79,0,0,1,1.72-.84c.39,0,.8-.36,1.2-.37a9.87,9.87,0,0,1,2,.23c.17,0,.25.38.41.55a.83.83,0,0,0,1.36,0c.17-.18.55-.18.85-.21a1.39,1.39,0,0,1,.46.13,3.57,3.57,0,0,0,.46.16.62.62,0,0,0,.41,0,1.43,1.43,0,0,1,1.5.23c.43-.56.43-.56.89-.33a3.36,3.36,0,0,1,.17-.66,3.49,3.49,0,0,1,.43-.81c.27-.35.09-.56-.1-.87a11.45,11.45,0,0,1-.5-1.24c0-.08-.23-.13-.36-.14a8.72,8.72,0,0,0-.89,0c-.23,0-.59,0-.67.12-.31.46-.77.23-1.14.35-.11,0-.24,0-.35.07-.72.29-1.31.26-1.61-.6,0-.06-.23-.06-.5-.13,0-.06-.12-.27-.22-.52l-.21.15c-.53.36-1,.74-1.58,1.07a3.44,3.44,0,0,1-.75.21.48.48,0,0,1-.67-.19c-.18-.28-.5-.46-.72-.72-.07-.08,0-.27,0-.37l-.25-.44c-.2-.4-.62-.3-.92-.3A2.55,2.55,0,0,1,50,42.46c0-.06,0-.13,0-.19s0-.32,0-.42c-.3-.46-.65-.88-.93-1.35a.58.58,0,0,1,.26-.49,3.13,3.13,0,0,1,1.1-.12,4.94,4.94,0,0,1,1.26.25c.29.11.52.4.81.53.5.21.3.61.37,1,0,.13.29.25.46.3A2.35,2.35,0,0,0,54,42a1.62,1.62,0,0,0,.59-.08,1.49,1.49,0,0,1,1.6.05c.13.1.33.09.62.15l-.41.19a5.57,5.57,0,0,1,1-.11c.16,0,.3.17.45.27l.55.39s0,.06.06,0c.6-.3.77.63,1.35.48.21-.06.47.12.7.18.06,0,.18,0,.19-.05a.27.27,0,0,0,0-.22,1.28,1.28,0,0,1-.28-1.63.32.32,0,0,1,.13-.08l1.63-.4-.11-.21a.67.67,0,0,0,.26-.1,3,3,0,0,0,.24-.39l.12.24.08-.08c.07,0,.14.15.21.15.61,0,.75.57,1.17.81a1.65,1.65,0,0,1,.78,1.94c0,.09-.17.14-.19.15l.32.69c.51-.09.58.4.76.76.28.55.71,1,.56,1.72-.07.29-.24.55-.31.83s0,.59-.11.88c0,.11-.14.21-.21.31l-.23.32.37.19-.29.24c.18.31.22.61-.23.8,0,0,0,.2,0,.31,0,.45-.08.9-.13,1.34-.07.72-.12,1.45-.92,1.81-.13.06-.19.28-.32.48l-.13,0-.19,0a.67.67,0,0,0,0,.2,3.59,3.59,0,0,1,.46.86,2,2,0,0,1-.12.88,2.3,2.3,0,0,1-.35.7,1.45,1.45,0,0,1-.42.27,3.38,3.38,0,0,1-1.74.58c-.13,0-.25.13-.37.19l.13.12a6.93,6.93,0,0,1-.51.56,8.23,8.23,0,0,0-1,.79c-.2.22-.68.42-.94.25s-.26-.12-.35,0-.45.39-.68.4a4.84,4.84,0,0,1-1.16-.21,3.68,3.68,0,0,1-.85.54,6.6,6.6,0,0,1-1.11.14c-.29.05-.57.15-.86.22a23,23,0,0,1-2.33.51A3,3,0,0,1,50.19,61h-.37c-.49,0-1,0-1.49-.08-.14,0-.29-.14-.43-.14-.41,0-.81,0-1.22,0-.11,0-.21,0-.32,0L43,60.56a.87.87,0,0,1-.33-.14,4.92,4.92,0,0,0-.88-.22c-.8-.06-1.6-.06-2.4-.1a7.12,7.12,0,0,1-3.28-1A2.2,2.2,0,0,1,35,57.65c-.05-.25-.28-.46-.36-.71-.18-.51-.3-1-.45-1.54,0,0,0-.09,0-.1.69-.43-.06-.65-.14-1a1.73,1.73,0,0,0-.16-.37c-.1-.22-.23-.43-.31-.65a2.7,2.7,0,0,1-.1-.51c-.54.06-.69-.48-.79-.94s.09-1,0-1.44.14-.79-.24-1.11c-.09-.07-.05-.31-.07-.47l.41,0c-.2-.29-.43-.57-.6-.87a4.37,4.37,0,0,1-.34-.8A8.22,8.22,0,0,1,31.54,46c0-.38,0-.76,0-1.15s-.15-.51.25-.62c.08,0,.08-.32.15-.47.22-.45.47-.89.69-1.34a17.65,17.65,0,0,1,.75-1.65c.17-.27.54-.4.82-.61s.57-.44.86-.66c.1-.08.24-.11.32-.19a7,7,0,0,1,.77-.86,2.21,2.21,0,0,1,1-.47,6.21,6.21,0,0,1,1.19.17,1.63,1.63,0,0,0,.69-.07c.45-.15.9-.32,1.34-.51.14-.06.22-.24.33-.36s.13-.21.22-.25c.66-.31,1.31-.63,2-.88a15.25,15.25,0,0,1,1.55-.38,4.06,4.06,0,0,1,1-.28,13.1,13.1,0,0,1,2.17.24,2.4,2.4,0,0,1,1.22.55,1.48,1.48,0,0,0,.92.46,5.9,5.9,0,0,0,.84,0,2.67,2.67,0,0,1,1.76.38c.09.07.37-.09.57-.14a4.94,4.94,0,0,1,1.07-.21,4.3,4.3,0,0,1,1,.2,1.23,1.23,0,0,0,.38,0,3.24,3.24,0,0,1,.52-.07,1.58,1.58,0,0,1,.69.2c.34.23.61.56.94.78s.47.39.85.24,1,.1,1.41.34.45.51.54.91.41.57.62.87a.71.71,0,0,1,.13.41c0,.23-.07.55-.23.67a3.74,3.74,0,0,1-.92.35c-.07,0-.16,0-.21,0-.49.38-.83.08-1.17-.23s-.48-.43-.71-.66c0,0,0-.15,0-.22s0-.25,0-.37-.21,0-.28.05a1.67,1.67,0,0,1-1.83.12,9.58,9.58,0,0,1-1.15-.59.48.48,0,0,1-.25-.32c0-.39-.08-.52-.46-.33-.09.05-.22,0-.39,0l-.14.13-.11-.16c-.25-.09-.44-.17-.65-.23l-1.32-.41a4.61,4.61,0,0,0-1.13-.3c-.83,0-1.66.06-2.5.06-.45,0-.9-.14-1.35-.11a15.56,15.56,0,0,0-1.64.27l-.18,0a6,6,0,0,0-1.13.22c-.29.13-.51.44-.8.59a2.71,2.71,0,0,1-.72.13,1.82,1.82,0,0,0-.3.11c-.21.09-.42.2-.63.27a5.48,5.48,0,0,0-.92.29c-.56.33-1.06.72-1.8.43-.22-.09-.57.17-.86.2a.83.83,0,0,1-.56-.11c-.34-.25-.63-.57-1-.82-.08-.06-.27,0-.34,0,.08.37.17.7.23,1s0,.4.05.6c0,0,.16.1.23.09.24,0,.47-.15.71-.2a1.17,1.17,0,0,1,.32,0c0,.15,0,.34-.12.44-.32.31-.67.59-1,.88,0,0-.12.07-.13.12a3.67,3.67,0,0,1-.18.91,8.26,8.26,0,0,1-.72,1,1.53,1.53,0,0,1-.39,1.46c-.39.28-.12.55-.06.79.15.57.35,1.13.55,1.69a.44.44,0,0,0,.23.19c.31.12.62.23.94.33l1,.28c.08,0,.12.13.18.19s.14.14.18.12c.7-.33,1.19.16,1.74.44.06,0,.11.09.16.09a2.73,2.73,0,0,1,1.89,1c.29.29.32.6,0,.82,0,0-.11.11-.1.16a.4.4,0,0,0,.13.26c.5.28,1,.54,1.53.79a1.88,1.88,0,0,0,.63.15c.4,0,.48.33.48.62a1,1,0,0,1-1,1.12,11.19,11.19,0,0,1-1.92,0c-.15,0-.33-.29-.4-.47a1.62,1.62,0,0,0-1.17-.55,2.92,2.92,0,0,1-.81.25.53.53,0,0,1-.42-.26c-.24-.54-.4-1.12-.64-1.67-.08-.19-.17-.43-.56-.37s-.55-.32-.83-.5Zm24.26,1.16.58-.26a1.31,1.31,0,0,1,1.38.38s0,.07,0,.1l.28.66a1.63,1.63,0,0,1,.11.42c0,.06-.08.13-.12.2s.18,0,.19,0a.51.51,0,0,0,.1-.3,2.78,2.78,0,0,0-1.34-2c0-.21,0-.38,0-.64-.48,1-1.34.44-2.09.67l.34.28,0,0ZM55.14,44a6.71,6.71,0,0,0-.54-.93c-.12-.14-.36-.18-.55-.27,0,.12-.15.24-.14.35A1,1,0,0,0,55.14,44Z"/><text class="cls-2" transform="translate(98.59 11.2) scale(1 0.98)">HIYA~ SCONE</text><text class="cls-3" transform="translate(98.59 15.91)">The be<tspan class="cls-4" x="9.07" y="0">s</tspan><tspan x="10.36" y="0">t </tspan><tspan class="cls-5" x="12.21" y="0">g</tspan><tspan x="13.77" y="0">ood </tspan><tspan class="cls-6" x="19.72" y="0">g</tspan><tspan class="cls-7" x="21.28" y="0">ood </tspan><tspan class="cls-8" x="27.24" y="0">e</tspan><tspan class="cls-6" x="28.77" y="0">a</tspan><tspan x="30.33" y="0">t </tspan><tspan x="0" y="3.25">s</tspan><tspan class="cls-9" x="1.35" y="3.25">c</tspan><tspan x="2.78" y="3.25">one in your neighborhood</tspan></text></g></g></svg>