<svg xmlns="http://www.w3.org/2000/svg" viewBox="0 0 187.74 86.18"><defs><style>.cls-1{fill:#c6b198;}.cls-2{font-size:5.38px;font-family:GenEiLateGo_v2, GenEi LateGo v2;letter-spacing:0.06em;}.cls-2,.cls-3{fill:#989898;}.cls-3{font-size:3.59px;font-family:NotoSansCJKtc-Light-B5pc-H, Noto Sans CJK TC;letter-spacing:0.07em;}.cls-4{letter-spacing:0.05em;}.cls-5{letter-spacing:0.07em;}.cls-6{letter-spacing:0.05em;}.cls-7{letter-spacing:0.06em;}.cls-8{letter-spacing:0.05em;}.cls-9{letter-spacing:0.05em;}</style></defs><title>logo_brown</title><g id="圖層_2" data-name="圖層 2"><g id="圖層_3" data-name="圖層 3"><path class="cls-1" d="M37.9,31c-.12,0-.31.23-.42-.08l-.1.36c-.19-.05-.42-.2-.55-.14-.34.17-.58-.09-.87-.12s-.64,0-1,0c-.14,0-.27-.14-.42-.17a4,4,0,0,0-.5-.07,3.89,3.89,0,0,1-.49,0,5.84,5.84,0,0,0-.69-.18,3.28,3.28,0,0,1-1.56-.68,4.17,4.17,0,0,1-1.8-2.76c-.13-.69-.16-1.4-.22-2.09,0-.25-.07-.42-.37-.5A4.83,4.83,0,0,1,28,24.2,1,1,0,0,1,27.41,23a1.64,1.64,0,0,1,.13-.54.63.63,0,0,1,.37-.29,2.59,2.59,0,0,1,.83-.06,1,1,0,0,0,1.13-.81c0-.22.12-.44.16-.66s.08-.67.15-1,.18-.6.27-.9c0-.12.06-.24.1-.36.22-.58.45-1.15.66-1.73.06-.19.06-.41.13-.6s.23-.27.31-.43.1-.39.2-.57.17-.62.58-.68c0,0,.09-.1.11-.16a3.8,3.8,0,0,1,1-1.49,1.54,1.54,0,0,1,1.22-.43c.22,0,.42.19.64.29v.11a10,10,0,0,0,1.44-.91,7.42,7.42,0,0,1,2.49-1.34,6,6,0,0,1,1.6-.41,4.91,4.91,0,0,1,1.74.14,3,3,0,0,1,1.65,1.4,7.1,7.1,0,0,0,.59.64,3.68,3.68,0,0,1,.31.38c.27.45.51.91.78,1.36a5.44,5.44,0,0,0,.39.55,11.71,11.71,0,0,1,.91,1.89,4.61,4.61,0,0,1,.27.79.31.31,0,0,0,.38.23c.29,0,.58-.09.87-.11a4.8,4.8,0,0,1,2,.3.24.24,0,0,1,.12.4c-.3.4-.63.78-.94,1.17s-.47.64-.7,1a.4.4,0,0,1-.45.22c-.28-.05-.54.32-.47.58.2.76.39,1.52.56,2.29.11.54.16,1.08.25,1.62a.4.4,0,0,0,.1.18A2.93,2.93,0,0,1,49.79,27a3,3,0,0,0,.14.55c.1.43.19.87.3,1.31.06.19.18.37.25.57.26.65.52,1.29.76,1.95a2.83,2.83,0,0,1,.31,1,4.1,4.1,0,0,1-.36,1.09c-.12.36-.42.45-.77.48a4.34,4.34,0,0,0-.48.14,6.76,6.76,0,0,1-1.38.33c-.26,0-.55-.22-.79-.39a1.88,1.88,0,0,1-.42-.51c-.07-.09-.06-.23-.13-.32a.61.61,0,0,0-.33-.23.72.72,0,0,1-.76-.7c0-.07.06-.14.1-.22-.2-.29,0-.94.36-1.37-.47,0-.22-.42-.46-.6-.27.46-.78.53-1.19.76a9.42,9.42,0,0,1-2.48.78,1.81,1.81,0,0,1-.67-.11,1.26,1.26,0,0,0-.33-.05c-.17,0-.35.11-.51.08a7.83,7.83,0,0,0-1.29.11,2.7,2.7,0,0,1-1.6-.28C38,31.28,38,31.16,37.9,31Zm.5-11.51c-.19-.51-.35-1-.52-1.4,0-.06-.08-.1-.12-.16a5.25,5.25,0,0,1-.33-.49,1.63,1.63,0,0,1-.22-.55c-.05-.3-.18-.63.13-.87a2.88,2.88,0,0,1,1.53-.48,9.9,9.9,0,0,1,1.54,0c.48,0,1,.15,1.44.23a.36.36,0,0,1,.2.11,2.69,2.69,0,0,1,.59.9,4.74,4.74,0,0,1-.08,1.29s-.07.06-.1.1l-.27.34c.31,0,.56,0,.8-.07s.47-.15.41-.45-.17-.78-.26-1.17-.23-.91-.36-1.35A8.71,8.71,0,0,0,42.26,14a6.47,6.47,0,0,0-.9-1.07l-.07.09a4.68,4.68,0,0,0-.64,0,1.44,1.44,0,0,0-.7.08c-.63.36-1.23.76-1.83,1.16S37,15,36.46,15.4c-.32.2-.65.47-1.1.3,0,0-.1,0-.12.07a1.89,1.89,0,0,0-.25.54c-.07.36-.06.73-.13,1.1s-.22.68-.29,1c-.13.54-.22,1.08-.32,1.62,0,.24.06.37.33.33.46-.07.92-.13,1.37-.23s1.06-.26,1.59-.4Zm6.68,5.09s0-.06,0-.07c-.23-.84-.45-1.69-.72-2.52a1.21,1.21,0,0,0-.53-.52c-.39-.22-.78,0-1.15.09-.74.19-1.45.43-2.19.63-.27.07-.57.05-.84.12-.61.17-1.22.37-1.82.56-.88.28-1.75.58-2.65.88,0,0,.08.08.14.09l1.67.35a1.45,1.45,0,0,0,.36,0,.34.34,0,0,0,.21-.12s0-.14-.06-.21a1.31,1.31,0,0,0-.11-.12.6.6,0,0,1,.55-.43,2.88,2.88,0,0,1,.72.05,11.31,11.31,0,0,0,1.35.3,3.32,3.32,0,0,1,1.6.54,4,4,0,0,0,1.34.66,1.39,1.39,0,0,0,.4-.06,1.41,1.41,0,0,1,.22-.06Z"/><path class="cls-1" d="M.81,30.47a3.49,3.49,0,0,1-.55-1.55c-.09-.32,0-.69-.14-1a2.1,2.1,0,0,1-.06-1.16,2.9,2.9,0,0,0,0-1.1c0-.22-.07-.93-.07-1a4.69,4.69,0,0,1,0-1.17c.15-.37,0-.58.31-1a2.24,2.24,0,0,1,.47-.62c.23-.22.48-.42.7-.65A3.82,3.82,0,0,1,2,20.62,8.77,8.77,0,0,1,3,20c.42-.24.84-.49,1.29-.7a7.48,7.48,0,0,1,1.82-.6c.24-.05.47-.16.71-.23s.76-.09,1-.29a2.1,2.1,0,0,1,1.07-.36,4.84,4.84,0,0,1,1.37,0c.39,0,.78.13,1.18.17a2,2,0,0,1,1,.55,1.34,1.34,0,0,1,.5.83c0,.09.12.17.18.25s.25.29.27.44-.05.62-.05.93a1.86,1.86,0,0,0,.45,1.44,1.94,1.94,0,0,1,.61,1.69,5.72,5.72,0,0,1,.29.85,5.41,5.41,0,0,1,.14,2,3.34,3.34,0,0,1-.18,1,2,2,0,0,1-.55.6c-.19.17-.4.3-.6.45l-.17.11c-.65.26-1.3.51-1.94.78a4.88,4.88,0,0,1-.7.32c-.43.1-.88.14-1.31.21-.12,0-.23.07-.34.09l-1,.16A4,4,0,0,0,7,30.71a1.91,1.91,0,0,1-.86,0,7.24,7.24,0,0,0-1.38-.08c-.47.07-.94,0-1.39.1-.13,0-.23.18-.36.25a1.36,1.36,0,0,1-.53.19A3.59,3.59,0,0,1,1.58,31a1.68,1.68,0,0,1-.37-.2A3,3,0,0,1,.81,30.47ZM8.73,26c.11.19.25.2.44.12.34-.16.7-.29,1-.46s.63-.26.65-.67a.35.35,0,0,1,.05-.13.63.63,0,0,0,0-.88c-.14-.19-.25-.39-.39-.57a2.9,2.9,0,0,0-1-1A1.89,1.89,0,0,1,9,22a1.39,1.39,0,0,0-1.46-.33,5.13,5.13,0,0,0-.85.62,11.71,11.71,0,0,0-1.24,1.2c-.36.44-.87.28-1.31.37a1.42,1.42,0,0,1-.46,0c-.28,0-.28.49-.19.6a3.17,3.17,0,0,1,.29.35,2.35,2.35,0,0,0,.25.53,2,2,0,0,0,.87.63.8.8,0,0,1,.34.32.31.31,0,0,0,.35.16,7.8,7.8,0,0,1,1.08,0h.89a.52.52,0,0,1,.16,0Z"/><path class="cls-1" d="M16.75,13.47c.36-.63.53-1.4,1.37-1.62.32.13.69.23,1,.4a1.88,1.88,0,0,0,1,.18c.15,0,.29.17.45.24a3.86,3.86,0,0,0,.6.21,7.53,7.53,0,0,1,1.28.35,1.49,1.49,0,0,1,.9,1.19c0,.39.19.76.23,1.14a1.68,1.68,0,0,1-.86,1.53l-.81.62c-.14.1-.3.17-.43.27a.4.4,0,0,0-.18.21c0,.18-.14.24-.31.28s-.16.13-.22.22a2.55,2.55,0,0,1-.31.45.46.46,0,0,1-.64,0,.6.6,0,0,0-.3-.17,1.35,1.35,0,0,1-1-.86.39.39,0,0,0-.22-.17,1.1,1.1,0,0,1-.61-.53c-.16-.27-.37-.51-.54-.78-.07-.1-.06-.25-.12-.36a3.63,3.63,0,0,1-.4-1.76.27.27,0,0,1,.08-.18C17,14,17,13.82,16.75,13.47Z"/><path class="cls-1" d="M17.87,34.66a6.58,6.58,0,0,1-.05-.86c0-.26.13-.52.19-.79a.36.36,0,0,0,0-.25c-.19-.37,0-.77.43-.67s.75-.14,1.12-.24a3.19,3.19,0,0,0,.44-.13,4,4,0,0,0,.85-.36,1.76,1.76,0,0,1,1-.28,4.36,4.36,0,0,0,.92-.21c.32-.07.56-.32.92-.29a1,1,0,0,1,.87.61c.07.28.25.55.13.85a1.34,1.34,0,0,0-.11.47,5.55,5.55,0,0,0,.13.71c.08.4.13.78-.28,1.08-.13.1-.15.36-.2.55a1.73,1.73,0,0,1-.75,1.08c-.06,0-.13.09-.14.14-.07.34-.39.3-.62.4s-.32.11-.38.22a.6.6,0,0,1-.6.31,2.34,2.34,0,0,1-1.56-.38,19.25,19.25,0,0,1-2.07-1.74C18.05,34.79,17.94,34.72,17.87,34.66Z"/><path class="cls-1" d="M19.35,20.52l.21.12c.05,0,.11.11.17.11.56,0,1.07.37,1.68.18.26-.08.61.1.91.16.13,0,.26,0,.39.06s.34,0,.44.08a1.82,1.82,0,0,0,1,.31.72.72,0,0,1,.61.63,1.22,1.22,0,0,1-.07,1,.41.41,0,0,0,0,.27,1.19,1.19,0,0,1-.14,1c-.15.26-.35.5-.52.75s-.15.24-.24.36-.16.16-.24.24-.09.05-.1.09c-.09.35-.38.46-.69.53a.78.78,0,0,1-.34,0,.71.71,0,0,0-.64.27c-.09.08-.23.21-.32.19A2.31,2.31,0,0,1,19.8,26a.67.67,0,0,0-.12-.16c-.24-.23-.48-.44-.46-.81a.18.18,0,0,0-.08-.12,2.78,2.78,0,0,1-.89-1.33,3,3,0,0,1-.09-1.13c0-.11.11-.22.17-.33s.22-.32,0-.54c0,0,.07-.24.12-.35s.16-.18.17-.27C18.69,20.51,18.81,20.41,19.35,20.52Z"/><path class="cls-1" d="M48.91,2.09c-.1-.1-.13-.25-.23-.36a.69.69,0,0,0-.34-.24,5.15,5.15,0,0,0-.88.09c-.48.09-1,.26-1.44.31a2.21,2.21,0,0,0-1.06.4c-.43-.21-.55-.18-.59.13a6.81,6.81,0,0,0-.71.15c-.45.13-.88.3-1.33.41s-1.11.24-1.66.37c-1.05.23-2.1.49-3.16.7a4.27,4.27,0,0,0-.73.31h-.61a1.49,1.49,0,0,0-.4-.15,1.82,1.82,0,0,0-.25-.07,1.24,1.24,0,0,0-.43,0,5.86,5.86,0,0,0-.57.26L34,4.58c-.05,0-.09.07-.14.08-.25,0-.51.06-.75.12a2.48,2.48,0,0,0-.64.24.63.63,0,0,1-.71,0,1.2,1.2,0,0,1-.48-.73c0-.08-.09-.15-.12-.22-.22-.43-.5-.84-.29-1.37a1.83,1.83,0,0,0,0-.84A2.26,2.26,0,0,0,29.36.09a.66.66,0,0,0-1,.37,1.45,1.45,0,0,0-.12.35,3.09,3.09,0,0,1-.68,1.29c-.1.14-.17.31-.26.46a8.42,8.42,0,0,1-.64,1A5.89,5.89,0,0,0,25.9,5.1s0,.05,0,.08,0,.31-.1.39a1.43,1.43,0,0,0-.34,1.55c0,.11,0,.22.08.33.12.46.23.91.37,1.36,0,.15.23.27.24.41a1.63,1.63,0,0,0,1.16,1.37c.12.05.23.14.35.19a1.77,1.77,0,0,0,.38.15c.3.09.61.14.9.24a1.68,1.68,0,0,0,1.17.19,9.33,9.33,0,0,0,2.51-1.14,6.16,6.16,0,0,1,1.1-.51L34,9.58c.66-.33,1.31-.7,2-1a1.82,1.82,0,0,0,1-.78l-.16-.17V7.58l1.07.11.12,0,1.65-.5c.41-.13.82-.29,1.24-.41C42,6.48,43,6.22,44,5.92c.23-.07.4-.3.59-.45s.45.09.56-.25c0,0,.15-.08.19-.06a1.36,1.36,0,0,0,1.18,0,2.71,2.71,0,0,0,.72-.47c.33-.23.71-.37.84-.8,0,0,.09-.07.13-.11a6.91,6.91,0,0,0,.71-.61A.72.72,0,0,0,48.91,2.09Z"/><path class="cls-1" d="M91.63,20a1.92,1.92,0,0,0-1.92-1.55,7.37,7.37,0,0,0-4.15.46c-.18.09-.64,0-.66,0-.25-.67-.42-1.38-.63-2.07,0-.09-.14-.15-.22-.23s-.06,0-.07,0a.12.12,0,0,1,0-.07c0-.51.07-1,.11-1.52a1.83,1.83,0,0,0-1.16-2c-.51-.26-1-.48-1.53-.76-.28-.14-.49-.45-.77-.52a2.6,2.6,0,0,0-1,.08,1,1,0,0,0,0,.48c.29.6.6,1.19.91,1.78a1.3,1.3,0,0,1,.19.42c0,.69,0,1.38.09,2.06s.33,1.43.49,2.14a4,4,0,0,1,.13,1c0,.2-.15.52-.3.56-.68.19-1.39.3-2.09.43a11.2,11.2,0,0,1-4.88-.07s-.31-.07-.35-.2A3.7,3.7,0,0,1,73.66,19a20.43,20.43,0,0,1,.66-2.28c.08-.25.09-.64.25-.71,1-.4,1.07-1.36,1.44-2.13a12.9,12.9,0,0,0,.57-1.38,3.56,3.56,0,0,0,.17-.8c0-.06-.13-.37-.09-.51s.07-.34.11-.51c-.17.09-.34.17-.49.27s-.41.35-.63.51c-.73.54-1.5,1.05-2.2,1.63a3.4,3.4,0,0,0-.8,1,28.28,28.28,0,0,0-2.13,4,4.75,4.75,0,0,0,.17,2.62c.45,1.66,1.86,2.57,3.3,3.4a1.1,1.1,0,0,1,.18.16,8.27,8.27,0,0,1-1,1c-.41.31-1,.46-1.33.79-.75.68-1.45,1.41-2.14,2.15q-1.5,1.62-3,3.29c-.21.25-.26.62-.47.88a18.4,18.4,0,0,0-1.56,1.87,13,13,0,0,0-1.09,2.6,1.93,1.93,0,0,0,0,1.34c.21.41.63.66.34,1.22s-.35,1.15.16,1.46a4.68,4.68,0,0,0,1.63.3l1,.2c.14,0,.34.09.41,0a10,10,0,0,0,1.38-1.3c.75-1,1.44-2,2.14-3,.26-.38.47-.79.71-1.18a16.5,16.5,0,0,1,1.07-1.76c1-1.27,2-2.49,3-3.74.64-.8,1.25-1.62,1.87-2.42.12-.16.22-.38.39-.45a2.2,2.2,0,0,0,1.34-1.7c.09-.38.15-.93.41-1.06a8.38,8.38,0,0,1,1.84-.44l.14,0c0-.05-.07-.09-.09-.13a.64.64,0,0,1-.06-.18s.08,0,.12-.07c.12.23.25.47.36.7,0,0,0,.13,0,.19a2.35,2.35,0,0,0-.25.82c0,.77.17,1.54.25,2.32a1.83,1.83,0,0,0,0,.47c.25.63.57,1.24.79,1.88.12.37,0,.79.14,1.16s.36,1,.5,1.54.63.63,1.1.54a3.67,3.67,0,0,0,.87-.37c.34-.16.69-.32,1-.5s.63-.29.63-.44a31.71,31.71,0,0,0,0-4.25,37.82,37.82,0,0,0-.78-4.2,2.23,2.23,0,0,1,.75-2,2,2,0,0,1,1.11-.41c.94-.16,1.91-.24,2.85-.4C91.23,20.91,91.7,20.68,91.63,20Z"/><path class="cls-1" d="M65,17.85c.06-.46.17-.92.28-1.46,0-.36.07-.81.1-1.26.1-1.22.06-2.49-1.19-3.17a10.75,10.75,0,0,0-3.26-1.11,10.57,10.57,0,0,0-3.12.11,4.87,4.87,0,0,0-3.69,3,6,6,0,0,0-.24,3.23,5.92,5.92,0,0,0,1.72,3.64,6.61,6.61,0,0,0,3,2.23c.54.15,1,.65,1.64.2s1.31-.93,1.92-1.45S63.41,20.58,64,20c.1-.11,0-.34.15-.46s.59-.44.74-.74S64.91,18.16,65,17.85Zm-4.33-.11c0,.13-.44.11-.65.22-.74.4-1.44.87-2.21,1.2-.23.1-.71-.11-1-.31a4.34,4.34,0,0,1-1.18-2.39c-.49-1.62,1.19-2.55,2.74-2.22.17,0,.35,0,.73.08a6.18,6.18,0,0,1,1.38.52c.23.15.25.64.33,1a2,2,0,0,1,0,.65A5.35,5.35,0,0,1,60.62,17.74Z"/><path class="cls-1" d="M90.37,4.34a.69.69,0,0,0-.4,0s0,.21,0,.31a.7.7,0,0,1-.16.19l-.12,0c0-.06.07-.14.06-.2s-.08-.38-.16-.39a3.91,3.91,0,0,0-1.07-.12,21.36,21.36,0,0,0-2.41.21c-1.2.19-2.38.44-3.57.69-.18,0-.52.14-.11.39a.34.34,0,0,1,.08.09.56.56,0,0,1-.12,0,12.89,12.89,0,0,0-1.63-.08,26.89,26.89,0,0,0-2.84.37c-1,.19-1.9.46-2.83.72s-1.9.51-2.8.86-2,.87-3,1.32l0,0a.24.24,0,0,0,0,.38l.1.1h0a.23.23,0,0,1,0,.37h0c-.09.07-.21.15-.23.24s.09.21.18.24l2.79,1a.32.32,0,0,0,.14,0c.48-.11,1.1-.27,1.73-.36,1.33-.19,2.68-.33,4-.5a29.3,29.3,0,0,0,3-.44,7.25,7.25,0,0,0,1.6-.6c.26-.13.9-.38.92-.38a5.76,5.76,0,0,0,1.3-.53l1.2-.13a4.5,4.5,0,0,0,1,0c.51-.07,1-.26,1.52-.32.89-.09,1.93.21,2.29-1,.09-.32.54-.53.66-.85C91.54,5.33,91.14,4.71,90.37,4.34Z"/><path class="cls-1" d="M105.35,44.71a7.76,7.76,0,0,1,2-.92,13,13,0,0,1,3.06,0,16.27,16.27,0,0,1,4.62.64,9.18,9.18,0,0,0,4.3.31,7.68,7.68,0,0,1,1.55.36c1.12.18,2.24.37,3.38.45,1.51.11,3,0,4.56.2a6,6,0,0,1,4.63,5c0,.74.46,1.46.51,2.2a18.25,18.25,0,0,1-.17,2.95c-.22,2-.54,4-.71,6.05-.11,1.4,0,2.81,0,4.22a.25.25,0,0,0,.06.17c1,1.19-.06,2.07-.42,3.12a12.17,12.17,0,0,0-.36,3.32,15.17,15.17,0,0,1-4.09,9.52,11.43,11.43,0,0,1-2.78,1.79c-.9.51-2,1.43-2.75,1.28A19.56,19.56,0,0,1,118,83.46a5.9,5.9,0,0,1-2-1.53c-.17-.22.43-1,.67-1.48s.19-1,.47-1.08a6.26,6.26,0,0,1,2.53-.72,10,10,0,0,1,3.61.6c2.06.83,2.65-.64,3.35-1.74a11.76,11.76,0,0,0,.87-2.67,15.53,15.53,0,0,0,1-3c.15-1.69,0-3.41,0-5.12,0-2.4,0-4.79.06-7.19s.31-4.56.36-6.84a8.83,8.83,0,0,0-.41-3.07c-.11-.34-1-.57-1.62-.61-2-.12-4-.06-6-.23-1.8-.15-3.56-.61-5.36-.74a4.73,4.73,0,0,0-2,.69,8.62,8.62,0,0,1-6.33.46c-.28-.09-.34-.79-.62-.89-.73-.24-1.55-.24-2.29-.44a4.09,4.09,0,0,1-1.69-.81,1.23,1.23,0,0,1,.11-1.25,19.08,19.08,0,0,1,2.49-1.33Z"/><path class="cls-1" d="M109.38,63.3c1.45.16,2.54.29,3.62.38.85.08,1.71,0,2.54.18,1.54.28,3.67,2.71,3.3,3.82a26.69,26.69,0,0,1-1.39,2.78,7.23,7.23,0,0,0-.72,2c-.12.91-1.38,1.65-2.51,1.8a28.78,28.78,0,0,0-3.63,1.15,2.91,2.91,0,0,1-1.72.06A19.53,19.53,0,0,1,105,73.39a3.41,3.41,0,0,1-1.13-2.16,6.12,6.12,0,0,1,.31-2.78,5.71,5.71,0,0,1,1.45-2.31A46.15,46.15,0,0,1,109.38,63.3Zm1.8,6c.69-.56,1.31-1,1.84-1.52a2.42,2.42,0,0,0,.41-.92c0-.1,0-.26,0-.32s-.28-.16-.36-.12a11.58,11.58,0,0,0-1.91,1,2.1,2.1,0,0,0-.61,1.11C110.49,68.71,110.85,68.94,111.18,69.32Z"/><path class="cls-1" d="M116.25,60.52c-1.68,0-3.6.59-5,0-1.21-.52-2,.35-2.89,0-1.3-.45-2.94-.35-3.38-2.1-.15-.59-.77-1.12-.81-1.69,0-.4.49-1,.93-1.21,1.19-.6,1.94-2,3.63-1.74.87.13,1.78,0,2.66.15.26,0,.49.47.73.46.69,0,1.38-.22,2.08-.25a2.47,2.47,0,0,1,1.07.3c1,.48,1.92,1,2.84,1.51a1.35,1.35,0,0,1,.65.75,4,4,0,0,1,.11,2.1c-.21.52-1,.89-1.54,1.24a3.61,3.61,0,0,1-1.11.27Z"/><path class="cls-1" d="M168.15,41.59a10.87,10.87,0,0,0,.56,2.71,2.76,2.76,0,0,0,2.55,1.26,8.12,8.12,0,0,1,3,.73A54.31,54.31,0,0,1,179.19,49a4.59,4.59,0,0,1,.95,1.05c-.48,0-1,0-1.43,0-2,.19-4,.35-5.91.62-1.22.17-2.41.71-3.62.76-2.43.09-4.88-.22-7.29,0s-4.8.86-7.2,1.26c-.71.11-1.49-.09-2.18.07a2.06,2.06,0,0,0-1.32.9c-1.43,3.25-2.75,6.55-4.13,9.83-.78,1.86-1.53,3.74-2.45,5.54-.31.59-1.12.94-1.67,1.43a1.56,1.56,0,0,0-.35.69c-.18.65-.3,1.32-.52,2a1,1,0,0,1-.56.39,10.5,10.5,0,0,1-1-1c-.11-.11-.24-.34-.31-.32-1.69.47-1-.86-1-1.32a34.68,34.68,0,0,1,1.13-5.24c.55-1.74,1.47-3.37,2-5.09a14.26,14.26,0,0,0,.33-2.87,7.24,7.24,0,0,1,4-5.57c1.27-.72-.1-.94-.27-1a1.19,1.19,0,0,1-.53-2,3.36,3.36,0,0,1,1.94-.85c1.23-.18,2.5-.18,3.74-.25s2.53,0,3.76-.21c2.77-.44,5.52-1,8.27-1.54a2.35,2.35,0,0,0-.07-.59c-.15-.68-.29-1.35-.49-2s-.48-1.23-.66-1.85c-.12-.46-.34-1.07-.14-1.4.53-.84,1.2-1.68,2.52-1.32a13.64,13.64,0,0,1,2.78.71c.5.26.69,1.06,1,1.61Z"/><path class="cls-1" d="M158,64.6c-1.31-.07-2.61-.11-3.92-.2a1.84,1.84,0,0,1-.65-.31,3.75,3.75,0,0,0-.36-.24l-1.64-.58a.34.34,0,0,1,0-.33c.26-.4.54-.8.84-1.18.11-.14.42-.19.46-.33.34-1.19,1.12-1.11,2.17-.86s2.08.12,3.11.26c.74.09,1.46.39,2.2.52a6.79,6.79,0,0,0,1.62.1c.14,0,.39-.45.34-.53a1.15,1.15,0,0,0-.67-.44c-1.65-.18-3.32-.26-5-.5-.3,0-.68-.67-.69-1s.38-.81.59-1.22c.61-1.21,1.43-.79,2.52-.56.86.18,1.92-.5,2.89-.8a4.14,4.14,0,0,1,.43-.2c1-.18,1.45-.57,1.06-1.61-.09-.23.29-.79.59-.94a3.31,3.31,0,0,1,1.42-.17.58.58,0,0,1,.42.36c.18.65.18,1.82.45,1.87a5.88,5.88,0,0,0,3-.11,4.38,4.38,0,0,1,4.63.81c.3.29,1,.18,1.37.44s.87.84.83,1.24a29.48,29.48,0,0,1-.65,3.32c0,.08.21.28.29.27.93-.15,1.84-.42,2.76-.48a8.87,8.87,0,0,1,2,.29c-.43.47-.76,1.12-1.3,1.37a25.61,25.61,0,0,1-3.21,1c-.11,0-.29.17-.28.24.17,1.46-.65,1.88-2,1.76-.13,0-.28,0-.16,0a6.93,6.93,0,0,1-.51.85c-.83,1-1.5,2.06-3.15,1.91a2.33,2.33,0,0,0-2.67,2.69c.11,2.06.14,4.11.1,6.17,0,1.3-1.16,1.94-2.36,2s-1.83,0-2.09-1a15,15,0,0,1-.3-2.51,17.28,17.28,0,0,1-.08-2.69c0-.41.49-.77.66-1.19.43-1-.5-2.27-1.27-3-1.11-1-2.35-.6-3.52-.86-.72-.17-1.27-1-1.9-1.45a4.23,4.23,0,0,1-.4-.34c-.25-.27-.49-.56-.73-.84a4.32,4.32,0,0,1,1.14-.77,6.59,6.59,0,0,1,1.61-.08Zm8.77.43c.52.26.77.49,1,.5.94,0,1.89,0,2.84,0h.46c-.14-.16-.26-.42-.43-.45a28,28,0,0,0-2.87-.44C167.55,64.59,167.27,64.82,166.76,65Zm-4.68,1.14c.16-.36.4-.63.33-.79s-.43-.73-.65-.72a9.69,9.69,0,0,0-1.89.36Zm8-4.78c-.32-.47-.42-.76-.55-.77-.79-.1-1.6-.13-2.4-.16-.07,0-.15.23-.22.35.6.19,1.19.42,1.81.57A7.31,7.31,0,0,0,170,61.39Z"/><path class="cls-1" d="M172.59,83.25a4.29,4.29,0,0,1-.52-1.56,4,4,0,0,1,.79-1.5c.1-.16.45-.24.46-.37.08-1.28.86-.77,1.52-.55a27.9,27.9,0,0,1,3.52,1.3A36.76,36.76,0,0,1,182.23,83c.11.07,0,.68-.14.79-.9.58-1.12,2-2.9,1.54-1-.29-2.32.38-3.51.46-.68,0-1.56,1.07-2.1-.32a10.12,10.12,0,0,0-1.39-2Z"/><path class="cls-1" d="M177.78,74.17c0,.26.14.58,0,.78s-.49.08-.75.11l-3.38.38c-.22,0-.56,0-.65-.08a2.76,2.76,0,0,1-.64-1.12c-.1-.53.11-1.12,0-1.63-.43-1.71,1.12-1.45,1.87-1.46a20.13,20.13,0,0,1,4.76.58c.5.12.79,1,1.19,1.54l-2.33.93C177.82,74.22,177.74,74.16,177.78,74.17Z"/><path class="cls-1" d="M157,83a15.12,15.12,0,0,1-2.67-.16,3.73,3.73,0,0,1-1.74-1c-.19-.21.14-.89.33-1.32a14,14,0,0,1,.89-1.61.69.69,0,0,1,.44-.31c1-.06,2-.09,3-.09a.82.82,0,0,1,.52.35c.73.9,1.43,1.81,2.14,2.72-.7.42-1.39.88-2.12,1.26A2.71,2.71,0,0,1,157,83Z"/><path class="cls-1" d="M154.37,70.6c.43.57.84,1.16,1.31,1.7.24.29.83.48.85.74a2.42,2.42,0,0,1-.36,1.59c-.27.36-1,.39-1.39.7-.67.51-1.23,1.14-1.86,1.69-.09.08-.34,0-.51,0s-.16-.18-.21-.16c-1.37.35-1.37-.85-1.43-1.42s.56-1.13,1-1.59,1.22-.47,1-1.46c-.11-.48.58-1.12.9-1.69Z"/><path class="cls-1" d="M117.32,21.33a3.65,3.65,0,0,1-1.51,0c-1-.23-2-.44-3-.71a20.29,20.29,0,0,1-3.39-1.26c-.21-.1-.4-.25-.62-.33-.57-.23-1.14-.45-1.72-.64s-.94-.28-1.41-.41a1,1,0,0,0-.35,0c-.42,0-.83,0-1.24.1s-.7.15-1,.22l-.11,0c-.42.29-.85.58-1.26.89-.17.12-.31.29-.47.42-.48.39-.94.8-1.45,1.15a4.69,4.69,0,0,1-.88.39,9.4,9.4,0,0,1-.92.39,6.88,6.88,0,0,1-.79.15.8.8,0,0,0-.21.05.54.54,0,0,1-.78-.57,2.29,2.29,0,0,1,.23-.63c0-.11.12-.22.18-.33.44-.81.89-1.62,1.3-2.45A8.19,8.19,0,0,1,99.21,16a5.64,5.64,0,0,1,.92-.76,14.56,14.56,0,0,1,1.43-.93,14.24,14.24,0,0,1,1.54-.7,10.28,10.28,0,0,1,3.39-.73,11.3,11.3,0,0,1,3.31.5,7.46,7.46,0,0,1,2.4,1.22c.48.34.91.74,1.41,1a9.34,9.34,0,0,0,1.46.7,5.28,5.28,0,0,0,3,.15,3.9,3.9,0,0,0,1.68-.79.58.58,0,0,0,.2-.27,1.47,1.47,0,0,1,.6-.79c.26-.21.48-.48.75-.69a2.94,2.94,0,0,1,.59-.29c.3-.13.61-.24.9-.39a2,2,0,0,1,1.3-.34.83.83,0,0,0,.35,0,.38.38,0,0,1,.47.19,2,2,0,0,1,.4,1.07c0,.18-.06.36-.06.55a.42.42,0,0,0,.26.39.52.52,0,0,1,.23.35.53.53,0,0,0,.37.48c.18.07.19.18.17.34a1.81,1.81,0,0,1-.74,1.19c-.37.35-.7.75-1,1.14a4.47,4.47,0,0,1-1.28,1.09c-.2.11-.34.31-.54.42a5.8,5.8,0,0,1-1,.51c-.53.17-1.08.26-1.61.44a6.26,6.26,0,0,1-1.66.27l-.2,0C117.89,21.41,117.47,21.19,117.32,21.33Z"/><path class="cls-1" d="M49.62,71.15c.13.21.2.51.39.61a1.55,1.55,0,0,1,.74,1.55c0,.25.21.5.3.77.18.55.34,1.1.5,1.66.09.31.17.63.26,1,.21.78.41,1.57.65,2.34,0,.15.24.28.4.35.58.24,1.16.46,1.75.66.34.11.71.14,1.06.22,1.33.27,2.66.62,4,.79s2.68.12,4,.22c.79.06,1.58.2,2.37.3a.2.2,0,0,0,.17,0c.57-.81,1.28-.14,1.92-.17a1.91,1.91,0,0,1,.44.05l-.27-.24,1.74.26a3.89,3.89,0,0,0,2.49-.18,9.86,9.86,0,0,1,2.15-.37c.6-.12,1.17-.37,1.78-.49a2.53,2.53,0,0,1,.88.14c.24.06.46.14.81.24-.31-.75-.15-1.16.4-1.49.18-.1.19-.46.3-.69s.18-.34.32-.4c.85-.4,1.71-.78,2.57-1.15s1.54-.63,2.29-1c.21-.11.5-.19.44-.68a5.88,5.88,0,0,1,.36-1.8.44.44,0,0,0,0-.37c-.26.3-.5.6-.78.87-.12.12-.32.16-.43.28a.63.63,0,0,0-.21.41c0,.83-.64,1.08-1.25,1.34a4.15,4.15,0,0,1-1,.34,1.76,1.76,0,0,1-.91-.07,2,2,0,0,1-1.48-1.48s-.19-.08-.28-.07c-.77.11-1.52.29-2.29.34a2.21,2.21,0,0,1-1.42-.26,1.24,1.24,0,0,1-.19-1.47c.15-.4-.13-1-.24-1.46a5.16,5.16,0,0,0-.19-.6,6.21,6.21,0,0,0-1.21.47,10.51,10.51,0,0,0-1,1,.62.62,0,0,1-.35.12,1.35,1.35,0,0,0-.63,0l.4.09v.07l-1.7.11V73H70c-.05-.2-.19-.43-.15-.62a5.2,5.2,0,0,1,.4-1c.08.05,0,0,0,0,.17-.52.56-1.07.46-1.51-.15-.69.26-1,.57-1.43a2.46,2.46,0,0,1,2.36-1.15c.53,0,1.1-.49,1.66-.5a13.18,13.18,0,0,1,2.79.31c.23,0,.35.52.56.76a1.14,1.14,0,0,0,1.87,0c.24-.24.77-.24,1.17-.28a1.74,1.74,0,0,1,.64.17A3.72,3.72,0,0,0,83,68a.88.88,0,0,0,.56,0,2,2,0,0,1,2.07.32c.59-.78.59-.78,1.21-.46a6.38,6.38,0,0,1,.24-.91,4.71,4.71,0,0,1,.59-1.11c.38-.49.13-.78-.13-1.2a16.79,16.79,0,0,1-.69-1.7c0-.12-.33-.19-.5-.2-.41,0-.82,0-1.23,0s-.8,0-.92.17c-.42.62-1,.31-1.56.48-.16,0-.33,0-.48.1-1,.4-1.81.35-2.22-.83,0-.09-.32-.09-.7-.18L79,61.8s-.13.1-.29.2c-.72.5-1.43,1-2.17,1.47a4.89,4.89,0,0,1-1,.29.67.67,0,0,1-.93-.26,11.33,11.33,0,0,0-1-1c-.1-.12,0-.38,0-.52s-.24-.4-.34-.6c-.29-.56-.87-.42-1.28-.42a3.51,3.51,0,0,1-3-2.51c0-.08,0-.17,0-.26s.06-.43,0-.57c-.41-.63-.9-1.21-1.28-1.86-.07-.13.18-.63.36-.69a4.79,4.79,0,0,1,1.51-.15,6.47,6.47,0,0,1,1.74.34c.4.14.71.56,1.11.73.69.28.42.84.51,1.32,0,.18.4.35.64.42a3.3,3.3,0,0,0,.89,0,2.15,2.15,0,0,0,.81-.11,2.08,2.08,0,0,1,2.21.08,2.91,2.91,0,0,0,.85.19l-.56.27A8.85,8.85,0,0,1,79.09,58c.21,0,.42.25.62.38l.76.54.08.07c.83-.42,1.06.86,1.86.65.28-.07.64.18,1,.25a.34.34,0,0,0,.25-.06.4.4,0,0,0-.06-.31,1.77,1.77,0,0,1-.39-2.24.33.33,0,0,1,.18-.11l2.24-.56-.14-.28a.92.92,0,0,0,.35-.14,2.72,2.72,0,0,0,.33-.53c.08.14.12.23.17.32l.11-.11c.1.07.2.21.29.2.83,0,1,.79,1.6,1.12a2.28,2.28,0,0,1,1.08,2.68c0,.12-.23.19-.25.21l.43,1c.7-.13.8.54,1.05,1,.39.75,1,1.45.76,2.37-.08.39-.32.75-.42,1.14s-.07.81-.15,1.21c0,.16-.19.29-.29.43l-.32.44.52.26-.41.34c.26.43.3.84-.32,1.09-.07,0,0,.29,0,.44-.07.61-.12,1.23-.19,1.84-.1,1-.17,2-1.27,2.49-.18.09-.26.38-.44.66l-.17,0-.26,0c0,.1,0,.21,0,.28a5,5,0,0,1,.62,1.18,2.71,2.71,0,0,1-.16,1.21,3.09,3.09,0,0,1-.48,1c-.12.18-.38.26-.58.38a4.56,4.56,0,0,1-2.4.8c-.17,0-.34.17-.51.26l.18.17a10.44,10.44,0,0,1-.71.77,11.58,11.58,0,0,0-1.31,1.08c-.27.31-.94.59-1.29.35-.17-.11-.37-.16-.49,0-.31.19-.62.53-.94.55A7.27,7.27,0,0,1,78,82.4a6,6,0,0,1-1.17.74,8.42,8.42,0,0,1-1.53.19c-.4.07-.78.21-1.18.31a30.16,30.16,0,0,1-3.21.7A4.21,4.21,0,0,1,69.12,84c-.17,0-.34,0-.51,0-.68,0-1.36-.06-2-.11-.2,0-.39-.2-.59-.2-.56,0-1.12,0-1.68,0a3.42,3.42,0,0,1-.44,0q-2.33-.15-4.65-.33a2.1,2.1,0,0,1-.45-.19,5.78,5.78,0,0,0-1.21-.31c-1.1-.08-2.2-.09-3.31-.14a9.85,9.85,0,0,1-4.52-1.39,3,3,0,0,1-1.57-2c-.07-.35-.39-.64-.51-1-.24-.69-.41-1.41-.61-2.11,0,0,0-.12,0-.14.94-.59-.08-.9-.2-1.33a3.38,3.38,0,0,0-.22-.52c-.14-.3-.31-.59-.43-.89a3.82,3.82,0,0,1-.13-.7c-.74.08-1-.67-1.09-1.29s.12-1.35,0-2,.2-1.09-.33-1.52c-.12-.11-.06-.43-.09-.65l.56,0c-.28-.4-.58-.78-.82-1.19a5.1,5.1,0,0,1-.46-1.11,9.21,9.21,0,0,1-.39-1.63c-.06-.52,0-1.06,0-1.58,0-.34-.2-.71.34-.86.12,0,.11-.44.21-.65.31-.62.66-1.22,1-1.85a23.46,23.46,0,0,1,1-2.27c.23-.37.75-.55,1.12-.83s.79-.62,1.19-.92c.14-.1.33-.14.44-.26a9.35,9.35,0,0,1,1.07-1.19,2.93,2.93,0,0,1,1.4-.64,8.56,8.56,0,0,1,1.63.24,2.55,2.55,0,0,0,.95-.1,18.23,18.23,0,0,0,1.86-.71c.18-.08.3-.32.44-.49s.18-.29.31-.35c.91-.42,1.81-.87,2.75-1.21a20.9,20.9,0,0,1,2.14-.53,5.73,5.73,0,0,1,1.42-.37,17.54,17.54,0,0,1,3,.33,3.24,3.24,0,0,1,1.69.75,2.1,2.1,0,0,0,1.27.64,11,11,0,0,0,1.16,0,3.72,3.72,0,0,1,2.42.52c.12.1.51-.13.77-.19a6.92,6.92,0,0,1,1.48-.29,6.5,6.5,0,0,1,1.34.27,1.87,1.87,0,0,0,.53,0,4.41,4.41,0,0,1,.7-.11A2.19,2.19,0,0,1,78,51c.46.31.83.77,1.3,1.07s.64.54,1.17.34c.71-.28,1.3.14,1.93.46s.63.7.74,1.25.58.8.86,1.21a1,1,0,0,1,.18.56c0,.32-.09.76-.31.92a4.65,4.65,0,0,1-1.28.48c-.09,0-.22,0-.28,0-.67.52-1.15.11-1.62-.32s-.66-.59-1-.9c-.06-.06,0-.21,0-.31s0-.34-.08-.51c-.12,0-.29,0-.37.07a2.29,2.29,0,0,1-2.53.16,15.76,15.76,0,0,1-1.59-.8.71.71,0,0,1-.34-.45c0-.53-.11-.72-.64-.45a1.78,1.78,0,0,1-.52,0l-.2.19-.15-.23c-.34-.12-.61-.23-.89-.32-.61-.19-1.21-.38-1.82-.55A6.34,6.34,0,0,0,69,52.54c-1.14,0-2.29.08-3.44.08-.62,0-1.24-.19-1.86-.15a22.2,22.2,0,0,0-2.26.38,2,2,0,0,0-.24,0,7.19,7.19,0,0,0-1.56.31c-.41.17-.7.6-1.1.81a3.55,3.55,0,0,1-1,.18,2,2,0,0,0-.41.15c-.29.12-.57.27-.87.37a7.13,7.13,0,0,0-1.26.4c-.78.45-1.46,1-2.48.59-.31-.12-.78.23-1.19.28a1.16,1.16,0,0,1-.78-.15c-.46-.35-.86-.79-1.32-1.14-.11-.08-.37,0-.47,0,.12.51.24,1,.33,1.43,0,.27,0,.56.06.82,0,.07.22.15.32.13.33-.07.65-.2,1-.28a1.34,1.34,0,0,1,.44,0c0,.2,0,.47-.17.59-.43.44-.92.82-1.38,1.22-.06,0-.17.1-.18.17a5.13,5.13,0,0,1-.26,1.26,10.19,10.19,0,0,1-1,1.39,2.11,2.11,0,0,1-.53,2c-.54.38-.17.75-.08,1.08.2.79.48,1.56.75,2.34a.56.56,0,0,0,.31.25c.43.16.87.32,1.31.45s1,.25,1.45.4c.1,0,.16.17.24.25s.2.2.24.18c1-.46,1.65.21,2.4.6.08,0,.15.12.23.12a3.74,3.74,0,0,1,2.6,1.4c.4.41.43.83-.06,1.13a.3.3,0,0,0-.14.23c0,.13.09.3.19.35.69.38,1.38.75,2.09,1.08a2.65,2.65,0,0,0,.87.22c.56,0,.66.46.66.85A1.35,1.35,0,0,1,59.11,76a14.54,14.54,0,0,1-2.64,0c-.21,0-.46-.39-.56-.65a2.25,2.25,0,0,0-1.61-.75,3.75,3.75,0,0,1-1.11.34.7.7,0,0,1-.58-.35c-.33-.75-.56-1.55-.88-2.3-.12-.27-.24-.59-.78-.51-.34.06-.76-.44-1.14-.69ZM83,72.75l.8-.36a1.82,1.82,0,0,1,1.9.51s0,.1,0,.14c.13.31.27.61.39.92a2.31,2.31,0,0,1,.16.57c0,.08-.11.18-.17.28.09,0,.24,0,.26,0s.17-.3.14-.42a3.8,3.8,0,0,0-1.85-2.75c0-.29,0-.53,0-.88-.66,1.31-1.84.61-2.89.91l.47.39,0,0ZM75.94,60.63a8.48,8.48,0,0,0-.75-1.28c-.16-.2-.5-.26-.76-.38-.07.16-.2.33-.19.49A1.37,1.37,0,0,0,75.94,60.63Z"/><text class="cls-2" transform="translate(135.77 15.42) scale(1 0.98)">HIYA~ SCONE</text><text class="cls-3" transform="translate(135.77 21.91)">The be<tspan class="cls-4" x="12.48" y="0">s</tspan><tspan class="cls-5" x="14.27" y="0">t </tspan><tspan class="cls-6" x="16.82" y="0">g</tspan><tspan class="cls-5" x="18.96" y="0">ood </tspan><tspan class="cls-7" x="27.16" y="0">g</tspan><tspan x="29.3" y="0">ood </tspan><tspan class="cls-8" x="37.5" y="0">e</tspan><tspan class="cls-7" x="39.62" y="0">a</tspan><tspan x="41.78" y="0">t </tspan><tspan x="0" y="4.48">s</tspan><tspan class="cls-9" x="1.86" y="4.48">c</tspan><tspan x="3.82" y="4.48">one in your neighborhood</tspan></text></g></g></svg>