<svg xmlns="http://www.w3.org/2000/svg" viewBox="0 0 234.35 75.09"><defs><style>.cls-1{fill:#d8caba;}</style></defs><title>package-scone image</title><g id="圖層_2" data-name="圖層 2"><g id="圖層_3" data-name="圖層 3"><path class="cls-1" d="M12.12,44.43c.24.43.39,1,.75,1.25a3.07,3.07,0,0,1,1.42,3.13c0,.51.42,1,.58,1.55s.33,1.11.48,1.66c.93,4.57.93,8.57,6.43,10.4a17.52,17.52,0,0,0,2.12.48c2.66.59,5.3,1.35,8,1.73s5.36.36,8,.6c1.59.14,3.16.46,4.75.69a.4.4,0,0,0,.34-.09c1.17-1.61,2.57-.23,3.85-.28a4.48,4.48,0,0,1,.88.11l-.53-.49c1.31.22,2.39.39,3.47.6a7.76,7.76,0,0,0,5-.27c1.28-.59,2.88-.4,4.32-.67,1.21-.22,2.37-.7,3.58-.91a5,5,0,0,1,1.77.32c.46.11.91.28,1.62.5-.61-1.52-.28-2.33.85-3,.35-.2.39-.92.62-1.37a1.76,1.76,0,0,1,.66-.8c.85-.38,1.72-.75,2.58-1.12L75,57.94c4.29-1.35,8.29-2.35,7.61-7.41a.82.82,0,0,0,0-.72c-.53.57-1,1.17-1.59,1.72-2.71,1.06-1.71,5.06-5.78,4.64A3.74,3.74,0,0,1,73.39,56c-1.4-.56-2.64-1.35-2.91-3,0-.08-.38-.17-.57-.15-1.53.2-3.06.53-4.59.6a4.48,4.48,0,0,1-2.84-.56,1.86,1.86,0,0,1-.63-1.29c1.43-2,.43-5-.57-6-3-2-5,3-8,2,1,0,2,0,1,1h-3c-2-7,3-14,10.83-11.27a4.41,4.41,0,0,1,1.68-.52,26.45,26.45,0,0,1,5.59.74c.45.1.67,1.05,1.08,1.54,1.2,1.39,2.52,1.26,3.76,0,.49-.48,1.55-.46,2.35-.53a3.48,3.48,0,0,1,1.27.38,8.92,8.92,0,0,0,1.28.46,1.67,1.67,0,0,0,1.11-.06c1-.62,3.47-.25,4.14.72,1.22-1.55,1.22-1.55,2.46-.88a13.17,13.17,0,0,1,.51-1.82,9.61,9.61,0,0,1,1.22-2.2c.78-1,.29-1.55-.22-2.42a7.35,7.35,0,0,1-.7-1.68c-.36-3.49-3.36-1.49-4.07-2.11-.64,0-1.62-.07-1.86.29-.87,1.24-2.12.59-3.15.91-.31.1-.66.07-1,.18-2,.77-3.63.64-4.41-1.74-.06-.18-.63-.19-1.39-.4l-.59-1.43c.05,0-.26.19-.58.4-1.47,1-2.9,2-4.41,2.86a11.22,11.22,0,0,1-2.07.55A1.34,1.34,0,0,1,62.31,30c-.5-.76-1.36-1.28-2-2-.18-.22,0-.74,0-1-.22-.41-.46-.81-.67-1.23-.55-1.12-1.71-.88-2.53-.88a7,7,0,0,1-6-5.15c0-.16.1-.34.11-.52,0-.38.12-.86-.06-1.15-.8-1.27-1.76-2.45-2.49-3.77-.15-.25.38-1.25.74-1.35a9.1,9.1,0,0,1,3-.26,13.12,13.12,0,0,1,3.46.75c.81.3,1.41,1.14,2.21,1.49,1.37.61.81,1.71,1,2.67.06.36.78.73,1.26.86a6.21,6.21,0,0,0,1.78.08,4.35,4.35,0,0,0,1.63-.18,4.1,4.1,0,0,1,4.41.23A5.77,5.77,0,0,0,69.9,19l-1.13.51a17.8,17.8,0,0,1,2.87-.26c.42,0,.82.51,1.22.79s1,.74,1.5,1.11c.06,0,.14.14.16.13,1.69-.81,2.09,1.77,3.71,1.38.56-.13,1.27.37,1.93.54.12.38.12-.62.39-.74a3.57,3.57,0,0,1-1.15-2.11,8.72,8.72,0,0,1,.61-2A4.74,4.74,0,0,1,80.94,17c4.34-1.41,10.34-4.41,11.34.59a66.12,66.12,0,0,0,3.47,12.52,4.48,4.48,0,0,1,.35,1.2A3.68,3.68,0,0,1,96,32.62c-.19.78-.69,1.48-.89,2.26s-.17,1.63-.34,2.43c-.07.31-.39.56-.6.83l-.66.88,1,.54-.82.66c.49.87.57,1.7-.68,2.18-.14.06-.1.57-.13.87-.15,1.23-.28,2.46-.43,3.69-.19,1.48-.33,3-1.33,4a4,4,0,0,1-1.31.91,32,32,0,0,1-.51,4c-.13.62-.28,1.22-.46,1.79-1.61,1.85-2.61,4.85-4.89,6.89a15.29,15.29,0,0,1-1.63,1,25.31,25.31,0,0,1-6.5,2.2,1.69,1.69,0,0,1-1.36-.09c-.33-.23-.73-.36-1-.14-.63.38-1.25,1-1.9,1.07A13.72,13.72,0,0,1,68.45,68a11.11,11.11,0,0,1-2.36,1.43,17.07,17.07,0,0,1-3.07.34c-.8.12-1.58.39-2.38.56a62.59,62.59,0,0,1-6.46,1.3,8.25,8.25,0,0,1-3.47-.83c-.34,0-.68,0-1,0-1.37-.09-2.74-.16-4.11-.31-.41,0-.79-.4-1.19-.41-1.12,0-2.24,0-3.36,0-.3,0-.59.08-.88.06-3.1-.27-6.21-.55-9.31-.84A3.93,3.93,0,0,1,30,69a12.64,12.64,0,0,0-2.42-.67c-1.64-.15-3.3-.22-4.95-.3-.56,0-1.11,0-1.66-.09-5.65-1.3-11.65-3.3-15.65-8.3-2-4,3-7-.1-10.73a8.67,8.67,0,0,1-.24-1.42c-1.48.15-1.89-1.37-2.12-2.62s.28-2.69.05-4c-.18-1,.43-2.19-.61-3.07-.24-.21-.11-.86-.15-1.31l1.12,0c-.54-.81-1.14-1.58-1.6-2.42a11,11,0,0,1-.89-2.23A18.75,18.75,0,0,1,0,28.48a30.6,30.6,0,0,1,.1-3.17c0-.68-.38-1.41.71-1.7,1.72-3.51,4.33-6,6.92-8.46.52-.49,1-1,1.56-1.41,5-5.15,14-2.15,17.15-9.72l1.38-.63c1.37-.61,2.74-1.22,4.16-1.71a43.49,43.49,0,0,1,4.31-1A11.7,11.7,0,0,1,39.18,0a35.1,35.1,0,0,1,6,.77A6.46,6.46,0,0,1,48.5,2.35,4.13,4.13,0,0,0,51,3.67a22.39,22.39,0,0,0,2.32.13c1.66.13,3.39-.13,4.83,1.12.24.21,1-.23,1.57-.34a13.87,13.87,0,0,1,3-.54,12.83,12.83,0,0,1,2.67.6,4.22,4.22,0,0,0,1.06.09,7.17,7.17,0,0,1,1.42-.18,4.37,4.37,0,0,1,1.91.59c.46.32.87.71,1.31,1.07,4.57,2.08,10.5-.72,11.91,3.91a6.57,6.57,0,0,1,.23,1.11c.08,2.36.08,4.36-2.29,5.73a5.51,5.51,0,0,1-4.63.63c-4-1-3-5-6.74-2.81a5.18,5.18,0,0,1-1.28-.17A8.43,8.43,0,0,1,67,14.13a34.89,34.89,0,0,1-3.14-1.66c-.31-.19-.68-.62-.66-.92,0-1.06-.21-1.44-1.27-.93a2.93,2.93,0,0,1-1,.08l-.41.37c-.13-.22-.27-.43-.28-.45-.69-.27-1.23-.49-1.79-.68-1.2-.41-2.41-.8-3.62-1.18a13.13,13.13,0,0,0-3.1-.89c-2.29-.11-4.6.08-6.9,0-1.24,0-2.49-.42-3.72-.37a41.81,41.81,0,0,0-4.54.68l-.49,0a15.41,15.41,0,0,0-3.14.57c-.82.32-1.42,1.17-2.23,1.58a7.47,7.47,0,0,1-2,.33,3.63,3.63,0,0,0-.84.29c-4.51,3.56-10.51,7.56-16.51,2.56-1,4,2,3,4,4a11.18,11.18,0,0,1-2.61,2.22L11.5,21.16C10,23,8.66,24.87,9,27.16a3.68,3.68,0,0,1-1.1,1.91c-1.12.75-.38,1.49-.22,2.16.38,1.6.91,3.15,1.43,4.71a1.09,1.09,0,0,0,.62.52c.85.35,1.71.67,2.59.95s1.93.54,2.89.85c.19.06.31.35.48.52s.38.39.47.35a3,3,0,0,1,1.37-.28c3.71.74,8.71.74,12.71,2.74,3,2,6,9,2,9s-13,3-15.14-1.55c-.27-.78-.53-1.56-.84-2.32-.23-.55-.45-1.2-1.54-1-.68.09-1.5-.92-2.26-1.43ZM79,48.87l1.63-.7a3.6,3.6,0,0,1,3.77,1.11,1.28,1.28,0,0,1,.07.28c.25.62.52,1.23.75,1.87a21,21,0,0,1,.08,2.16c2-1,1-2,.18-2.92a9.83,9.83,0,0,0-.68-1.55,5.47,5.47,0,0,0-2.42-2.36c0-.56.08-1,.13-1.76-1.37,2.61-3.72,1.16-5.82,1.74l.93.79,0,.07ZM65.24,24.33a17.83,17.83,0,0,0-1.46-2.59c-.32-.41-1-.54-1.51-.79-.14.32-.42.66-.41,1A2.75,2.75,0,0,0,65.24,24.33Z"/><path class="cls-1" d="M126.21,56.42c.07,7.8,4.07,11.8,12,11.7a23.58,23.58,0,0,0,2.38.16c.79,0,1.59,0,2.38.1.95.06,1.88.23,2.82.35a.3.3,0,0,0,.2-.06c.68-1,1.52-.17,2.28-.22a2.76,2.76,0,0,1,.52.06l-.32-.28,2.06.3a4.58,4.58,0,0,0,3-.22,11,11,0,0,1,2.55-.44c.71-.15,1.39-.45,2.1-.59a2.87,2.87,0,0,1,1.06.17c.27.06.54.15,1,.27-.38-.89-.19-1.37.47-1.77.2-.12.22-.55.35-.81s.21-.41.38-.48c1-.48,2-.93,3-1.38s1.83-.75,2.71-1.19c.25-.12.59-.23.53-.81a6.92,6.92,0,0,1,.41-2.14.47.47,0,0,0,0-.43c-.3.35-.59.71-.92,1-.14.14-.38.19-.52.33a.79.79,0,0,0-.24.48c0,1-.75,1.29-1.48,1.6a5.41,5.41,0,0,1-1.12.41,2.19,2.19,0,0,1-1.08-.08,2.37,2.37,0,0,1-1.76-1.76s-.23-.1-.34-.08c-.9.14-1.8.35-2.71.41a2.61,2.61,0,0,1-1.69-.3,1.47,1.47,0,0,1-.22-1.75c.17-.47-.17-1.14-.29-1.72a5,5,0,0,0-.24-.71,6.18,6.18,0,0,0-1.42.56,11.14,11.14,0,0,0-1.23,1.16.6.6,0,0,1-.41.14,1.75,1.75,0,0,0-.75,0l.48.11v.08l-2,.13v-.2h.43c-.07-.24-.23-.5-.18-.73a6.32,6.32,0,0,1,.46-1.14c.1.06,0,0,0,0,.21-.62.66-1.27.55-1.8,1-2.7,3-2.7,4.75-3a16.08,16.08,0,0,1,2.08-.08c2.88.06,5.72.75,8.21.68a10.16,10.16,0,0,0,1.48-.16c2.47,2.84,2.47-1.16,3.47-1.16a2.83,2.83,0,0,0,0-5c-1,0-3,1-4.21,1.28q-.87.24-1.71.42a21.48,21.48,0,0,1-4.85.47,14.28,14.28,0,0,1-1.86-.16c-5.37,0-15.37-6-9.37-10,2-1,6,5,10.87,3.93.7.15,1.41.28,2.11.4,1.4.23,2.77.42,4,.67-2-2,0-3,1.28-3.79l1.3-.33-.17-.33c.14-.06.33-.07.42-.18a3.32,3.32,0,0,0,.39-.63l.2.39.13-.13c.11.08.23.24.34.24,1-.06,1.23.93,1.94,1.3,7.17,5.46,3.17,11.46,1.42,18.84a2.22,2.22,0,0,1-1.19,1.27c-.21.09-.31.45-.52.78l-.21,0c-.1,0-.21,0-.31,0s0,.24,0,.32a6.14,6.14,0,0,1,.75,1.4,3.16,3.16,0,0,1-.19,1.44,3.7,3.7,0,0,1-.57,1.14,2.18,2.18,0,0,1-.68.45,5.46,5.46,0,0,1-2.85,1c-.2,0-.4.2-.6.31l.21.2a12.12,12.12,0,0,1-.83.91A16.58,16.58,0,0,0,165,69c-.31.36-1.11.7-1.52.43-.2-.13-.44-.2-.58-.07-.37.23-.73.63-1.11.66a8.32,8.32,0,0,1-1.89-.34,6.9,6.9,0,0,1-1.38.88,11.75,11.75,0,0,1-1.82.24c-.47.08-.93.25-1.4.36a38.54,38.54,0,0,1-3.8.85,5,5,0,0,1-2.07-.45c-.2,0-.4,0-.6,0-.81,0-1.63-.06-2.43-.13-.25,0-.48-.23-.72-.23-.66,0-1.32,0-2,.07a4.8,4.8,0,0,1-.52,0l-5.52-.38a2.68,2.68,0,0,1-.54-.23c-9.81,1.52-14.81-4.48-16.37-13.94-.16-.75.14-1.6,0-2.36-.12-.59.22-1.29-.4-1.8-.15-.13-.08-.51-.11-.78l.66,0c-.33-.47-.69-.92-1-1.41a6.3,6.3,0,0,1-.56-1.31,11.15,11.15,0,0,1-.46-1.94c-.07-.62,0-1.25,0-1.88,0-.4-.24-.83.4-1,.14,0,.13-.52.25-.76.36-.74.77-1.46,1.11-2.2a27.5,27.5,0,0,1,1.23-2.7c.27-.44.88-.66,1.33-1s.93-.73,1.41-1.09c.16-.12.38-.17.51-.31a12.34,12.34,0,0,1,1.27-1.41,3.51,3.51,0,0,1,1.66-.77,9.37,9.37,0,0,1,1.93.28,2.88,2.88,0,0,0,1.13-.13,21.65,21.65,0,0,0,2.2-.84c.22-.1.36-.38.53-.58s.21-.34.37-.41c1.07-.51,2.14-1,3.25-1.45a8.9,8.9,0,0,1,1.25-.35l1.28-.28a12.74,12.74,0,0,1,6.26-.9,18.54,18.54,0,0,1,2,.31c3,.58,6,2.58,9.65,2.59a16.05,16.05,0,0,0,2,.19c.55.38,1,.92,1.54,1.28.39.25.77.63,1.39.39.85-.33,1.55.17,2.29.54s.75.84.89,1.49.68.94,1,1.43a1.1,1.1,0,0,1,.21.66c-1.84,1.88-3.41,2.07-4.87,1.51a7.36,7.36,0,0,1-1.43-.77c-5.61-2.73-11.61-8.73-19.07-4.85-.62.18-1.26.38-1.9.6a9.29,9.29,0,0,0-1.86.38c-.48.2-.83.71-1.3,1a4.49,4.49,0,0,1-1.18.22,2.51,2.51,0,0,0-.5.18c-.34.14-.67.32-1,.44a7.64,7.64,0,0,0-1.49.48c-.92.54-1.74,1.18-2.95.71-.36-.15-.92.27-1.41.34a1.39,1.39,0,0,1-.92-.19c-.55-.4-1-.92-1.57-1.34-.13-.1-.43,0-.55.06.14.6.28,1.15.38,1.7.06.32,0,.65.08,1,0,.08.26.17.38.15.39-.09.77-.24,1.16-.33a1.6,1.6,0,0,1,.53,0c-.07.24,0,.56-.2.71-.52.51-1.09,1-1.64,1.44-.07.07-.2.12-.21.2a7.12,7.12,0,0,1-.3,1.5A12.56,12.56,0,0,1,124.18,45a2.53,2.53,0,0,1-.62,2.39c-.65.46-.2.89-.1,1.28.24.94.58,1.86.9,2.77a.66.66,0,0,0,.37.3c.51.2,1,.38,1.55.53s1.15.3,1.72.47c.12,0,.19.21.3.3s.22.23.28.21c1.15-.55,1.95.25,2.85.7.09,0,.18.14.27.14a4.46,4.46,0,0,1,3.08,1.66c.48.48.52,1-.06,1.34a.35.35,0,0,0-.17.27c0,.15.11.36.23.42.82.45,1.64.88,2.49,1.28a3.24,3.24,0,0,0,1,.25c.66.05.78.54.79,1a1.87,1.87,0,0,1-.39,1.28,1.71,1.71,0,0,1-1.21.55c-5.21-.91-8.21-1.91-11.06-5.83Zm39.65,1.78.95-.43a2.13,2.13,0,0,1,2.25.61s0,.11.05.16c.15.37.32.72.46,1.09a2.41,2.41,0,0,1,.19.67c0,.11-.12.22-.2.33.11,0,.29.07.31,0s.2-.35.16-.5c-.38-1.34-.85-2.63-2.2-3.26,0-.33,0-.62.06-1-.78,1.56-2.19.73-3.42,1.1l.55.46,0,0ZM158,45.89c-.67-2.67-2.67-2.67-4.67-.67a10.06,10.06,0,0,1,3.11.34A2.65,2.65,0,0,0,158,45.89Z"/><path class="cls-1" d="M227.1,58.1a1.77,1.77,0,0,1-.41.79,2.17,2.17,0,0,0-.79,1.92c0,.61-.19.52-.3,1s-.31,1.38-.39,1.85-.13.71-.19,1.09c-.16.94-.25,1.76-.45,2.7,0,.18-.31.38-.49.47-.65.33-1.65.81-2.25,1a10.24,10.24,0,0,1-1.45.43A46,46,0,0,1,215,70.74c-1.81.28-3.56.27-5.36.4-1.06.08-2.08.25-3.13.39a.32.32,0,0,1-.22-.06c-.81-.83-1.56-.27-2.51-.21-.2,0-.49.08-.56.06s.29-.23.32-.29c-.85.15-1.39.19-2.33.37a6.45,6.45,0,0,1-3.26-.13,12,12,0,0,0-2.88-.37c-.85-.13-1.76-.41-2.41-.48a3,3,0,0,0-1.28.23c-.47.1-.72.24-1.16.36.33-.88.27-1.38-.55-1.85-.26-.14-.29-.6-.41-.82a.89.89,0,0,0-.46-.49c-1.22-.44-2.52-.84-3.73-1.24s-2.2-.64-3.4-1.13c-.35-.14-.69-.23-.65-.87a9,9,0,0,0-.52-2.3c0-.1-.08-.52.06-.45s.8.87,1.07,1.06.46.2.65.34a.78.78,0,0,1,.32.52c0,1.07,1.13,1.43,1.8,1.63a6.25,6.25,0,0,0,1.43.38,2.81,2.81,0,0,0,1.34-.16,3.33,3.33,0,0,0,2.22-2,.76.76,0,0,1,.42-.1c1,.08,2.35.25,3.23.24a3.25,3.25,0,0,0,2-.43c.66-.42.53-1.24.37-1.84a3.23,3.23,0,0,1,.41-1.82c.16-.36.11-.75.33-.78a3.42,3.42,0,0,1,1.57.53A8.31,8.31,0,0,1,199,60.56c.27.22.27.15.47.17s.68,0,.76,0-.44.09-.45.12,0,.09,0,.09c.69,0,1.46.09,2.12.1.07,0,0-.15,0-.2s-.39.11-.41,0,.27-.47.18-.77a4.69,4.69,0,0,0-.46-1.15c-.05-.07,0,.09,0,0a5.84,5.84,0,0,1-.57-2.05,3.24,3.24,0,0,0-.73-2.14c-.88-1.24-1.5-1.86-3.1-1.83-.79,0-1.29-.77-2.32-.78a14.41,14.41,0,0,0-3.86.66c-.29.1-.51.86-.81,1.17a1.67,1.67,0,0,1-2.69.06,2.57,2.57,0,0,0-1.61-.36,2.26,2.26,0,0,0-.94.29c-.33.11-.63.28-.93.35a1.15,1.15,0,0,1-.8,0,2.63,2.63,0,0,0-2.86.57c-.49-.83-.65-1.15-1.51-.65a10,10,0,0,0-.23-1.37,11.29,11.29,0,0,0-.66-1.62c-.29-.63-.12-1.08.3-1.76s.66-1.72,1.07-2.52a.82.82,0,0,1,.67-.31c.32,0,1.19-.05,1.54-.06s1.07-.06,1.21.16c.5.77,1.53.49,2,.58s.46,0,.71.1c1.67.45,2.4,0,3.1-1.61.05-.12.76-.27.93-.39s.28-1,.44-1.07.19.11.4.23c1,.59,1.91,1.37,2.95,2a5.35,5.35,0,0,0,1.39.33.94.94,0,0,0,1.21-.61c.28-.58.95-1.33,1.22-1.82s-.06-.5.06-.95.23-.56.44-1.18.93-.78,1.58-.86a4.81,4.81,0,0,0,3.81-3.74c0-.12-.06-.21-.06-.36s-.06-.48.05-.63a22.47,22.47,0,0,0,1.58-2,.72.72,0,0,0-.5-.79,7.26,7.26,0,0,0-1.86-.29,10,10,0,0,0-2.15.23c-.66.17-.85.53-1.44.92s-.53,1.15-.63,1.69-.5.49-.82.67a3.1,3.1,0,0,1-1.14.19,2.66,2.66,0,0,1-1,0,3,3,0,0,0-2.9.61,4.23,4.23,0,0,1-1.11.45l.73.27a9.32,9.32,0,0,0-1.85.08c-.46.12-.56.44-.85.67s-.82.76-1,.9-.12.15-.14.14c-1.15-.1-1.42,1.22-2.52,1.27a4.4,4.4,0,0,0-1.24.49c-.25.11-.28,0-.36-.06s0-.33.09-.42a3,3,0,0,0,.6-3.21c0-.08-.14-.11-.21-.12-.92-.15-2-.21-2.85-.44-.18,0,.26-.3.14-.37s-.3-.06-.43-.18-.29-.59-.38-.64-.16.37-.23.4S180,37,180,37s-.26.27-.37.29c-1,.15-1.39,1.08-2.12,1.67a3.9,3.9,0,0,0-1.54,3.8c0,.18.28.07.26.31s-.46,1-.55,1.3c-1,.15-1,.66-1.44,1.59s-1.21,2.11-1.06,3.34c.06.52.34,1.12.4,1.63s0,1.32.06,1.73.23.4.31.64.34.45.32.64-.53.2-.57.38.47.25.39.5c-.21.63-.43,1.13.31,1.62.08,0,0,.39,0,.62a24.94,24.94,0,0,0,.1,2.64c.09,1.12.29,2.57,1.44,3.31a2.3,2.3,0,0,1,.46.87c0,.15.13-.06.22,0s.25-.1.28,0,.11.1,0,.39a6.37,6.37,0,0,0-.68,1.43,4.34,4.34,0,0,0,.18,1.6,2.9,2.9,0,0,0,.62,1.24,2.15,2.15,0,0,0,.82.47,8.08,8.08,0,0,0,3.33,1,1.39,1.39,0,0,1,.7.29c.15.12-.35,0-.14.25a7.87,7.87,0,0,0,1,.9,19.92,19.92,0,0,1,1.85,1.24,1.86,1.86,0,0,0,1.74.38c.45-.17.32-.28.75-.11s.7.56,1.34.6,1.42-.45,2.18-.41c.4,0,1,.68,1.6.78s1.46.09,2,.13a13.1,13.1,0,0,1,1.61.32c1.46.26,2.83.61,4.32.73a6.81,6.81,0,0,0,2.32-.5,3.7,3.7,0,0,1,.67,0c.93-.08,1.77-.1,2.74-.19.29,0,.35-.23.83-.24s1.55,0,2.17.05c.17,0,.39,0,.59,0,2.11-.15,4.16-.31,6.32-.57.18,0,.28-.15.64-.27a10.7,10.7,0,0,1,1.62-.48c1.43-.21,3.08-.34,4.54-.58A13.8,13.8,0,0,0,228.38,70a4,4,0,0,0,1.76-2.69c.09-.44.32-.65.45-1.22s.26-1.68.38-2.37c0,0,0-.15,0-.16-1-.44-.18-1,0-1.44s.11-.36.25-.7.31-.73.41-1.06a4.2,4.2,0,0,0,.1-.86c.88-.11,1.11-.82,1.2-1.64s-.18-1.65-.11-2.42c5.09-10.84-2.83-22.21-13.6-24a2.69,2.69,0,0,1-.56-.66,1.64,1.64,0,0,0-.4-.48c-1-.6-2.43-1.37-3.38-1.81a26,26,0,0,0-2.67-.89,9.16,9.16,0,0,0-1.81-.61,22.42,22.42,0,0,0-3.69,0,3.81,3.81,0,0,0-2.16.73,3,3,0,0,1-1.61.66,12,12,0,0,1-1.48,0,5.19,5.19,0,0,0-3.09.47c-.18.11-.61-.07-1-.14a9.38,9.38,0,0,0-1.83-.18,10.44,10.44,0,0,0-1.67.42,2.64,2.64,0,0,1-.73.11c-.33,0-.51-.14-.91-.05a3,3,0,0,0-1.25.5c-.46.34-1.11,1.1-1.66,1.47s-.76.72-1.55.58a3.86,3.86,0,0,0-2.45.88,2.57,2.57,0,0,0-1,1.72c-.17.69-.85,1.26-1.11,1.7s-.29.45-.3.84a1.56,1.56,0,0,0,.36,1.2,5.35,5.35,0,0,0,1.56.46c.28.08.33,0,.42,0,.91.65,1.63-.21,2.13-.72s1-1,1.29-1.32,0-.25.11-.46,0-.55.12-.66a.48.48,0,0,1,.49,0,3.52,3.52,0,0,0,3.24-.25,15.37,15.37,0,0,0,2.08-1.29.73.73,0,0,0,.44-.65c0-.43.18-.91.83-.61.16.07.5,0,.65,0s.15.2.27.18,0-.21.2-.28a8.25,8.25,0,0,1,1.18-.55,21.69,21.69,0,0,1,2.24-.53,8.52,8.52,0,0,1,2-.36,42.27,42.27,0,0,1,4.34.45c.8.11,1.51,0,2.36.17s1.92.5,2.81.73l.31.08a10.18,10.18,0,0,1,1.94.6c.55.28.95.88,1.38,1.17a4.28,4.28,0,0,0,1.24.41,2.32,2.32,0,0,1,.57.28c.33.17.65.41,1.1.62,2.07,4.5,9.89-2.07,9.93,4.45l-3.15,0c4.74,3.23,6.37,14.64-.71,15-1.32-.4-2,.38-3,1.13-.1.07-.18.17-.27.18a5.32,5.32,0,0,0-3.23,2,1,1,0,0,0,.1,1.64.51.51,0,0,1,.17.36c0,.14-.09.39-.22.45-.91.4-1.72.76-2.65,1.12a3.33,3.33,0,0,1-1.12.21.87.87,0,0,0-.79,1,1.82,1.82,0,0,0,1.83,1.87,13.48,13.48,0,0,0,3.46-.14c.29,0,.46-.35.68-.75a3,3,0,0,1,2-.92,9.77,9.77,0,0,0,1.47.17.78.78,0,0,0,.72-.48c.42-1,.54-1.79.93-2.84a1,1,0,0,1,.94-.79c.54,0,1-.73,1.36-1C226.94,58,227.12,58,227.1,58.1ZM183.19,61c-.42,0-.57-.28-1.23-.41a2.87,2.87,0,0,0-2.68.85c0,.07,0,0-.1.23s-.47,1-.58,1.23a2.29,2.29,0,0,0-.18.72c0,.2.23.29.22.35s-.25.13-.33,0a.74.74,0,0,1-.2-.51,5.83,5.83,0,0,1,2.76-3.86c0-.42,0-.85,0-1.27,1,1.63,2.51,1,4.12,1.15-.2.15-.53.45-.7.57s.2,0,0,.08S183.6,61,183.19,61ZM193.6,41.75c.25-.58.68-1.72,1-2.16a1.83,1.83,0,0,1,1-.76c.21,0,.29.33.27.58A2.49,2.49,0,0,1,193.6,41.75Z"/><path class="cls-1" d="M126.64,29.62c-3.46,2.31-2.39,5.18.33,7.51l7-3.84C130.78,31.65,128.19,28.85,126.64,29.62Z"/><path class="cls-1" d="M152.28,30.3a1.59,1.59,0,0,0-.58-.33Z"/><path class="cls-1" d="M123.41,64.92a1.22,1.22,0,0,0-.68.53.31.31,0,0,1-.24.06c-1.1-.13-2.2-.33-3.31-.41-.93-.06-1.87-.08-2.81-.11s-1.87-.07-2.79-.19c-9.29.11-14-4.59-14.09-13.77l.27-.13c3.35,4.6,6.88,5.78,13,6.85a2,2,0,0,0,1.42-.64,2.2,2.2,0,0,0,.45-1.51c0-.55-.14-1.13-.92-1.19a3.47,3.47,0,0,1-1.22-.3c-1-.46-2-1-2.93-1.49a.81.81,0,0,1-.26-.5.4.4,0,0,1,.19-.32c.69-.42.65-1,.08-1.57A5.18,5.18,0,0,0,106,48.28c-.1,0-.21-.12-.31-.17-1.06-.53-2-1.47-3.36-.83-.06,0-.23-.14-.33-.24s-.21-.32-.35-.36c-.67-.2-1.35-.34-2-.54s-1.22-.4-1.82-.63a.75.75,0,0,1-.44-.35c-.38-1.08-.77-2.15-1.06-3.26-.12-.46-.65-1,.12-1.51a3,3,0,0,0,.72-2.82,13.09,13.09,0,0,0,1.38-2,7.53,7.53,0,0,0,.36-1.76c0-.09.16-.15.25-.23.64-.56,1.32-1.1,1.92-1.7.18-.18.16-.55.23-.83a2.13,2.13,0,0,0-.61-.05c-.46.11-.91.29-1.37.39-.14,0-.43-.09-.45-.17-.06-.38,0-.77-.09-1.15-.11-.65-.29-1.29-.45-2,.14,0,.5-.19.65-.08.65.49,1.2,1.11,1.85,1.58a1.66,1.66,0,0,0,1.08.22c.57-.08,1.23-.57,1.66-.4,1.42.55,2.38-.2,3.46-.84a10,10,0,0,1,1.76-.55c.41-.15.8-.36,1.21-.53a2.86,2.86,0,0,1,.58-.21,5.19,5.19,0,0,0,1.39-.26c.55-.29,1-.89,1.52-1.13a12.88,12.88,0,0,1,2.19-.45c.76-.25,1.51-.49,2.24-.69,8.78-4.58,15.84,2.48,22.42,5.7.25.16.51.32.76.46l6.54-1.87a1.36,1.36,0,0,0-.13-.24c-.39-.58-1.07-1.07-1.2-1.68-.16-.77-.25-1.35-1-1.75s-1.7-1-2.7-.64c-.73.29-1.17-.17-1.63-.46-.65-.42-1.16-1.06-1.81-1.51a17.56,17.56,0,0,1-2.3-.22c-4.25,0-7.78-2.37-11.36-3a22.56,22.56,0,0,0-2.33-.35,15,15,0,0,0-7.36,1c-.49.13-1,.23-1.5.34a10.43,10.43,0,0,0-1.48.41c-1.31.48-2.56,1.11-3.82,1.7-.19.09-.29.32-.44.49s-.36.57-.62.68a23.82,23.82,0,0,1-2.59,1A3.28,3.28,0,0,1,104,25a11.52,11.52,0,0,0-2.27-.33,4.15,4.15,0,0,0-2,.91,13.87,13.87,0,0,0-1.49,1.65c-.15.17-.42.23-.61.37-.55.42-1.09.87-1.65,1.28s-1.25.65-1.56,1.17A33.76,33.76,0,0,0,93,33.2c-.41.88-.89,1.72-1.31,2.59-.14.29-.13.85-.3.9-.75.22-.47.73-.47,1.2,0,.74-.1,1.48,0,2.21a13.05,13.05,0,0,0,.55,2.28,7.19,7.19,0,0,0,.65,1.54c.33.58.76,1.11,1.15,1.66l-.78.05c0,.31-.05.77.12.91.74.6.33,1.43.47,2.13.18.88-.16,1.88,0,2.77,1.84,11.12,7.72,18.18,19.26,16.39a2.17,2.17,0,0,0,.63.27q3.24.24,6.49.45c.2,0,.41,0,.61,0,.78,0,1.56-.1,2.34-.09.28,0,.55.25.84.27.62,0,1.24.08,1.87.11Z"/></g></g></svg>