<svg xmlns="http://www.w3.org/2000/svg" viewBox="0 0 194 480"><defs><style>.cls-1{fill:#d9ac5c;}.cls-2,.cls-3,.cls-4{fill:#fff;}.cls-3{font-size:3.91px;font-family:GenEiLateGo_v2, GenEi LateGo v2;letter-spacing:0.06em;}.cls-4{font-size:2.6px;font-family:NotoSansCJKtc-Light-B5pc-H, Noto Sans CJK TC;letter-spacing:0.07em;}.cls-5{letter-spacing:0.05em;}.cls-6{letter-spacing:0.06em;}.cls-7{letter-spacing:0.05em;}.cls-8{letter-spacing:0.07em;}.cls-9{letter-spacing:0.05em;}.cls-10{letter-spacing:0.05em;}</style></defs><title>ribbon</title><g id="圖層_2" data-name="圖層 2"><g id="圖層_3" data-name="圖層 3"><path class="cls-1" d="M0,0V333.75A63.25,63.25,0,0,0,63.25,397H67c14,83,78.78,83,89,83h17.5c10.22,0,20.5-7.78,20.5-18V0Z"/><path class="cls-2" d="M59.2,314.1c-.09,0-.23.16-.31-.06l-.07.26c-.14,0-.31-.14-.4-.1-.25.12-.43-.06-.64-.09s-.46,0-.69,0-.2-.1-.3-.12a2.35,2.35,0,0,0-.37-.05c-.12,0-.24,0-.35,0a3.18,3.18,0,0,0-.51-.13,2.29,2.29,0,0,1-1.12-.5,3,3,0,0,1-1.31-2,12.84,12.84,0,0,1-.16-1.52c0-.18,0-.3-.27-.36a4.59,4.59,0,0,1-.7-.27.75.75,0,0,1-.42-.86,1.3,1.3,0,0,1,.09-.39.51.51,0,0,1,.27-.21,2.09,2.09,0,0,1,.61,0,.72.72,0,0,0,.81-.59c0-.16.09-.32.12-.48s.06-.49.11-.72.13-.44.19-.66,0-.18.08-.26c.16-.42.32-.84.47-1.26.05-.14.05-.3.1-.43s.17-.2.22-.31.08-.29.15-.42.13-.45.43-.49c0,0,.06-.08.07-.12a2.64,2.64,0,0,1,.69-1.08,1.17,1.17,0,0,1,.89-.32,1.49,1.49,0,0,1,.46.22v.08a7.45,7.45,0,0,0,1-.66,5.45,5.45,0,0,1,1.8-1,4.68,4.68,0,0,1,1.17-.3,3.64,3.64,0,0,1,1.26.11,2.16,2.16,0,0,1,1.2,1,4.69,4.69,0,0,0,.42.47,2,2,0,0,1,.23.28c.19.32.37.66.57,1a3.48,3.48,0,0,0,.28.39,8,8,0,0,1,.67,1.38,3.81,3.81,0,0,1,.19.57.22.22,0,0,0,.28.17l.63-.09a3.47,3.47,0,0,1,1.46.23.17.17,0,0,1,.09.28c-.22.29-.46.57-.68.85s-.34.47-.51.7a.29.29,0,0,1-.33.16c-.2,0-.39.23-.34.42.14.55.29,1.11.41,1.66.08.39.12.79.18,1.18a.33.33,0,0,0,.07.13,2.1,2.1,0,0,1,.38,1.41,3.34,3.34,0,0,0,.1.4c.07.31.14.63.22.95,0,.14.13.27.18.41.19.47.37.94.55,1.42a1.92,1.92,0,0,1,.23.7,3.32,3.32,0,0,1-.26.79.56.56,0,0,1-.56.35,2.3,2.3,0,0,0-.35.1,5,5,0,0,1-1,.24,1.13,1.13,0,0,1-.57-.28,1.66,1.66,0,0,1-.31-.38c0-.06,0-.16-.09-.22a.4.4,0,0,0-.24-.17.53.53,0,0,1-.55-.51s0-.11.08-.16c-.15-.21,0-.68.26-1-.35,0-.16-.3-.34-.43-.2.33-.57.38-.86.55a6.7,6.7,0,0,1-1.81.57,1.72,1.72,0,0,1-.48-.08.67.67,0,0,0-.24,0,1.59,1.59,0,0,1-.37.06,4.84,4.84,0,0,0-.94.08,2,2,0,0,1-1.16-.2A.58.58,0,0,1,59.2,314.1Zm.36-8.36c-.14-.37-.25-.69-.38-1,0-.05-.06-.08-.09-.12s-.17-.23-.24-.35a1.59,1.59,0,0,1-.16-.41c0-.21-.13-.45.1-.62a2.09,2.09,0,0,1,1.11-.36,7,7,0,0,1,1.12,0c.35,0,.7.11,1,.17a.24.24,0,0,1,.15.08c.16.21.39.42.43.65a3.26,3.26,0,0,1-.06.93s0,0-.07.08l-.2.24a4.66,4.66,0,0,0,.58,0c.24,0,.34-.11.3-.33s-.12-.57-.19-.85-.17-.66-.26-1a5.91,5.91,0,0,0-.38-1.12,4,4,0,0,0-.66-.77l0,.06a3.83,3.83,0,0,0-.47,0,1.07,1.07,0,0,0-.51.06c-.45.26-.89.55-1.32.84s-.79.6-1.21.86c-.23.15-.47.34-.8.22a.2.2,0,0,0-.09.05,1.7,1.7,0,0,0-.18.39c0,.27,0,.54-.09.8s-.16.5-.22.75-.15.78-.23,1.18c0,.17.05.27.24.24s.67-.1,1-.17.77-.19,1.15-.29Zm4.85,3.7a.2.2,0,0,1,0-.05c-.17-.61-.33-1.23-.53-1.83a.87.87,0,0,0-.38-.38c-.28-.16-.57,0-.84.06-.53.15-1.05.32-1.58.46-.2.05-.42,0-.62.09l-1.32.41-1.92.63a.2.2,0,0,0,.1.07l1.22.26h.25a.24.24,0,0,0,.16-.08s0-.11-.05-.16l-.07-.08a.42.42,0,0,1,.39-.32,3.08,3.08,0,0,1,.53,0,8.62,8.62,0,0,0,1,.22,2.5,2.5,0,0,1,1.16.39,2.94,2.94,0,0,0,1,.48,1,1,0,0,0,.29,0l.16,0Z"/><path class="cls-2" d="M32.27,313.69c-.31-.32-.29-.75-.4-1.13s0-.5-.11-.72a1.61,1.61,0,0,1,0-.84,2.15,2.15,0,0,0,0-.8c0-.17,0-.68,0-.76a3.45,3.45,0,0,1,0-.84c.11-.27,0-.43.23-.76a1.61,1.61,0,0,1,.34-.45l.5-.47a4.24,4.24,0,0,1,.33-.39,7.78,7.78,0,0,1,.74-.47,10.45,10.45,0,0,1,.93-.51,5.54,5.54,0,0,1,1.32-.44,4.48,4.48,0,0,0,.52-.16c.24-.07.55-.07.72-.22a1.53,1.53,0,0,1,.78-.25,3.29,3.29,0,0,1,1,0c.29,0,.57.09.86.12a1.41,1.41,0,0,1,.75.4,1,1,0,0,1,.37.61c0,.06.09.12.13.18s.18.21.19.31,0,.45,0,.68a1.3,1.3,0,0,0,.32,1,1.44,1.44,0,0,1,.45,1.23,6.51,6.51,0,0,1,.21.62,4.05,4.05,0,0,1,.1,1.43,2.63,2.63,0,0,1-.13.69,1.38,1.38,0,0,1-.4.44,4.48,4.48,0,0,1-.44.32l-.12.08L40,313.2a3.32,3.32,0,0,1-.51.23c-.31.08-.63.1-1,.15l-.25.07-.74.12a2.6,2.6,0,0,0-.78.09,1.48,1.48,0,0,1-.63,0,4.84,4.84,0,0,0-1-.06c-.34.05-.68,0-1,.08-.09,0-.16.13-.26.17a.92.92,0,0,1-.39.14,2.76,2.76,0,0,1-.62-.1,1.1,1.1,0,0,1-.26-.14A2.67,2.67,0,0,1,32.27,313.69ZM38,310.43a.22.22,0,0,0,.32.09c.25-.12.51-.21.76-.33s.46-.19.47-.49a.15.15,0,0,1,0-.09.49.49,0,0,0,0-.65l-.29-.4a2.07,2.07,0,0,0-.69-.72,1.42,1.42,0,0,1-.39-.29,1,1,0,0,0-1.05-.25,3.92,3.92,0,0,0-.62.45,9.24,9.24,0,0,0-.9.87c-.26.32-.63.21-1,.28a1.22,1.22,0,0,1-.33,0c-.21,0-.21.35-.14.43a2.19,2.19,0,0,1,.2.25,3.54,3.54,0,0,0,.19.39,1.46,1.46,0,0,0,.63.46.53.53,0,0,1,.24.23.24.24,0,0,0,.26.11c.26,0,.53,0,.79,0h.64l.12,0Z"/><path class="cls-2" d="M43.84,301.34c.26-.46.38-1,1-1.17a6.27,6.27,0,0,1,.74.29,1.4,1.4,0,0,0,.72.13c.11,0,.21.12.33.17a3.66,3.66,0,0,0,.43.15,5.93,5.93,0,0,1,.94.26,1.1,1.1,0,0,1,.65.87c0,.27.14.54.16.82a1.21,1.21,0,0,1-.62,1.11l-.59.45c-.1.07-.21.12-.31.2a.27.27,0,0,0-.13.15c0,.13-.1.17-.23.2s-.11.1-.16.16a1.27,1.27,0,0,1-.22.33.34.34,0,0,1-.47,0,.52.52,0,0,0-.21-.13,1,1,0,0,1-.73-.62.27.27,0,0,0-.16-.13.84.84,0,0,1-.45-.38c-.11-.2-.26-.37-.38-.57s0-.18-.09-.26a2.51,2.51,0,0,1-.29-1.28s0-.09.06-.12C44,301.7,44,301.59,43.84,301.34Z"/><path class="cls-2" d="M44.65,316.73a3.34,3.34,0,0,1,0-.62,5.43,5.43,0,0,1,.13-.58.23.23,0,0,0,0-.18c-.14-.27,0-.56.31-.49s.55-.1.81-.17l.33-.09a3,3,0,0,0,.61-.26,1.24,1.24,0,0,1,.75-.21,3.23,3.23,0,0,0,.67-.15c.23-.05.4-.23.67-.21a.77.77,0,0,1,.63.44c.05.2.18.4.09.62a.84.84,0,0,0-.08.34,5.27,5.27,0,0,0,.1.52c.05.29.09.56-.2.78-.1.07-.11.26-.15.4a1.25,1.25,0,0,1-.55.78s-.09.07-.1.11c0,.24-.28.21-.45.28s-.23.08-.27.16a.45.45,0,0,1-.44.23,1.71,1.71,0,0,1-1.14-.28,15.15,15.15,0,0,1-1.5-1.26A2,2,0,0,0,44.65,316.73Z"/><path class="cls-2" d="M45.73,306.46l.15.09s.08.08.12.08c.41,0,.78.27,1.23.13.18-.06.43.08.65.12l.28,0c.11,0,.25,0,.33.06a1.2,1.2,0,0,0,.69.22.53.53,0,0,1,.44.46,1,1,0,0,1,0,.74.27.27,0,0,0,0,.2.88.88,0,0,1-.11.71c-.11.19-.25.37-.38.55s-.11.18-.17.26l-.17.17s-.07,0-.08.07c-.06.26-.27.33-.5.39a.7.7,0,0,1-.25,0,.51.51,0,0,0-.46.19c-.07.06-.17.16-.23.14a1.7,1.7,0,0,1-1.16-.64,1.25,1.25,0,0,0-.08-.12c-.18-.16-.36-.32-.34-.58a.16.16,0,0,0-.05-.09,2,2,0,0,1-.65-1,2.21,2.21,0,0,1-.07-.82c0-.08.08-.16.12-.23s.17-.24,0-.4.05-.17.09-.26.11-.12.12-.19C45.25,306.45,45.34,306.38,45.73,306.46Z"/><path class="cls-2" d="M67.19,293.08c-.07-.07-.1-.18-.17-.26s-.16-.17-.25-.17a2.69,2.69,0,0,0-.63.06c-.35.07-.7.18-1,.22a1.68,1.68,0,0,0-.76.29c-.32-.15-.41-.12-.44.1-.18,0-.35.06-.51.11-.33.09-.64.21-1,.3s-.8.17-1.2.26c-.77.17-1.53.36-2.3.51a3.06,3.06,0,0,0-.52.23h-.45a1,1,0,0,0-.29-.11l-.18-.06a1.06,1.06,0,0,0-.31,0c-.15,0-.28.13-.42.18s-.26.08-.38.12-.07.06-.11.06-.36.05-.54.09a1.83,1.83,0,0,0-.46.18.47.47,0,0,1-.52,0,.91.91,0,0,1-.35-.53,1.29,1.29,0,0,0-.09-.16,1.13,1.13,0,0,1-.21-1,1.26,1.26,0,0,0,0-.61A1.67,1.67,0,0,0,53,291.63a.47.47,0,0,0-.71.27,1.84,1.84,0,0,0-.09.25,2.09,2.09,0,0,1-.49.93c-.07.11-.12.23-.19.34a7.17,7.17,0,0,1-.46.75,4.57,4.57,0,0,0-.58,1.09s0,0,0,.06,0,.23-.08.29a1,1,0,0,0-.24,1.12,2,2,0,0,1,.05.24c.09.33.17.67.27,1,0,.11.17.2.18.3a1.18,1.18,0,0,0,.84,1l.26.14.27.11c.22.06.44.1.65.18a1.28,1.28,0,0,0,.85.13,6.64,6.64,0,0,0,1.82-.82,4,4,0,0,1,.81-.38l.23-.09c.49-.24,1-.51,1.46-.7a1.31,1.31,0,0,0,.7-.58l-.12-.12,0-.05.77.07a.14.14,0,0,0,.09,0l1.19-.36c.31-.1.6-.21.91-.3.74-.21,1.49-.39,2.23-.61.17-.05.29-.22.43-.33s.33.07.41-.18c0,0,.11-.06.13,0a1,1,0,0,0,.86,0A1.9,1.9,0,0,0,66,295c.24-.17.52-.27.62-.58,0,0,.06,0,.09-.08a4.43,4.43,0,0,0,.51-.45A.51.51,0,0,0,67.19,293.08Z"/><path class="cls-2" d="M98.21,306.11a1.4,1.4,0,0,0-1.4-1.13,5.44,5.44,0,0,0-3,.33.63.63,0,0,1-.48,0c-.17-.5-.3-1-.45-1.51,0-.06-.11-.11-.16-.16h0a.11.11,0,0,1,0-.05c0-.37,0-.74.08-1.11a1.32,1.32,0,0,0-.84-1.45c-.37-.18-.75-.35-1.11-.54-.2-.11-.36-.33-.56-.38a1.93,1.93,0,0,0-.75.05.77.77,0,0,0,0,.35c.2.44.43.87.65,1.3a1,1,0,0,1,.14.3c0,.5,0,1,.06,1.5s.25,1,.36,1.55a3.22,3.22,0,0,1,.1.75c0,.14-.11.38-.22.41-.5.13-1,.22-1.52.31a8.16,8.16,0,0,1-3.54-.05s-.23-.05-.25-.15a2.81,2.81,0,0,1-.11-1.07,14.07,14.07,0,0,1,.48-1.65c.06-.18.07-.47.19-.52.72-.29.77-1,1-1.54a9.55,9.55,0,0,0,.41-1,2,2,0,0,0,.12-.59s-.09-.27-.06-.37,0-.24.08-.36a2.47,2.47,0,0,0-.36.19c-.16.11-.3.25-.45.37-.54.39-1.09.76-1.6,1.18a2.43,2.43,0,0,0-.58.73,20.09,20.09,0,0,0-1.54,2.89,3.36,3.36,0,0,0,.11,1.9A4.44,4.44,0,0,0,85.4,309a.52.52,0,0,1,.13.12,6.55,6.55,0,0,1-.74.75c-.29.22-.69.33-1,.57-.55.49-1.06,1-1.56,1.56-.73.79-1.44,1.58-2.14,2.39-.16.18-.2.45-.35.64a14.43,14.43,0,0,0-1.13,1.35,9.21,9.21,0,0,0-.79,1.89,1.38,1.38,0,0,0,0,1c.15.29.45.48.24.88s-.25.83.12,1.06a3.35,3.35,0,0,0,1.18.22c.24,0,.48.1.71.15s.25.06.3,0a6.93,6.93,0,0,0,1-.95c.55-.71,1-1.46,1.55-2.2.19-.27.35-.57.52-.86s.47-.88.77-1.28c.71-.92,1.45-1.8,2.17-2.71.46-.58.91-1.17,1.36-1.76.09-.11.16-.27.28-.32a1.62,1.62,0,0,0,1-1.24c.06-.27.1-.68.29-.77a5.82,5.82,0,0,1,1.34-.31l.1,0a.47.47,0,0,1-.06-.09.78.78,0,0,1,0-.14l.09,0c.09.17.18.33.26.51,0,0,0,.09,0,.13a2,2,0,0,0-.18.6c0,.56.12,1.12.19,1.68a1.27,1.27,0,0,0,0,.34c.19.46.42.9.57,1.37.09.26,0,.57.11.84s.26.74.36,1.12.46.46.8.39a2.66,2.66,0,0,0,.63-.27c.25-.12.5-.23.74-.36s.46-.21.46-.32a26.36,26.36,0,0,0,0-3.08,29.43,29.43,0,0,0-.58-3.06,1.61,1.61,0,0,1,.55-1.41,1.4,1.4,0,0,1,.8-.3c.69-.11,1.39-.17,2.08-.29C97.92,306.75,98.26,306.58,98.21,306.11Z"/><path class="cls-2" d="M78.84,304.52c0-.33.12-.66.2-1.06s0-.58.08-.91c.07-.89,0-1.81-.87-2.3a7.65,7.65,0,0,0-2.37-.81,7.47,7.47,0,0,0-2.26.08,3.52,3.52,0,0,0-2.68,2.15,4.36,4.36,0,0,0-.17,2.34A4.23,4.23,0,0,0,72,306.66a4.78,4.78,0,0,0,2.17,1.62c.38.11.74.47,1.18.14s1-.67,1.4-1.05,1-.86,1.4-1.31c.08-.07,0-.25.12-.33s.43-.32.53-.54S78.81,304.74,78.84,304.52Zm-3.14-.08c0,.1-.33.08-.48.16a16.5,16.5,0,0,1-1.6.87c-.17.08-.52-.08-.7-.22a3.13,3.13,0,0,1-.86-1.74c-.36-1.17.86-1.85,2-1.61a5.07,5.07,0,0,0,.52.06,3.71,3.71,0,0,1,1,.38c.17.11.19.46.25.71a1.47,1.47,0,0,1,0,.47A4,4,0,0,1,75.7,304.44Z"/><path class="cls-2" d="M97.29,294.71a.45.45,0,0,0-.28,0s0,.15,0,.22a.39.39,0,0,1-.12.14s0,0-.08,0,0-.1,0-.14-.06-.28-.12-.29a2.89,2.89,0,0,0-.77-.09,16.73,16.73,0,0,0-1.75.16c-.87.13-1.73.32-2.6.49-.13,0-.38.11-.08.29l.06.06s-.06,0-.09,0a9.32,9.32,0,0,0-1.18-.05,17.86,17.86,0,0,0-2.06.27c-.7.13-1.38.33-2.06.52s-1.37.37-2,.62-1.45.64-2.16,1l0,0a.16.16,0,0,0,0,.27l.07.07h0a.17.17,0,0,1,0,.27h0a.42.42,0,0,0-.17.18s.07.15.13.17l2,.69a.17.17,0,0,0,.1,0c.35-.08.8-.19,1.26-.26,1-.14,1.94-.24,2.91-.36.72-.1,1.46-.15,2.16-.32a5.12,5.12,0,0,0,1.16-.44c.19-.09.66-.27.67-.27a4.72,4.72,0,0,0,1-.39l.86-.09a3.38,3.38,0,0,0,.71,0c.37-.05.73-.19,1.11-.23.64-.07,1.39.15,1.66-.74.07-.23.39-.38.48-.62C98.14,295.43,97.85,295,97.29,294.71Z"/><path class="cls-2" d="M108.17,324a5.71,5.71,0,0,1,1.45-.66,9.16,9.16,0,0,1,2.22,0,12.16,12.16,0,0,1,3.35.46,6.7,6.7,0,0,0,3.13.23,5.31,5.31,0,0,1,1.12.26c.81.13,1.63.27,2.45.33,1.11.08,2.22,0,3.32.14a4.39,4.39,0,0,1,3.36,3.61c0,.54.34,1.06.37,1.6a12.8,12.8,0,0,1-.12,2.14c-.16,1.47-.4,2.92-.52,4.39-.08,1,0,2,0,3.07a.25.25,0,0,0,0,.12c.74.87,0,1.5-.3,2.26a8.85,8.85,0,0,0-.26,2.42,11,11,0,0,1-3,6.91,8.33,8.33,0,0,1-2,1.3c-.65.37-1.41,1-2,.93a13.75,13.75,0,0,1-3.42-1.37,4.05,4.05,0,0,1-1.46-1.11c-.13-.15.31-.7.48-1.07s.14-.7.34-.79a4.72,4.72,0,0,1,1.84-.52,7.18,7.18,0,0,1,2.62.44c1.49.6,1.92-.47,2.43-1.27a8.66,8.66,0,0,0,.64-1.94,11,11,0,0,0,.72-2.21c.11-1.23,0-2.48,0-3.72,0-1.74,0-3.48,0-5.22s.22-3.31.26-5a6.41,6.41,0,0,0-.3-2.22c-.08-.25-.76-.42-1.17-.44-1.44-.1-2.9-.05-4.33-.17s-2.59-.44-3.9-.54a3.36,3.36,0,0,0-1.45.5,6.27,6.27,0,0,1-4.6.33c-.2-.06-.25-.57-.45-.64-.53-.17-1.13-.17-1.67-.33a3,3,0,0,1-1.22-.58.88.88,0,0,1,.08-.91,13.54,13.54,0,0,1,1.81-1Z"/><path class="cls-2" d="M111.1,337.53c1.06.11,1.84.2,2.63.27.61.06,1.24,0,1.84.13,1.12.2,2.67,2,2.4,2.78a18.88,18.88,0,0,1-1,2,5.07,5.07,0,0,0-.52,1.47c-.09.66-1,1.2-1.83,1.3a21.61,21.61,0,0,0-2.63.83,2.07,2.07,0,0,1-1.25.05,14.31,14.31,0,0,1-2.84-1.52,2.49,2.49,0,0,1-.82-1.57,4.46,4.46,0,0,1,.23-2,4.09,4.09,0,0,1,1-1.68A30.74,30.74,0,0,1,111.1,337.53Zm1.31,4.37c.5-.41,1-.73,1.33-1.1a1.86,1.86,0,0,0,.3-.67.28.28,0,0,0,0-.24.37.37,0,0,0-.27-.09,8.29,8.29,0,0,0-1.38.74,1.41,1.41,0,0,0-.44.81C111.91,341.45,112.16,341.62,112.41,341.9Z"/><path class="cls-2" d="M116.09,335.5c-1.22,0-2.61.44-3.61,0s-1.42.25-2.1,0c-.95-.32-2.13-.25-2.46-1.53-.1-.43-.56-.81-.58-1.23s.35-.72.67-.88c.87-.43,1.42-1.45,2.64-1.26.63.1,1.29,0,1.93.11.19,0,.36.34.53.34.5,0,1-.16,1.51-.18a1.7,1.7,0,0,1,.78.22c.7.34,1.39.7,2.06,1.09a1,1,0,0,1,.47.55,2.84,2.84,0,0,1,.08,1.52c-.15.38-.7.65-1.12.9a2.54,2.54,0,0,1-.8.2Z"/><path class="cls-2" d="M153.78,321.76a7.49,7.49,0,0,0,.4,2,2,2,0,0,0,1.86.91,6.17,6.17,0,0,1,2.2.53c1.23.58,2.39,1.29,3.55,2a3.37,3.37,0,0,1,.69.76c-.35,0-.7,0-1,0-1.43.14-2.87.25-4.29.45-.89.12-1.75.52-2.63.55-1.76.07-3.54-.16-5.29,0s-3.49.62-5.23.91c-.52.09-1.08-.06-1.58.05a1.55,1.55,0,0,0-1,.66c-1,2.36-2,4.75-3,7.13-.57,1.35-1.11,2.72-1.78,4-.22.43-.82.68-1.21,1a1.08,1.08,0,0,0-.25.5c-.14.47-.22,1-.38,1.42a.76.76,0,0,1-.41.29,9.93,9.93,0,0,1-.72-.73c-.08-.08-.18-.25-.22-.24-1.23.35-.75-.62-.7-.95a24.86,24.86,0,0,1,.82-3.81c.4-1.26,1.06-2.44,1.48-3.7a10.12,10.12,0,0,0,.24-2.08,5.23,5.23,0,0,1,2.91-4c.92-.52-.08-.68-.2-.74a.86.86,0,0,1-.38-1.45,2.32,2.32,0,0,1,1.4-.61c.9-.14,1.81-.14,2.72-.19s1.84,0,2.73-.15c2-.32,4-.73,6-1.12a1.62,1.62,0,0,0,0-.43c-.11-.49-.22-1-.36-1.46s-.35-.88-.48-1.34-.25-.77-.1-1c.38-.62.87-1.22,1.82-1a10.48,10.48,0,0,1,2,.52c.37.19.51.77.75,1.17Z"/><path class="cls-2" d="M146.4,338.47c-1-.05-1.9-.08-2.85-.15a1.34,1.34,0,0,1-.47-.22c-.09-.05-.17-.14-.26-.18-.4-.14-.8-.27-1.19-.42,0,0-.08-.18,0-.23a8.87,8.87,0,0,1,.61-.86c.08-.1.3-.14.33-.24.25-.87.82-.81,1.58-.63s1.51.09,2.25.19c.55.07,1.07.28,1.61.38a5.08,5.08,0,0,0,1.17.07c.1,0,.29-.33.25-.38a.8.8,0,0,0-.49-.32c-1.2-.13-2.41-.19-3.6-.37-.21,0-.49-.48-.5-.74s.27-.59.42-.88c.45-.88,1-.58,1.84-.41.62.13,1.39-.36,2.1-.58.11,0,.2-.12.31-.14.7-.13,1.05-.42.76-1.17-.06-.17.22-.58.44-.69a2.48,2.48,0,0,1,1-.12.42.42,0,0,1,.31.27c.12.46.13,1.32.32,1.35a4.26,4.26,0,0,0,2.16-.08,3.16,3.16,0,0,1,3.36.59c.22.21.74.13,1,.32s.63.61.61.9a22.33,22.33,0,0,1-.48,2.41c0,.05.15.21.21.2a19.68,19.68,0,0,1,2-.36,6.79,6.79,0,0,1,1.46.22c-.31.34-.55.81-.94,1a19.83,19.83,0,0,1-2.33.76c-.09,0-.22.12-.21.17.13,1.06-.47,1.36-1.45,1.28-.1,0-.21,0-.12,0a5.9,5.9,0,0,1-.37.62c-.61.69-1.09,1.49-2.29,1.39a1.69,1.69,0,0,0-1.94,1.95c.08,1.49.1,3,.08,4.48,0,.94-.85,1.41-1.72,1.48s-1.33,0-1.52-.74a12.52,12.52,0,0,1-.22-1.83,12.71,12.71,0,0,1,0-1.95c0-.3.35-.56.48-.87.31-.72-.37-1.64-.92-2.14-.81-.73-1.71-.43-2.56-.63-.52-.11-.92-.68-1.38-1.05a2.31,2.31,0,0,1-.29-.24l-.53-.61a3.19,3.19,0,0,1,.83-.56,4.51,4.51,0,0,1,1.17-.06Zm6.37.31c.37.19.56.36.75.37.69,0,1.37,0,2.06,0h.34c-.11-.11-.2-.3-.32-.33-.69-.13-1.38-.25-2.08-.32C153.34,338.46,153.14,338.63,152.77,338.78Zm-3.41.83c.12-.26.3-.46.25-.57s-.32-.53-.48-.53a8.26,8.26,0,0,0-1.37.26Zm5.78-3.47c-.23-.34-.3-.55-.39-.56a17,17,0,0,0-1.75-.11c-.05,0-.1.16-.16.25.44.14.87.3,1.32.41A5,5,0,0,0,155.14,336.14Z"/><path class="cls-2" d="M157,352a3.08,3.08,0,0,1-.38-1.13,3,3,0,0,1,.58-1.09c.07-.12.32-.18.32-.27.07-.93.63-.56,1.11-.4a21.66,21.66,0,0,1,2.56.94,25.45,25.45,0,0,1,2.81,1.76c.08.05,0,.49-.1.57-.66.42-.82,1.47-2.11,1.12-.74-.21-1.69.28-2.55.33-.49,0-1.13.78-1.52-.23a7.34,7.34,0,0,0-1-1.45Z"/><path class="cls-2" d="M160.77,345.42c0,.19.1.42,0,.56s-.36.07-.55.09c-.82.09-1.63.19-2.45.27-.16,0-.41,0-.48-.06a2,2,0,0,1-.45-.81c-.08-.39.08-.81,0-1.19-.3-1.24.82-1,1.36-1a14.43,14.43,0,0,1,3.46.42c.36.08.58.72.86,1.11l-1.69.68S160.74,345.41,160.77,345.42Z"/><path class="cls-2" d="M145.65,351.8a9.45,9.45,0,0,1-1.94-.12,2.7,2.7,0,0,1-1.26-.75c-.14-.15.1-.65.24-1a11.1,11.1,0,0,1,.64-1.17.5.5,0,0,1,.32-.22c.73,0,1.46-.07,2.2-.07.13,0,.28.14.37.26.53.65,1,1.31,1.56,2-.52.31-1,.64-1.54.92A2.15,2.15,0,0,1,145.65,351.8Z"/><path class="cls-2" d="M143.76,342.82c.32.42.62.85,1,1.24.18.21.6.35.62.54a1.85,1.85,0,0,1-.26,1.16c-.2.26-.72.28-1,.5-.49.37-.9.83-1.36,1.23-.06.05-.24,0-.36,0s-.12-.13-.16-.12c-1,.25-1-.62-1-1s.41-.82.74-1.16.88-.34.71-1.06c-.08-.34.42-.81.66-1.22Z"/><path class="cls-2" d="M116.87,307.05a2.71,2.71,0,0,1-1.1,0c-.73-.17-1.46-.32-2.18-.52a15.1,15.1,0,0,1-2.46-.91c-.16-.07-.29-.19-.45-.25-.41-.16-.83-.32-1.25-.46l-1-.3a.77.77,0,0,0-.26,0c-.3,0-.6,0-.9.07s-.51.11-.76.16a.2.2,0,0,0-.08,0c-.31.21-.62.42-.92.64-.12.09-.22.21-.34.31-.34.28-.68.58-1.05.83a3.76,3.76,0,0,1-.64.29c-.22.09-.44.21-.67.28a5.22,5.22,0,0,1-.57.11l-.15,0a.39.39,0,0,1-.57-.41,1.66,1.66,0,0,1,.17-.45,1.12,1.12,0,0,1,.13-.24c.31-.6.64-1.18.94-1.79a6.2,6.2,0,0,1,1-1.3,4.05,4.05,0,0,1,.68-.56,12.13,12.13,0,0,1,1-.67,9.39,9.39,0,0,1,1.12-.51,7.63,7.63,0,0,1,2.46-.53,8.51,8.51,0,0,1,2.4.36,5.67,5.67,0,0,1,1.75.89c.34.25.66.54,1,.76a6.84,6.84,0,0,0,1.06.5,3.85,3.85,0,0,0,2.18.12,2.94,2.94,0,0,0,1.22-.58.43.43,0,0,0,.14-.19,1.06,1.06,0,0,1,.44-.58c.19-.15.35-.35.54-.5a3,3,0,0,1,.44-.21c.21-.1.44-.17.65-.28a1.36,1.36,0,0,1,.94-.25.53.53,0,0,0,.25,0,.26.26,0,0,1,.34.14,1.5,1.5,0,0,1,.3.78c0,.13,0,.26,0,.39a.31.31,0,0,0,.19.29.37.37,0,0,1,.17.25.39.39,0,0,0,.27.36c.13.05.13.13.12.24a1.25,1.25,0,0,1-.54.86c-.27.26-.51.55-.75.83a3.37,3.37,0,0,1-.93.79c-.15.08-.25.23-.39.31a4.35,4.35,0,0,1-.75.37c-.38.12-.79.19-1.17.32a4.94,4.94,0,0,1-1.21.2h-.14C117.28,307.11,117,307,116.87,307.05Z"/><path class="cls-2" d="M67.71,343.22c.09.16.14.37.28.45a1.11,1.11,0,0,1,.53,1.12c0,.19.16.37.22.56.13.4.25.8.37,1.21.06.23.12.46.19.69.15.57.29,1.14.46,1.7a.58.58,0,0,0,.3.25c.42.17.84.34,1.27.48a6.57,6.57,0,0,0,.77.16c1,.19,1.93.45,2.91.57s1.94.09,2.91.16c.58.05,1.15.15,1.72.22a.14.14,0,0,0,.13,0c.41-.59.93-.1,1.39-.13a1.33,1.33,0,0,1,.32,0l-.2-.18,1.26.19a2.79,2.79,0,0,0,1.82-.13,7,7,0,0,1,1.56-.27c.43-.09.85-.27,1.29-.35a1.82,1.82,0,0,1,.64.1l.59.17c-.23-.54-.11-.84.29-1.08.13-.07.13-.33.22-.5a.61.61,0,0,1,.23-.29c.61-.29,1.24-.56,1.86-.84s1.12-.45,1.66-.72c.16-.08.37-.14.33-.5a4.17,4.17,0,0,1,.26-1.31.33.33,0,0,0,0-.26c-.19.21-.37.43-.57.63s-.23.12-.32.2a.54.54,0,0,0-.15.3c0,.6-.46.79-.91,1a3.48,3.48,0,0,1-.68.25A1.38,1.38,0,0,1,90,347a1.44,1.44,0,0,1-1.07-1.08s-.14-.05-.21,0c-.55.08-1.1.21-1.66.24a1.67,1.67,0,0,1-1-.18.92.92,0,0,1-.13-1.08c.11-.28-.1-.7-.18-1.05a3.73,3.73,0,0,0-.14-.44,5.25,5.25,0,0,0-.87.34,7.26,7.26,0,0,0-.76.71.37.37,0,0,1-.25.09,1,1,0,0,0-.45,0l.29.07v.05l-1.23.08v-.12h.27c0-.15-.14-.31-.11-.45a3.77,3.77,0,0,1,.28-.7c.06,0,0,0,0,0,.13-.38.41-.77.34-1.1-.11-.5.19-.73.41-1a1.79,1.79,0,0,1,1.72-.84c.38,0,.8-.36,1.2-.37a9.31,9.31,0,0,1,2,.24c.16,0,.25.37.4.54a.83.83,0,0,0,1.37,0c.17-.18.55-.18.84-.21a1.33,1.33,0,0,1,.46.13A4.34,4.34,0,0,0,92,341a.54.54,0,0,0,.4,0,1.42,1.42,0,0,1,1.51.24c.43-.57.43-.57.88-.34a4.24,4.24,0,0,1,.18-.66,3.46,3.46,0,0,1,.42-.81c.28-.35.1-.56-.09-.87a10.21,10.21,0,0,1-.5-1.23c0-.09-.24-.14-.37-.15-.29,0-.59,0-.89,0s-.58,0-.67.12c-.3.46-.76.23-1.13.35-.11,0-.24,0-.35.08-.72.29-1.31.25-1.61-.61,0-.06-.23-.06-.51-.13,0-.06-.11-.27-.22-.52a1.07,1.07,0,0,1-.21.15c-.52.36-1,.74-1.58,1.07a3.51,3.51,0,0,1-.74.21.48.48,0,0,1-.67-.19,9.66,9.66,0,0,0-.72-.71c-.07-.08,0-.27,0-.38a3.83,3.83,0,0,1-.25-.44c-.21-.4-.63-.3-.93-.3A2.55,2.55,0,0,1,81.68,334c0-.06,0-.13,0-.19s0-.32,0-.42c-.3-.45-.66-.88-.93-1.35-.06-.09.13-.45.26-.49a3.35,3.35,0,0,1,1.09-.12,4.86,4.86,0,0,1,1.26.25c.3.11.52.41.81.53.5.21.31.61.37,1,0,.13.29.26.47.3a2,2,0,0,0,.64,0,1.62,1.62,0,0,0,.59-.08,1.49,1.49,0,0,1,1.6.06,2.2,2.2,0,0,0,.62.14l-.4.19a6.58,6.58,0,0,1,1-.11c.15,0,.3.17.44.28s.37.25.55.39l.06,0c.61-.3.77.63,1.36.48.2,0,.46.12.7.18.06,0,.18,0,.18-.05a.27.27,0,0,0-.05-.22,1.28,1.28,0,0,1-.27-1.62.2.2,0,0,1,.12-.08l1.63-.41-.1-.2c.09,0,.2-.05.26-.11a2.23,2.23,0,0,0,.23-.39l.13.24.08-.08c.07,0,.14.15.21.15.6,0,.75.57,1.16.81a1.64,1.64,0,0,1,.78,1.94c0,.09-.16.14-.18.15l.31.7c.52-.1.59.39.77.75.28.55.7,1,.55,1.72-.06.29-.24.55-.3.83s-.06.59-.11.88c0,.11-.14.21-.21.31l-.24.32.38.19-.3.24c.19.32.22.62-.23.8,0,0,0,.21,0,.32,0,.44-.08.89-.13,1.33-.08.72-.13,1.45-.92,1.81-.13.06-.19.28-.32.48l-.13,0-.19,0c0,.07,0,.15,0,.2a3.54,3.54,0,0,1,.45.86,1.83,1.83,0,0,1-.12.88,2.27,2.27,0,0,1-.34.7c-.09.12-.28.18-.42.27a3.52,3.52,0,0,1-1.75.59c-.12,0-.24.12-.37.18l.13.12a5.47,5.47,0,0,1-.51.56,9.16,9.16,0,0,0-1,.79c-.19.22-.68.42-.93.26s-.27-.13-.36-.05-.44.39-.68.4a4.77,4.77,0,0,1-1.15-.21,3.68,3.68,0,0,1-.85.54,6.6,6.6,0,0,1-1.11.14c-.29.05-.57.15-.86.22a20.59,20.59,0,0,1-2.33.51,2.94,2.94,0,0,1-1.27-.27H81.5c-.5,0-1,0-1.49-.09-.15,0-.29-.14-.44-.14-.4,0-.81,0-1.21,0a1.82,1.82,0,0,1-.32,0l-3.38-.24a1.55,1.55,0,0,1-.32-.14,5.24,5.24,0,0,0-.89-.23c-.79-.06-1.59-.06-2.39-.09a7.14,7.14,0,0,1-3.29-1,2.16,2.16,0,0,1-1.14-1.44c0-.25-.28-.46-.37-.71-.17-.51-.3-1-.44-1.54a.12.12,0,0,1,0-.1c.68-.43-.06-.65-.14-1a2.19,2.19,0,0,0-.17-.38c-.1-.22-.22-.43-.31-.65a2.79,2.79,0,0,1-.09-.51c-.54.06-.7-.48-.79-.93s.09-1,0-1.44.14-.8-.24-1.11c-.09-.08,0-.31-.06-.48l.4,0a10.22,10.22,0,0,1-.59-.87,3.32,3.32,0,0,1-.34-.8,7.09,7.09,0,0,1-.28-1.19,11.13,11.13,0,0,1,0-1.15c0-.24-.15-.5.24-.62.09,0,.08-.32.16-.47.22-.45.47-.89.68-1.34a15.46,15.46,0,0,1,.76-1.65c.16-.27.54-.4.81-.61s.58-.44.87-.66c.1-.07.23-.1.31-.19a8.06,8.06,0,0,1,.78-.86,2.22,2.22,0,0,1,1-.47,6.26,6.26,0,0,1,1.18.18,1.79,1.79,0,0,0,.69-.08,11,11,0,0,0,1.35-.51c.13-.06.22-.23.32-.36s.14-.2.23-.25c.66-.31,1.31-.63,2-.88.5-.18,1-.25,1.55-.38a4.6,4.6,0,0,1,1-.28,13.1,13.1,0,0,1,2.16.24,2.4,2.4,0,0,1,1.23.55,1.45,1.45,0,0,0,.92.46,7.75,7.75,0,0,0,.84,0,2.67,2.67,0,0,1,1.76.37c.09.07.37-.09.56-.14a5.06,5.06,0,0,1,1.07-.21,5,5,0,0,1,1,.2,1.2,1.2,0,0,0,.38,0,2.35,2.35,0,0,1,.51-.08,1.63,1.63,0,0,1,.7.2c.34.23.6.56.94.78s.47.39.85.24.95.11,1.4.34.46.51.54.91.42.58.62.87a.72.72,0,0,1,.14.41c0,.24-.07.55-.23.67a3.44,3.44,0,0,1-.93.35c-.06,0-.16,0-.2,0-.49.38-.83.08-1.18-.23s-.48-.43-.7-.66c0,0,0-.14,0-.22l-.06-.37c-.09,0-.21,0-.27.05a1.67,1.67,0,0,1-1.84.12c-.39-.17-.77-.37-1.15-.58-.11-.07-.25-.22-.24-.33,0-.39-.09-.52-.47-.33-.09.05-.22,0-.38,0l-.15.13-.1-.16c-.25-.09-.45-.17-.65-.23L82.92,330a4.73,4.73,0,0,0-1.13-.3c-.83,0-1.67.06-2.5.06-.45,0-.91-.14-1.35-.11a15.18,15.18,0,0,0-1.64.28l-.18,0a5.27,5.27,0,0,0-1.13.23c-.3.12-.51.43-.8.58a2.42,2.42,0,0,1-.72.13,1.63,1.63,0,0,0-.31.11c-.21.09-.41.2-.63.27a5.37,5.37,0,0,0-.91.29c-.56.33-1.06.72-1.8.43-.23-.09-.57.17-.87.21a.83.83,0,0,1-.56-.12c-.34-.25-.62-.57-1-.82-.08-.06-.27,0-.34,0,.09.36.18.7.24,1s0,.4,0,.6c0,0,.16.1.23.09.24,0,.47-.15.72-.2a1.17,1.17,0,0,1,.32,0c0,.15,0,.35-.13.44-.31.31-.66.59-1,.88-.05,0-.12.07-.13.12a3.85,3.85,0,0,1-.19.92,7.24,7.24,0,0,1-.72,1,1.52,1.52,0,0,1-.38,1.46c-.4.28-.13.55-.06.79.14.57.35,1.14.54,1.7a.39.39,0,0,0,.23.18c.31.12.63.23,1,.33l1,.28c.07,0,.12.13.18.19s.14.14.17.13c.71-.34,1.2.15,1.75.43,0,0,.11.09.16.09a2.73,2.73,0,0,1,1.89,1c.29.29.31.6,0,.82-.05,0-.11.12-.1.16a.41.41,0,0,0,.14.26c.5.28,1,.54,1.52.79a1.71,1.71,0,0,0,.63.15c.41,0,.48.34.48.63a1,1,0,0,1-1,1.11,10.16,10.16,0,0,1-1.91,0c-.15,0-.33-.28-.41-.47a1.64,1.64,0,0,0-1.16-.55,3.15,3.15,0,0,1-.81.25.53.53,0,0,1-.42-.25c-.24-.55-.41-1.13-.64-1.68-.09-.19-.17-.43-.57-.36-.24,0-.55-.32-.83-.5ZM92,344.39l.59-.27a1.31,1.31,0,0,1,1.37.38.38.38,0,0,1,0,.1c.09.22.19.44.28.67a1.93,1.93,0,0,1,.12.41c0,.06-.08.13-.12.2s.17,0,.18,0,.13-.21.1-.3a2.73,2.73,0,0,0-1.34-2c0-.2,0-.38,0-.64-.48,1-1.34.45-2.1.67l.34.28v0Zm-5.14-8.8a6.17,6.17,0,0,0-.54-.93c-.12-.15-.37-.19-.56-.28,0,.12-.15.24-.14.36A1,1,0,0,0,86.82,335.59Z"/><text class="cls-3" transform="translate(130.26 302.76) scale(1 0.98)">HIYA~ SCONE</text><text class="cls-4" transform="translate(130.26 307.47)">The be<tspan class="cls-5" x="9.07" y="0">s</tspan><tspan x="10.36" y="0">t </tspan><tspan class="cls-6" x="12.21" y="0">g</tspan><tspan x="13.77" y="0">ood </tspan><tspan class="cls-7" x="19.72" y="0">g</tspan><tspan class="cls-8" x="21.28" y="0">ood </tspan><tspan class="cls-9" x="27.24" y="0">e</tspan><tspan class="cls-7" x="28.77" y="0">a</tspan><tspan x="30.33" y="0">t </tspan><tspan x="0" y="3.25">s</tspan><tspan class="cls-10" x="1.35" y="3.25">c</tspan><tspan x="2.78" y="3.25">one in your neighborhood</tspan></text></g></g></svg>