<svg xmlns="http://www.w3.org/2000/svg" viewBox="0 0 138.14 138.55"><defs><style>.cls-1{opacity:0.5;}.cls-2{fill:#d9ac5c;fill-rule:evenodd;}</style></defs><title>smalldots1</title><g id="圖層_2" data-name="圖層 2"><g id="bg"><g class="cls-1"><path class="cls-2" d="M16.36,28.09c.67.57.55,1.3,1,1.91a5.11,5.11,0,0,1-2.21,1.39,4,4,0,0,1-1.47-2.57A2.67,2.67,0,0,1,16.36,28.09Z"/><path class="cls-2" d="M6.22,48.05c-.75,1.37-1.88.8-2.94.59a1.61,1.61,0,0,1,1.54-2.79A2.13,2.13,0,0,1,6.22,48.05Z"/><path class="cls-2" d="M10.11,37c.7-1.31,1.54-1.85,2.65-1.1.88.54.81,2.25-.07,2.5C12,39.37,10.08,37.74,10.11,37Z"/><path class="cls-2" d="M21.73,20.54c.64-1.55,1.63-1.38,2.57-1.47.73.94,1.34,1.9.08,3.24C23.44,22.68,21.92,21.4,21.73,20.54Z"/><path class="cls-2" d="M1,54.44c3.12-.45,2.65,4.13,0,3.82C-.62,57.3,0,55.91,1,54.44Z"/><path class="cls-2" d="M32,12.77c1,.49,1,1.21,1.33,1.84a2.76,2.76,0,0,1-4.93.21A4.9,4.9,0,0,1,32,12.77Z"/><path class="cls-2" d="M40.26,7.13a3.4,3.4,0,0,1-.51,2.2C36.79,10.16,37.3,4.33,40.26,7.13Z"/><path class="cls-2" d="M21.37,34a2.19,2.19,0,0,1,2.2,2.43,2.4,2.4,0,0,1-3.38.29C19.65,35.89,20.46,34.53,21.37,34Z"/><path class="cls-2" d="M28.87,25.62a2.65,2.65,0,0,1,.51,2.57c-.57,1-1.39.7-2.13.81C24.38,27.93,27.19,24.54,28.87,25.62Z"/><path class="cls-2" d="M1.89,64.58c.85.13,1.55-.52,2.5.08,1,1.41-1.08,3.89-2.72,2.64A4.39,4.39,0,0,1,1.89,64.58Z"/><path class="cls-2" d="M17.55,46.39c.76.49.39,1.2.36,1.84-.77,1.21-1.81,1.13-2.79,1.31C12.46,47.92,15.93,45.44,17.55,46.39Z"/><path class="cls-2" d="M37.25,19.76a2.47,2.47,0,0,1-3.53-.45C33.41,15.78,39.28,16.52,37.25,19.76Z"/><path class="cls-2" d="M15.34,56.38c.38,1.49-1.57,2.92-2.72,2.64a2.44,2.44,0,0,1,.15-3.09A2.18,2.18,0,0,1,15.34,56.38Z"/><path class="cls-2" d="M49.89,2.74a2.4,2.4,0,0,1,2.51,2c-.58.95-1.15,1.89-1.92,1.91C49.19,5.56,48.57,4.34,49.89,2.74Z"/><path class="cls-2" d="M1.16,77.14c.23-.41.58-.28.81-.73.87,0,2.53,1.19,2.5,2-.47,1.18-1.2,1-1.84,1.32C1.41,79,.91,78.14,1.16,77.14Z"/><path class="cls-2" d="M47.25,11.48c1.08.55,1,1.33,1.55,2-.6,1.49-1.54,1.25-2.36,1.61-.94-.56-1.48.88-2.57-.45C43.77,13.14,45.93,11.63,47.25,11.48Z"/><path class="cls-2" d="M30.27,38.34c.41.23.29.58.74.81.15,1.45-1.74,3.13-3,3.44C24.84,41.41,28.27,36.91,30.27,38.34Z"/><path class="cls-2" d="M10.57,65c.47-.8,1.24-.18,1.84-.37a5.31,5.31,0,0,1,1.17,2.06c-.84.86-1.76,1.38-2.86,1A4.81,4.81,0,0,1,10.57,65Z"/><path class="cls-2" d="M36.81,28.06c3,1.27.35,4-1.25,4.26C34.15,31.12,35.37,28.76,36.81,28.06Z"/><path class="cls-2" d="M25.27,46.78a3.58,3.58,0,0,1,.59,2.94,3.4,3.4,0,0,1-2.94.58C21.48,49.28,24.09,46.16,25.27,46.78Z"/><path class="cls-2" d="M2.12,82.87c.91.39,2,.73,2.05,1.7A2.94,2.94,0,0,1,2.56,86C1.22,85.22.81,84.21,2.12,82.87Z"/><path class="cls-2" d="M18.8,58.37c.66.11,1.22-.28,2,.37a2.39,2.39,0,0,1,.15,2.65C19.42,62.08,16.72,60.36,18.8,58.37Z"/><path class="cls-2" d="M44.9,21.69a3.36,3.36,0,0,1,2,2.28c-.45.6-1,.65-1.47,1.25-.23-.21-.43-.22-.59-.08C42.6,24.21,43.36,22.34,44.9,21.69Z"/><path class="cls-2" d="M11.16,73.64l1.76,1.18c.09,1.42-.85,1.69-1.91,1.9C10.27,75.82,10,74.35,11.16,73.64Z"/><path class="cls-2" d="M55.19,9.15c1.18.15,3,0,3.39,1.62a2.13,2.13,0,0,1-2.8,1.32C54.87,11.25,54,10.4,55.19,9.15Z"/><path class="cls-2" d="M62.25.5c2.64,1.2,1.48,4-.51,4.11A2.42,2.42,0,0,1,62.25.5Z"/><path class="cls-2" d="M36.3,40.78c.9.52.83,1.23,1.33,1.83a2.49,2.49,0,0,1-2.58,1.47C33.84,42.81,34.8,41.25,36.3,40.78Z"/><path class="cls-2" d="M33.07,50.39c.07.82-1,2-1.62,2.42-1.16-.72-2.38-1.44-2.21-2.43.61-.8,1.41-.6,2.06-1.17Z"/><path class="cls-2" d="M22.85,66.17a4.2,4.2,0,0,1-1.17,1.76A3.32,3.32,0,0,1,19.39,67C19.16,64.88,22.18,63.83,22.85,66.17Z"/><path class="cls-2" d="M4.18,90.3A5.84,5.84,0,0,1,6,91.85c-.89,1.29-2.16.67-3.39.28C2.51,91.22,3.62,90.68,4.18,90.3Z"/><path class="cls-2" d="M44.54,34.18a1.5,1.5,0,0,1,.07,2.28c-.91.83-2,.64-3.23.06C40.8,34.68,43.06,33.86,44.54,34.18Z"/><path class="cls-2" d="M10.72,81.94c.49-.11,1.1.42,1.69.81.12.49-.42,1.1-.8,1.69C10.21,84.31,9.64,83.11,10.72,81.94Z"/><path class="cls-2" d="M54.54,18.26c1.55.59,2.55,1.74,1.62,3.31s-4-.12-4-1.7A3.41,3.41,0,0,1,54.54,18.26Z"/><path class="cls-2" d="M28.29,61.85c-1.69-.82-2-1.91-1.4-3.17C28.72,56.64,31.54,61,28.29,61.85Z"/><path class="cls-2" d="M70.56,0c.73.43.35,1.08,1.26,1.47A2.55,2.55,0,0,1,69.76,3.6c-1-.75-2.58-1.4-2.58-2.36C68.09-.27,69.37.08,70.56,0Z"/><path class="cls-2" d="M49.32,28.46a3.71,3.71,0,0,1,2.5,1,3.74,3.74,0,0,1-.37,2c-.72.84-1.7.39-2.65.14A2.63,2.63,0,0,1,49.32,28.46Z"/><path class="cls-2" d="M25.21,65.51c.87-1.11,2.57-.74,3.38.67l-1,1.54C26.33,68,24.92,66.64,25.21,65.51Z"/><path class="cls-2" d="M20.94,72.85A2.26,2.26,0,0,1,22.71,75a2.4,2.4,0,0,1-2.72.72C18.7,74.78,20.22,73.79,20.94,72.85Z"/><path class="cls-2" d="M70.57,9.55c-1.4,1.29-4.62,1.52-5.44-.45l.29-.44c.83-.94,1.88-.77,2.94-.58C69.22,7.2,70.8,8.63,70.57,9.55Z"/><path class="cls-2" d="M41.75,47A2,2,0,0,1,44,46.89c1,1-.54,3.43-1.91,2.86C41.09,49,40.72,48.12,41.75,47Z"/><path class="cls-2" d="M59.76,24.3c1,.63.86,1.48,1,2.28-1.45.72-3.67,1.51-5.07-.53C56.83,24.28,58.4,24.83,59.76,24.3Z"/><path class="cls-2" d="M36.75,55.4c.63.18,1.82.58,2,1.33l-.89,1.32a2.33,2.33,0,0,1-2.35-1.26C35.85,56,36.34,55.87,36.75,55.4Z"/><path class="cls-2" d="M11,100.24c-.72,2-4,.91-3.24-.89C8.43,97.73,10.8,99,11,100.24Z"/><path class="cls-2" d="M26.46,73.67c.68.57.52,1.3.59,2-.54.8-1.29.57-1.91,1C23.43,75.58,25,73.4,26.46,73.67Z"/><path class="cls-2" d="M66.45,15.71c1,1.1.55,2.3-.66,3.38-1.23-.17-2.68-.08-3.16-1.47A3.36,3.36,0,0,1,66.45,15.71Z"/><path class="cls-2" d="M50.21,40.51c.63.92-.54,2.58-1.55,2.79C46.08,42.19,48.34,39.1,50.21,40.51Z"/><path class="cls-2" d="M16.24,93.27A1.94,1.94,0,0,1,14.7,95.1C12.83,94,14.66,91.93,16.24,93.27Z"/><path class="cls-2" d="M21.76,83.58a2.85,2.85,0,0,1,.95,1.91c-.87,1.08-1.94,1.14-3.23.07C19.47,84.32,20.85,83.27,21.76,83.58Z"/><path class="cls-2" d="M34.18,64.5a.73.73,0,0,0,1,0,2,2,0,0,1,1,2.87c-.44.67-1,.54-1.54.87C32.74,67.34,32.9,66,34.18,64.5Z"/><path class="cls-2" d="M57.49,37.74c-.81.44-1.78,0-2.8-.6C53.66,34.11,59.24,35,57.49,37.74Z"/><path class="cls-2" d="M77.92,1.41c1.14.6,2-.08,3.24.89a2.08,2.08,0,0,1,0,2.87,4.52,4.52,0,0,0-1.25.43C78.17,4.42,76.13,3.3,77.92,1.41Z"/><path class="cls-2" d="M47.42,54.25c1,.49,1,1.21,1.32,1.84A15.11,15.11,0,0,1,46,58.36C44.41,57.86,44.8,53.46,47.42,54.25Z"/><path class="cls-2" d="M54,46.84a2.67,2.67,0,0,1-1.62,3.38c-1.52-.78-1-2-1.54-2.94C51.67,46.25,52.8,46.43,54,46.84Z"/><path class="cls-2" d="M71.61,24.25c-.64.08-.59.78-1,.95-1.35.64-3.35-1.18-2.8-2.5.9-.94,2.08-.47,3.24-.07A10.89,10.89,0,0,0,71.61,24.25Z"/><path class="cls-2" d="M28.67,81.83c.86-.79,1.89-.77,3.09.16.32.77-.5,1.88-1.25,2.35-1.14-.76-1.6-.66-2.06-1.7C28.68,82.34,28.9,82,28.67,81.83Z"/><path class="cls-2" d="M81.09,9.57c-.82,1.64-2,1.52-3.31.66C76.92,8,80.06,7.41,81.09,9.57Z"/><path class="cls-2" d="M73.59,16c.74-1.08,1.75-.77,2.72-.72.47.73,1,1.46.66,2.35C75.84,19.05,73.76,17.27,73.59,16Z"/><path class="cls-2" d="M37,74.65a5.5,5.5,0,0,1,.88,1.55,3.23,3.23,0,0,1-3.23,2C32.49,76.39,35.18,74.29,37,74.65Z"/><path class="cls-2" d="M43.45,65a3.46,3.46,0,0,1,1.33,1.84l-.89,1.32a3.84,3.84,0,0,1-2.87-1A1.77,1.77,0,0,1,43.45,65Z"/><path class="cls-2" d="M65.72,32.1c1.13.73.54,1.8,0,2.86-1-.45-2.65.36-3.24-.89C62.61,32.14,64.65,32.4,65.72,32.1Z"/><path class="cls-2" d="M19,99.23c.66-.22,1.44.22,2.28.88-.11.41-.05.77-.15,1.18-.78.85-1.73.88-2.87,0A2.89,2.89,0,0,1,19,99.23Z"/><path class="cls-2" d="M27.64,92.93a2.94,2.94,0,0,1-2.27,2.93C23.27,94.59,25.23,90.6,27.64,92.93Z"/><path class="cls-2" d="M62.12,40.84c.7.75.56,1.67-.22,2.71a3.68,3.68,0,0,1-2.28.07C57.56,42.32,60.36,39.12,62.12,40.84Z"/><path class="cls-2" d="M15.73,106.93a2.87,2.87,0,0,1,2.58,1.41c-.59,1.2-1.47.92-2.28,1A1.5,1.5,0,0,1,15.73,106.93Z"/><path class="cls-2" d="M51.54,57.64l1.54,1c-.31,1.32-.93,2.5-2.13,2.71l-1.32-.88A2.56,2.56,0,0,1,51.54,57.64Z"/><path class="cls-2" d="M41.47,73.19a1.83,1.83,0,0,1,2.21,2.43c-.44.68-1,.54-1.55.88Q39.79,75.24,41.47,73.19Z"/><path class="cls-2" d="M92.64,3.28c.47,1.06.11,1.67-.81,2.65A4.31,4.31,0,0,1,89,5C88.28,3,90.9,1.65,92.64,3.28Z"/><path class="cls-2" d="M34.71,90a2.31,2.31,0,0,1-1.25,2.35C31.16,91.23,32.07,87.51,34.71,90Z"/><path class="cls-2" d="M38.65,109.64a3,3,0,0,1-2.28,2.94C34.28,111.3,36.23,107.31,38.65,109.64Z"/><path class="cls-2" d="M45.71,106.72a2.29,2.29,0,0,1-1.25,2.35C42.16,108,43.07,104.23,45.71,106.72Z"/><path class="cls-2" d="M59.26,50.38a5,5,0,0,1,1.91,1c-.23.49.31.83.08,1.32-1,1.47-2.3,1.28-3.61,1.1C55.87,52.78,58.15,50.38,59.26,50.38Z"/><path class="cls-2" d="M72.34,29.84a5.31,5.31,0,0,1,2.36.29c0,.7.76,1.26.22,2.06-.86,1.13-2,1-3.24.07A2.22,2.22,0,0,1,72.34,29.84Z"/><path class="cls-2" d="M51.25,66.67a3.57,3.57,0,0,1-.81,2.65,2.74,2.74,0,0,1-2.65-.82A2.14,2.14,0,0,1,51.25,66.67Z"/><path class="cls-2" d="M71.54,38.21c.36,2-1.54,2.85-3.16,2.34C66.42,39,69.87,36.09,71.54,38.21Z"/><path class="cls-2" d="M81.76,23.39a2.37,2.37,0,0,1-.59,2.79c-1.15-.29-3.27-1.5-3-2.65Q79.63,21.88,81.76,23.39Z"/><path class="cls-2" d="M36.62,86.19a6.35,6.35,0,0,1,2.06.74,3.08,3.08,0,0,1-.81,2.64c-.4-.1-.78,0-1.18-.15C35.37,88.6,36.06,87.38,36.62,86.19Z"/><path class="cls-2" d="M90.73,11.88a3.89,3.89,0,0,1-2.5,2.78c-1-1.22-2.35-3.1-.67-4.26A3.54,3.54,0,0,1,90.73,11.88Z"/><path class="cls-2" d="M65.66,46.06c.83.28-.18.93.44,1.25-.19.48.36.82-.3,1.4a4.52,4.52,0,0,0-1.25.43C62.11,48.48,63.88,44.77,65.66,46.06Z"/><path class="cls-2" d="M86.61,17.08c1,.76.38,1.84,0,2.87-1.29.62-3.43-1.13-3.16-2.43C84.32,16.49,85.44,16.68,86.61,17.08Z"/><path class="cls-2" d="M22.73,116.06a5,5,0,0,1-1,1.91c-1.56.52-3.88-1.29-1.77-3.09a1.37,1.37,0,0,0,1.11-.22A5,5,0,0,1,22.73,116.06Z"/><path class="cls-2" d="M31.69,101.68c.77.8.51,1.81-.36,2.94-.53.27-2.24-.44-2.36-1.26C29.05,102,30.72,101.6,31.69,101.68Z"/><path class="cls-2" d="M47.94,75.92c.84-1.53,1.91-1.92,3.24-1a3.06,3.06,0,0,1-1.91,2.87C48.08,77.3,48.25,76.56,47.94,75.92Z"/><path class="cls-2" d="M57.57,65.81c.7,1.26-.67,3.59-2.28,2.93C53.59,67.57,55.76,64.15,57.57,65.81Z"/><path class="cls-2" d="M60.88,58.47c3.1,1.2.7,4.65-1.4,3.52C58.3,60.83,59.85,59.18,60.88,58.47Z"/><path class="cls-2" d="M30,108.51c1.94,1.25-.12,4.56-2.06,3.08-1-.63-.49-1.56-.67-2.35A3.81,3.81,0,0,1,30,108.51Z"/><path class="cls-2" d="M43.6,84.81c.64-1,1.24-2.13,2.06-2.13a1.81,1.81,0,0,1-.07,3.45C44.84,86.26,44,85.32,43.6,84.81Z"/><path class="cls-2" d="M66.39,53.56c.77.67.49,1.56.3,2.42a5.91,5.91,0,0,1-1.32,1c-.6-.2-1.63-.46-1.77-1.18A2.53,2.53,0,0,1,66.39,53.56Z"/><path class="cls-2" d="M38.54,96.7a2.28,2.28,0,0,1-.3,4.26C35.5,99.87,36.24,96.62,38.54,96.7Z"/><path class="cls-2" d="M72.13,45a13.28,13.28,0,0,0,2.28-.07c.72.57.5,2.32-.07,2.5-.32.63-.84.26-1.33.07-.35.46-.87.1-1.39-.29C70.79,46.64,71.63,45.77,72.13,45Z"/><path class="cls-2" d="M104.35,8.94c-.2-.63-.4-1.27-.58-1.91l-.16-.12a1.26,1.26,0,0,1-1,.14c-.72-.72-1.24-.43-1.91-1-.5.4-1.31-.77-1.7.15-.2-.07-.38,0-.51.29.11.55.66,1,.52,1.62,1.54,1,1.84,1.62,3.23,1.84A15.79,15.79,0,0,0,104.35,8.94Z"/><path class="cls-2" d="M79,37.49c1.65.7,2.26,2.61,1,3.24-.67.76-1.81-.8-2.65-.82L77,39.62A2.36,2.36,0,0,1,79,37.49Z"/><path class="cls-2" d="M82.42,31.48c1.08.27,2.08.17,3.31,1.25a6.68,6.68,0,0,1-.07,1.54C84.21,36,81,33.4,82.42,31.48Z"/><path class="cls-2" d="M54.71,74.4c.66-1.16,1.61-.85,2.57-.51.7.75.56,1.67-.22,2.72a1.31,1.31,0,0,0-1.1.22A2.19,2.19,0,0,1,54.71,74.4Z"/><path class="cls-2" d="M70.15,52.24A4.89,4.89,0,0,1,72.57,51C76.21,53.13,70.28,55.8,70.15,52.24Z"/><path class="cls-2" d="M45.08,96.93a2,2,0,0,1-3.09.81C40.73,95.64,44.86,94.51,45.08,96.93Z"/><path class="cls-2" d="M89.85,24.66c1.21-.16,3.62,1.35,2.65,2.72-.38,1-1.06.43-1.55.88C89.26,27.32,88.38,26.22,89.85,24.66Z"/><path class="cls-2" d="M96.39,20.12c.67.88.13,2-.88,3.23a1.16,1.16,0,0,0-1.17-.15c-1.18-.66-1.19-1.55-1.62-2.35C93.72,19.49,95,19.49,96.39,20.12Z"/><path class="cls-2" d="M65,63.77c1.1.48,1.13,1.18,2.06,1.69s1.59-.35,2.43-.29c1.44.8,2,1.77,1.55,3-.83.64-1.83.42-2.72.72-.91-.64-.49-1.56-1.4-2.21-1.11-.75-1.69,1.13-2.65,1.1C62.45,66.9,63.69,64.6,65,63.77Z"/><path class="cls-2" d="M97.13,15.2c1.18-1.14,4.48.84,4.49,2.36A2.29,2.29,0,0,1,99,19C98.05,17.82,96.47,16.73,97.13,15.2Z"/><path class="cls-2" d="M51.48,84c.88-1.32,2.06-1.17,3.23-1a1.35,1.35,0,0,0,.22,1.1C54.13,85.85,52.29,85.26,51.48,84Z"/><path class="cls-2" d="M71.91,59.15a6.38,6.38,0,0,1-1,3.45A2.36,2.36,0,0,1,68.46,61C69.39,59.25,70.49,58.4,71.91,59.15Z"/><path class="cls-2" d="M50.6,90.11c1.06.49,1,1.21.95,1.92-.75,1-1.63,1.39-2.79.36A2.86,2.86,0,0,1,50.6,90.11Z"/><path class="cls-2" d="M58,79.47a1.71,1.71,0,1,1-.51,3.16C56.23,81.84,56.78,80.2,58,79.47Z"/><path class="cls-2" d="M62.06,72.94a1.71,1.71,0,0,1,2.14-.8c.84.6.68,1.4.81,2.13a3,3,0,0,1-2.28,1A1.89,1.89,0,0,1,62.06,72.94Z"/><path class="cls-2" d="M28.61,124.45c.87-1.07,1.95-1.13,3.24-.07a2.83,2.83,0,0,1-.66,2.43C29.94,127.19,28.46,125.48,28.61,124.45Z"/><path class="cls-2" d="M81,46.09c.59.1,1.17.14,1.76.23,1,.94,1.06,2.08-.07,3.45a1.34,1.34,0,0,0-1.1.22C79.86,49,79.55,47.71,81,46.09Z"/><path class="cls-2" d="M93.68,34.22c.2.93-.44,2.92-1.69,3a5.62,5.62,0,0,1-2.43-2.58C90.17,32.89,92.29,33.87,93.68,34.22Z"/><path class="cls-2" d="M34.94,117.85a2.11,2.11,0,0,1,3.6.82c-.53,1.15-1.28,1.24-2,1.54C35.2,119.58,35.3,118.67,34.94,117.85Z"/><path class="cls-2" d="M87.43,40.23c1,.16,2.4-.14,3.09,1.11a3.7,3.7,0,0,1-1,2.5C87.93,43.94,85.74,41.92,87.43,40.23Z"/><path class="cls-2" d="M62.8,79.49c.81-.73,1.64-1.35,2.72-.73,1.5,1-.35,3.42-1.69,3C62.75,81.15,62.94,80.29,62.8,79.49Z"/><path class="cls-2" d="M68.39,71.12c.84.36,1.55.13,2.5,1a3.73,3.73,0,0,1-.37,2,1.89,1.89,0,0,1-2.64.14c-.85-.53.22-1.44-.23-2.06Z"/><path class="cls-2" d="M83,58.3c-2,.35-4.46-2.52-2.13-4C82.92,54.39,84.76,56.38,83,58.3Z"/><path class="cls-2" d="M76,61.59c1.38-.4,3.66.66,3.89,2.28L79.2,65C77.67,66.69,73.47,63.84,76,61.59Z"/><path class="cls-2" d="M51.19,101.65a2.68,2.68,0,0,1,.74,2.72c-.45.64-1,.48-1.62.51C48.37,103.68,49.15,101.18,51.19,101.65Z"/><path class="cls-2" d="M98.75,30c.8-.82,1.82-.49,2.72-.73.42.87,1.09,1.7.37,2.79C100.52,33.22,98.26,31.49,98.75,30Z"/><path class="cls-2" d="M57.37,95.27c1.29.85.07,2.82-1.11,3.09-.87-.68-1-.29-1.54-1A1.91,1.91,0,0,1,57.37,95.27Z"/><path class="cls-2" d="M106.77,27.05c-.21.23-.21.42-.07.59-1.38,2-4.77,0-4-2.07C103.6,24.2,106.43,25.55,106.77,27.05Z"/><path class="cls-2" d="M77.58,67.4c1.93,1.33.64,5-1.76,4.55-1.6-1-1.24-2.3-1.1-3.61A4.39,4.39,0,0,1,77.58,67.4Z"/><path class="cls-2" d="M60.6,91.39c.89.33.63.89,1.4,1.25a2.57,2.57,0,0,1-1.69,2L59,93.81C59.19,92.89,59.42,91.43,60.6,91.39Z"/><path class="cls-2" d="M63.39,86.25c.72-1.18,1.73-.92,2.65-1.1,1.08.84.29,2.52-.88,3.23a4.83,4.83,0,0,1-1.91-1A1.16,1.16,0,0,0,63.39,86.25Z"/><path class="cls-2" d="M44.13,117a1.88,1.88,0,0,1,1.92-.95,1.49,1.49,0,0,1,.29,2.43A2.53,2.53,0,0,1,44.13,117Z"/><path class="cls-2" d="M69.5,81.41a3.58,3.58,0,0,1,1.76,2.14c-.9,1.21-1.93,1.78-3.16,1.39C67.52,84,68,81.64,69.5,81.41Z"/><path class="cls-2" d="M73.84,75.4c1.27.54,2,.93,1.76,2.13a3.64,3.64,0,0,1-3.23,1C71,77.38,72.63,75.71,73.84,75.4Z"/><path class="cls-2" d="M89.49,51.48c1-.24,3.3.65,3.46,2-.35.8-.83.92-1.25,1.39C90.22,55,87.68,53.15,89.49,51.48Z"/><path class="cls-2" d="M101.18,38.28a2.54,2.54,0,0,1,.74,2.72c-.36.76-1,.18-1.4.66-2-.89-1.52-2.25-1.84-3.46C99.33,37.3,100.32,38.1,101.18,38.28Z"/><path class="cls-2" d="M114.05,22.36c.12.62-.18,1.31,0,1.91a3.53,3.53,0,0,1-2.28,1c-1-.2-2.08-1.83-2.65-2.73C110.38,20.55,112.25,21.65,114.05,22.36Z"/><path class="cls-2" d="M94.79,44.51c.9.08,2,1.1,2.94,1.33a1.9,1.9,0,0,1,.3,2.43c-.36.75-1,.18-1.4.65C94.92,47.67,93.48,46.36,94.79,44.51Z"/><path class="cls-2" d="M81.26,65.71a10.1,10.1,0,0,1,1.84.6c.68.56.52,1.3.59,2C82.19,70.57,78.37,67.24,81.26,65.71Z"/><path class="cls-2" d="M51.41,111.35a2.69,2.69,0,0,1,1.91-.95c2,.78,1.11,3-.28,3.31A2.4,2.4,0,0,1,51.41,111.35Z"/><path class="cls-2" d="M89,60.37c.46,1.18-.4,2.62.37,3.75a6.86,6.86,0,0,1,2.94,2.28c-.22,1.28-.93,2.92-2.34,2.57-2.1-1.44-.81-3.54-2-5.15-1.54-1.16-3-2.34-1.76-4,.22.14.35-.15.51-.29C87.55,60.21,88.11,59.49,89,60.37Z"/><path class="cls-2" d="M44.43,123.24A2.16,2.16,0,0,1,44.8,126c-.3.07-.69-.27-.95,0C42.9,125.37,43.38,123.68,44.43,123.24Z"/><path class="cls-2" d="M120.57,21.07c-1.38-1.37-2.81-2.72-4.28-4-.37,1.7.87,3.08,2.91,4.3A2.34,2.34,0,0,0,120.57,21.07Z"/><path class="cls-2" d="M108,36.75a2.33,2.33,0,0,1-.88,2.28,7.88,7.88,0,0,1-2.58-1.4C103.63,35.63,106.09,35.47,108,36.75Z"/><path class="cls-2" d="M66.12,94.12a3.7,3.7,0,0,1,2.5,1c-.22,1.29-1.51,2.5-2.72,1.69C65.07,96.11,65.34,95.16,66.12,94.12Z"/><path class="cls-2" d="M80,75.71c1.58,1.58-.69,4.41-2.57,3.37C76.3,77.65,78.62,75.35,80,75.71Z"/><path class="cls-2" d="M71.12,88.54c.66.51,1.72.94,1.84,1.55C72,92,70.66,92,69.28,91.77,68.13,90.65,70,88.69,71.12,88.54Z"/><path class="cls-2" d="M42.45,131.46c1.31,1,2.32,2,1.62,3.31-.71.91-1.78,0-2.65.14C40.23,133.88,41.05,132,42.45,131.46Z"/><path class="cls-2" d="M60.68,107c.64,1,0,1.68-.44,2.57-.3.07-.69-.28-1,0C56.77,108.41,58.85,105.85,60.68,107Z"/><path class="cls-2" d="M64.5,99.4c.9.46.7,1.14.74,1.77a1.7,1.7,0,0,1-2.65.14A2,2,0,0,1,64.5,99.4Z"/><path class="cls-2" d="M76.05,83.56l1.32.88c.33,1.43-1.59,3.58-3.09,1.76A2.28,2.28,0,0,1,76.05,83.56Z"/><path class="cls-2" d="M83.54,72.33a2.54,2.54,0,0,1,1,3.83,6.83,6.83,0,0,0,2.06,1.69c-.23,1,.82,1.75.37,2.8-1.4,1.25-3.05,1.27-4.19,3.88a7.3,7.3,0,0,1-1.54-.08c-1.18-.66-.85-1.61-.89-2.5.8-1.1,1.84-1,2.65-2a4.06,4.06,0,0,0,.44-2.57C80.66,76.32,81.55,73.05,83.54,72.33Z"/><path class="cls-2" d="M93.25,56.85a9.68,9.68,0,0,1,2.13.15c1,.88.85,2,.45,3.17-.66-.08-1.23.24-1.92,0C92.75,59.24,92.12,58.22,93.25,56.85Z"/><path class="cls-2" d="M113.1,33.82c.39,1-.94,2.28-1.76,2.64-1.47-.85-1.41-2-1.4-3.16C110.82,32.64,111.89,32.88,113.1,33.82Z"/><path class="cls-2" d="M88.84,70.14a3,3,0,0,1,1.77,3.09,3,3,0,0,1-2.87,1C86.82,73.05,87.65,70.54,88.84,70.14Z"/><path class="cls-2" d="M101.34,51.43c1.41.34,2,2,2,3.24-.63,1-1.45,1-2.2,1.39A2.75,2.75,0,0,1,101.34,51.43Z"/><path class="cls-2" d="M77.37,89.22c.85-.14,2.42.63,2.43,1.62-1,2.08-2.76,1.46-3.46-.08A4,4,0,0,1,77.37,89.22Z"/><path class="cls-2" d="M106.34,45.86c1.61.35,3.41,1.89,2.57,3.31-.45.9-1.12.74-1.69,1.1C105.09,49.16,105.11,47.63,106.34,45.86Z"/><path class="cls-2" d="M118,28.84c1.65.39,3.54,2,2.43,3.53C118.58,34.13,115.48,30.12,118,28.84Z"/><path class="cls-2" d="M52.68,131.93c-.42,1.11-1.14.7-1.7,1.1A3.75,3.75,0,0,1,49.81,131C51,129.77,51.69,130.91,52.68,131.93Z"/><path class="cls-2" d="M58.26,122.61c-.76-.78-.79-2.5.44-2.57A1.3,1.3,0,1,1,58.26,122.61Z"/><path class="cls-2" d="M96.63,65.16a3.34,3.34,0,0,1-.29,4.26C93.23,69,94,64.73,96.63,65.16Z"/><path class="cls-2" d="M69.22,109.55a3.38,3.38,0,0,1-1.55,2.79c-1-.63-2.13-1.23-2.13-2.06C66.53,108.87,67.66,108.17,69.22,109.55Z"/><path class="cls-2" d="M73.19,101.7a1.45,1.45,0,0,1,.36,1.84c-.44.63-1,.48-1.61.51C70.15,102.89,71.81,101.33,73.19,101.7Z"/><path class="cls-2" d="M111.85,42.86a4.3,4.3,0,0,1,1.7,1.77c-.12,1.21-1,3.06-2.36,2.56C109.72,46.17,110.26,43.86,111.85,42.86Z"/><path class="cls-2" d="M75.09,97.89a2.16,2.16,0,0,1,3.24-.07c0,.88-1.19,2.52-2,2.49a4.1,4.1,0,0,1-1.47-1.62C75.1,98.39,75.33,98.09,75.09,97.89Z"/><path class="cls-2" d="M83.77,85.85c.87.15.72.64,1.77,1.18-.2.87.09,1.64-.81,2.65C82.47,90.05,81.21,86.44,83.77,85.85Z"/><path class="cls-2" d="M115.24,40.66c2.19-.11,3.18,2.46,2.35,4.12-.91.56-2,.11-3.24-.89A6.81,6.81,0,0,1,115.24,40.66Z"/><path class="cls-2" d="M90.17,80.58c1.07.42.87,1.1.73,1.76.61.46-.21,1.19-.58,1.84a6.71,6.71,0,0,1-1.47.29C86.73,83.35,88.37,80.39,90.17,80.58Z"/><path class="cls-2" d="M96,73.32c.7.68.52,1.55,1,2.28-.7,1.29-1.48,2.17-2.43,2.2C91.32,77,94.32,72.83,96,73.32Z"/><path class="cls-2" d="M104.58,60a2.44,2.44,0,0,1-.07,4.41c-1.4-.49-.37-1.46-1.55-2-.07-.3.27-.69,0-1A2.35,2.35,0,0,1,104.58,60Z"/><path class="cls-2" d="M66.72,118.07a1.5,1.5,0,0,1-.22,2.72C64.7,120.18,65.33,117.63,66.72,118.07Z"/><path class="cls-2" d="M113.33,55c-.1,1.25-.93,2.62-2.13,2.71L109,56.23c0-.65-1-2.08-.08-2.28.58-.61,1.36-.25,2.14.15A3.89,3.89,0,0,1,113.33,55Z"/><path class="cls-2" d="M83.85,93.86c.67.19,1.27,0,2,.37,1.25,1,.28,3.29-1.17,3.68-.4-.41-.69-.24-1-.37C82.69,96.51,82.64,95.31,83.85,93.86Z"/><path class="cls-2" d="M59.52,132.68a3.77,3.77,0,0,1,1.91,1.91c-.64,1-1.23,2.13-2.06,2.13C56.86,135.86,57.72,133.24,59.52,132.68Z"/><path class="cls-2" d="M63.34,126c.78-.89,1.62-1.42,2.79-.36-.14.87-.63.72-1.17,1.76A1.91,1.91,0,0,1,63.34,126Z"/><path class="cls-2" d="M121.56,38.84c1.37-1.49,3.84,1.4,2.28,2.8C122.35,41.86,120.79,40.17,121.56,38.84Z"/><path class="cls-2" d="M104.06,66.94c1.25,1,.65,2.29,1.26,3.39.79.86,2.21,1.6,2.79,2.5a2.34,2.34,0,0,1-2,2.13c-2.16-1.11-1.59-2.75-3.83-3.83.24-.5-.3-.84-.44-1.25C102.19,68.8,102.6,66.58,104.06,66.94Z"/><path class="cls-2" d="M79.51,102.74c.72.08,1.35-.26,2.21.52.27,1.52-1,3.14-2.5,2.79C78.35,105.14,78.49,104,79.51,102.74Z"/><path class="cls-2" d="M91.35,88.37a5.42,5.42,0,0,1,.52,3.53c-.62.77-1.49.2-2.21.43C87.55,91,89.39,88.06,91.35,88.37Z"/><path class="cls-2" d="M118.84,49.12a2.46,2.46,0,0,1,1.7,2.72c-.76,1.3-2,.38-2.87.95-.39,1.6-1.63,2.81-3,2.13-1.52-1.05-.49-2.58.14-4.05A8.34,8.34,0,0,1,118.84,49.12Z"/><path class="cls-2" d="M95.83,82.13a3.15,3.15,0,0,1,1.26,3.39c-.7,1-1.44,1.71-2.36,1.61C92.29,85.79,94.52,83.76,95.83,82.13Z"/><path class="cls-2" d="M77.6,109.43c1.07,0,2.58,1.32,2,2.28-.75.7-1.67.56-2.72-.23A2.92,2.92,0,0,1,77.6,109.43Z"/><path class="cls-2" d="M127.89,34.15a5,5,0,0,1,4.63,4.05,9.71,9.71,0,0,1-1.91.95c-2-1.25-2.38-2.84-3.17-4.34Z"/><path class="cls-2" d="M101.57,75.46c1.47.79,1.24,1.92,1.91,2.87,2.53.32,3.4,3.73.89,4.41-1-.82-.86-1.87-1.33-2.79-1.09-.68-1.85.3-2.94-.38C97.74,78.59,100.18,75.54,101.57,75.46Z"/><path class="cls-2" d="M76.43,118.83c-.6,1.44-1.57,1.07-2.43,1.24-1.17-1-.43-3.24,1.18-2.71C76.06,117.76,76.07,118.33,76.43,118.83Z"/><path class="cls-2" d="M87.68,98.65c1.18.72.92,1.73,1.1,2.64a6.7,6.7,0,0,1-1.84,1.32C84.21,101.65,86.06,98.9,87.68,98.65Z"/><path class="cls-2" d="M110.91,63.87c1.21,1.23,1.69,2.6.29,4.34-.6-.12-1.1.23-1.76-.23-1-1.1,0-3.29.88-4.18C110.55,64,110.74,64,110.91,63.87Z"/><path class="cls-2" d="M94.51,93.67c1.29,1.1.48,3.71-1.24,4.26C89.94,96.79,92.65,93.26,94.51,93.67Z"/><path class="cls-2" d="M117,58.08c1.31.52,2.38-.2,3.61-.14,1.52.78,2,1.76,1.91,2.87-.43,1-1.13.75-1.62,1.47-1.57-.83-2.81,0-4.41-1C115.46,60.43,116.05,59.29,117,58.08Z"/><path class="cls-2" d="M67.76,134.68a3.55,3.55,0,0,1,2.2,1.48,2,2,0,0,1-1.83,1.31C66.8,136.78,66.8,135.83,67.76,134.68Z"/><path class="cls-2" d="M99.73,87.29c.53.06.91-.57,1.48-.29a2.28,2.28,0,0,1-.74,4C99.55,89.87,98.86,88.73,99.73,87.29Z"/><path class="cls-2" d="M128.7,46.79a6.2,6.2,0,0,1,1.47,3.53c-.43.68-1,.55-1.54.88C126.15,50.31,127,47.31,128.7,46.79Z"/><path class="cls-2" d="M86.72,109.15c1.39-.22,2.47,1.43,2.43,2.58-.49,1.06-1.21,1-1.91,1C86,111.73,85.54,110.6,86.72,109.15Z"/><path class="cls-2" d="M78.42,126.84c1,.19-.37.84.22,1.11-.5,1-1.21,1-1.76,1.68a4.93,4.93,0,0,1-1.92-1c.12-.59-.23-1.1.22-1.76a1.45,1.45,0,0,1,1.84-.36C77.37,126.57,78.56,126.1,78.42,126.84Z"/><path class="cls-2" d="M82.61,117.23c1.38.87,1.32,2,.66,3.3C80.88,121.51,80.11,117.68,82.61,117.23Z"/><path class="cls-2" d="M117.45,66c1.08.49,1.43,1.12,1.33,1.84a2.34,2.34,0,0,1-.73,2,1.36,1.36,0,0,0-1.11.22,3.39,3.39,0,0,1-1.54-2A4.18,4.18,0,0,1,117.45,66Z"/><path class="cls-2" d="M133.92,44.23c1.5.66,1,1.71,1.48,2.58a6.06,6.06,0,0,1,1.69,1.76c-.71,1.26-1.53,1.91-2.5,1.84-2.33-1.46-1.7-3.49-2.21-5.3C132.78,44.25,133.38,44.38,133.92,44.23Z"/><path class="cls-2" d="M93,105.05a3.42,3.42,0,0,1,2.2.52,3.53,3.53,0,0,1-2,3.45C91.4,108,91.48,106.68,93,105.05Z"/><path class="cls-2" d="M114.66,74a3.69,3.69,0,0,1,1.4,3.16,2.51,2.51,0,0,1-2,1.54C112.07,77.69,113.14,75.13,114.66,74Z"/><path class="cls-2" d="M100.77,100.08a1.84,1.84,0,0,1,.74,2.71c-.79,1-2.37.31-3-.74C99,100.78,99.54,99.84,100.77,100.08Z"/><path class="cls-2" d="M110.84,84.52a2.48,2.48,0,0,1,1.77,3.09c-.81,1.34-2,.7-3.31-.3A3.77,3.77,0,0,1,110.84,84.52Z"/><path class="cls-2" d="M85.77,125.39c.58.33.46.8.81,1.18-.56,1-1.29,1.19-1.91,1.9C82.22,127.39,84.15,124.87,85.77,125.39Z"/><path class="cls-2" d="M107.24,92.3c1.48.92,1.89,2,1.25,3.38a2.67,2.67,0,0,1-2.35-.3C105,94.47,105.76,92.1,107.24,92.3Z"/><path class="cls-2" d="M79.31,135.07c1,1,1,2.1-.08,3.46a2.18,2.18,0,0,1-2.2-1.48A2.49,2.49,0,0,1,79.31,135.07Z"/><path class="cls-2" d="M123.78,67.06c1.15.09,1.32,1,2.43,1.62,1.11.43,2-.31,3-.21A7.62,7.62,0,0,1,130.7,72c-.57.68-1.3.51-2,.58-1-.56-.71-1.39-1.54-2-1.23-.4-2.15.73-3.39.28C122.13,69.78,122.28,68.29,123.78,67.06Z"/><path class="cls-2" d="M90.85,116.36c.47-1.11,1.25-.75,1.84-1.32,1.1,1,1.6,2.11.51,3.53a4.82,4.82,0,0,0-1.32.07A2.3,2.3,0,0,1,90.85,116.36Z"/><path class="cls-2" d="M130.84,57.45a3,3,0,0,1,1.62,2.36,2.33,2.33,0,0,1-1.62,1.46C129.48,60.35,129.08,58.37,130.84,57.45Z"/><path class="cls-2" d="M122,74.11c2,.26,1.26,2.31,2.57,3.32.76.58,1.25-.13,2,.37-.27,1.38,1.23,2.43-.15,4-.6-.14-1.13.06-1.84-.6-1-.51,0-1.39-.59-2C121.37,78.44,119.43,76.5,122,74.11Z"/><path class="cls-2" d="M135,55.48c1.54-.18,3.32,1.71,3.09,3-1,1.26-2.06,1.78-3.53.5A5.61,5.61,0,0,1,135,55.48Z"/><path class="cls-2" d="M98.2,112.05a2.75,2.75,0,0,1,.66,3.3C96.6,115.41,96.06,112.29,98.2,112.05Z"/><path class="cls-2" d="M87.32,133.11c.22,1.15-1,2.21-1.91,2.86C82.68,134.86,85,130.67,87.32,133.11Z"/><path class="cls-2" d="M113.94,91.36a1.92,1.92,0,0,1-.22,3.67,5.81,5.81,0,0,1-2.07-2.65A2.33,2.33,0,0,1,113.94,91.36Z"/><path class="cls-2" d="M119.45,83.58a3.53,3.53,0,0,1-1.25,4.26,4.83,4.83,0,0,1-1.91-1C116.26,85.24,118,83.39,119.45,83.58Z"/><path class="cls-2" d="M104.45,105.08c1.51,1.14,2,4-.22,4.63C101.85,108.75,102.91,106.19,104.45,105.08Z"/><path class="cls-2" d="M95.7,121.52c.5.92.28,2-.51,3.16-.76-.3-1.33.33-2.21-.52C92,122.81,94.5,120.56,95.7,121.52Z"/><path class="cls-2" d="M110.41,97.6c1.83,1,1.72,2.46.81,4-1.47.26-2.28-1.31-2.58-2.36C109.19,98.51,109.83,98.24,110.41,97.6Z"/><path class="cls-2" d="M133.71,65.1A4.48,4.48,0,0,1,135.63,68l-1,1.54c-.31.07-.7-.27-1,0C131.74,68.39,131.48,65.3,133.71,65.1Z"/><path class="cls-2" d="M102.32,116.39c1.24.77.61,1.92.59,2.94-.66.81-1.57.41-2.35.66C99.06,118.77,100.68,116.29,102.32,116.39Z"/><path class="cls-2" d="M95.12,129.09a3.31,3.31,0,0,1,1.84,2.5c-.83,1.57-2,1.25-3.39.28C93.22,130.66,94,129.8,95.12,129.09Z"/><path class="cls-2" d="M122.54,87.56c1.29.73,1.82.89,2.13,2.06l-1,1.54A1.89,1.89,0,0,1,122.54,87.56Z"/><path class="cls-2" d="M120.33,94.68c.66.7.45,1.57.3,2.43a2.73,2.73,0,0,1-2.21,1.39C115.65,97.6,118.91,93.72,120.33,94.68Z"/><path class="cls-2" d="M133.57,73c1.7.94,1.59,2.24,1.47,3.53-.61.76-1.43.5-2.21.44C131.25,76.05,132.14,73.81,133.57,73Z"/><path class="cls-2" d="M116.07,102c1.63,1,.24,3.6-1.17,4.63-.23-.21-.43-.22-.59-.08-1.43-.86-1.12-2.07-.66-3.31C114.32,102.17,115.25,102.37,116.07,102Z"/><path class="cls-2" d="M109.75,110.53c2,1.09,0,4.29-1.69,4C106,113.05,109.39,111.35,109.75,110.53Z"/><path class="cls-2" d="M103.36,125.36c.9.39-.43,1.23.14,1.69-.27.56-.2,1.06-.8,1.68-.92.38-2.24-.78-2.43-1.62l.44-.66C101.63,126.31,102.31,124.93,103.36,125.36Z"/><path class="cls-2" d="M130.34,84.49a3.69,3.69,0,0,1,1,3.24,2,2,0,0,1-2.43.28C128.17,87.08,128.83,84.71,130.34,84.49Z"/><path class="cls-2" d="M127.54,94.4c1.16,1,1,2.22.89,3.46a2.17,2.17,0,0,1-2.58.51C124.36,97.19,125.42,93.57,127.54,94.4Z"/><path class="cls-2" d="M113.87,113c.36-.76,1-.18,1.4-.66,1.5.85,1.93,1.92.66,3.31-.59-.09-1.17-.13-1.76-.22A2,2,0,0,1,113.87,113Z"/><path class="cls-2" d="M110.86,118.91c1,.63,1.47,1.36,1,2.28C110.19,122.93,108.26,119.07,110.86,118.91Z"/><path class="cls-2" d="M122.84,104.31a2.27,2.27,0,0,1-.14,4,4.24,4.24,0,0,1-2.14-2.06C120.9,105,121.73,104.16,122.84,104.31Z"/></g></g></g></svg>