<svg xmlns="http://www.w3.org/2000/svg" viewBox="0 0 146.88 75.55"><defs><style>.cls-1{fill:#d8caba;}</style></defs><title>logo_scone only</title><g id="圖層_2" data-name="圖層 2"><g id="圖層_3" data-name="圖層 3"><path class="cls-1" d="M12.12,44.43c.24.43.39,1,.75,1.25a3.07,3.07,0,0,1,1.42,3.13c0,.51.42,1,.58,1.55.34,1.1.64,2.22.94,3.34.17.63.33,1.27.49,1.91.39,1.58.75,3.16,1.2,4.72a1.48,1.48,0,0,0,.8.71c1.15.5,2.31,1,3.49,1.38a17,17,0,0,0,2.11.48c2.66.59,5.3,1.35,8,1.73s5.36.36,8,.6c1.59.14,3.16.46,4.75.69a.4.4,0,0,0,.34-.09c1.17-1.61,2.57-.23,3.85-.28a4.48,4.48,0,0,1,.88.11l-.53-.49c1.31.22,2.39.39,3.47.6a7.76,7.76,0,0,0,5-.27c1.28-.59,2.88-.4,4.32-.67,1.21-.22,2.37-.7,3.58-.91a5,5,0,0,1,1.77.32c.46.11.91.28,1.62.5-.61-1.52-.28-2.33.85-3,.35-.2.39-.92.62-1.37a1.76,1.76,0,0,1,.66-.8c1.71-.77,3.45-1.49,5.19-2.21,1.54-.63,3.11-1.2,4.61-1.91.43-.2,1-.37.92-1.35a11.6,11.6,0,0,1,.78-3.6.82.82,0,0,0,0-.72c-.53.57-1,1.17-1.59,1.71-.24.24-.64.31-.89.54a1.35,1.35,0,0,0-.43.81c-.07,1.66-1.31,2.15-2.56,2.64a8.93,8.93,0,0,1-1.9.66A3.74,3.74,0,0,1,73.39,56c-1.4-.56-2.64-1.35-2.91-3,0-.08-.38-.17-.57-.15-1.53.2-3.06.53-4.59.6a4.48,4.48,0,0,1-2.84-.56c-.76-.65-.8-1.78-.32-3,.32-.79-.23-1.94-.43-2.92a10.36,10.36,0,0,0-.37-1.21,11.54,11.54,0,0,0-2.42.89,19.05,19.05,0,0,0-2.11,1.92,1.11,1.11,0,0,1-.7.23,3,3,0,0,0-1.26,0l.79.21v.14l-3.41.15c0-.12,0-.23,0-.34H53c-.1-.4-.37-.86-.28-1.24a10.24,10.24,0,0,1,.82-1.91c.17.11,0,0,0,0,.37-1,1.16-2.12,1-3-.28-1.39.55-2,1.18-2.84a4.94,4.94,0,0,1,4.78-2.21c1.06.11,2.22-1,3.33-1a26.45,26.45,0,0,1,5.59.74c.45.1.67,1.05,1.08,1.54,1.2,1.39,2.52,1.26,3.76,0,.49-.48,1.55-.46,2.35-.53a3.48,3.48,0,0,1,1.27.38,8.92,8.92,0,0,0,1.28.46,1.67,1.67,0,0,0,1.11-.06c1-.62,3.47-.25,4.14.72,1.22-1.55,1.22-1.55,2.46-.88a13.17,13.17,0,0,1,.51-1.82,9.61,9.61,0,0,1,1.22-2.2c.78-1,.29-1.55-.22-2.42A29.17,29.17,0,0,1,87,29.34c-.1-.24-.64-.39-1-.41a18.37,18.37,0,0,0-2.46,0c-.64,0-1.62-.07-1.86.29-.87,1.24-2.12.59-3.15.91-.31.1-.66.07-1,.18-2,.77-3.63.64-4.41-1.74-.06-.18-.63-.19-1.39-.4l-.59-1.43c.05,0-.26.19-.58.4-1.47,1-2.9,2-4.41,2.86a11.22,11.22,0,0,1-2.07.55A1.34,1.34,0,0,1,62.31,30c-.5-.76-1.36-1.28-2-2-.18-.22,0-.74,0-1-.22-.41-.46-.81-.67-1.23-.55-1.12-1.71-.88-2.53-.88a7,7,0,0,1-6-5.15c0-.16.1-.34.11-.52,0-.38.12-.86-.06-1.15-.8-1.27-1.76-2.45-2.49-3.77-.15-.25.38-1.25.74-1.35a9.1,9.1,0,0,1,3-.26,13.12,13.12,0,0,1,3.46.75c.81.3,1.41,1.14,2.21,1.49,1.37.61.81,1.71,1,2.67.06.36.78.73,1.26.86a6.21,6.21,0,0,0,1.78.08,4.35,4.35,0,0,0,1.63-.18,4.1,4.1,0,0,1,4.41.23A5.77,5.77,0,0,0,69.9,19l-1.13.51a17.8,17.8,0,0,1,2.87-.26c.42,0,.82.51,1.22.79s1,.74,1.5,1.11c.06,0,.14.14.16.13,1.69-.81,2.09,1.77,3.71,1.38.56-.13,1.27.37,1.93.54.15,0,.49-.05.5-.13a.75.75,0,0,0-.12-.61,3.54,3.54,0,0,1-.68-4.5.6.6,0,0,1,.35-.21l4.52-1-.28-.56c.25-.09.56-.12.72-.29a6.62,6.62,0,0,0,.68-1c.14.3.23.48.32.66l.22-.21c.2.14.39.42.58.41,1.67-.07,2,1.62,3.17,2.3a4.54,4.54,0,0,1,2,5.41c-.06.23-.46.37-.51.4.26.59.51,1.19.83,1.92,1.42-.23,1.59,1.12,2.08,2.13.74,1.52,1.89,2.93,1.44,4.78-.19.78-.69,1.48-.89,2.26s-.17,1.63-.34,2.43c-.07.31-.39.56-.6.83l-.66.88,1,.54-.82.66c.49.87.57,1.7-.68,2.18-.14.06-.1.57-.13.87-.15,1.23-.28,2.46-.43,3.69-.25,2-.43,4-2.64,4.95-.36.16-.54.75-.91,1.3a1.55,1.55,0,0,0-.34-.09,4.78,4.78,0,0,0-.53-.06c0,.18-.08.4,0,.55A9.9,9.9,0,0,1,89.28,56a5.35,5.35,0,0,1-.37,2.43,6.55,6.55,0,0,1-1,1.91,3.81,3.81,0,0,1-1.17.73,9.38,9.38,0,0,1-4.85,1.52c-.34,0-.68.33-1,.5l.35.34a18.86,18.86,0,0,1-1.44,1.52,25.41,25.41,0,0,0-2.68,2.11c-.55.61-1.9,1.15-2.59.67-.33-.23-.73-.36-1-.14-.63.38-1.25,1-1.9,1.07A13.72,13.72,0,0,1,68.45,68a11.11,11.11,0,0,1-2.36,1.43,17.07,17.07,0,0,1-3.07.34c-.8.12-1.58.39-2.38.56a62.59,62.59,0,0,1-6.46,1.3,8.25,8.25,0,0,1-3.47-.83c-.34,0-.68,0-1,0-1.37-.09-2.74-.16-4.11-.31-.41,0-.79-.4-1.19-.41-1.12,0-2.24,0-3.36,0-.3,0-.59.08-.88.06-3.1-.27-6.21-.55-9.31-.84A3.93,3.93,0,0,1,30,69a12.64,12.64,0,0,0-2.42-.67c-2.19-.2-4.4-.25-6.61-.39a19.68,19.68,0,0,1-9-3,6,6,0,0,1-3.09-4c-.12-.7-.75-1.29-1-2-.44-1.4-.77-2.83-1.14-4.25,0-.09,0-.25.06-.28,1.91-1.15-.14-1.8-.35-2.67A6.87,6.87,0,0,0,6,50.65c-.28-.6-.6-1.18-.83-1.79a8.67,8.67,0,0,1-.24-1.42c-1.48.15-1.89-1.37-2.12-2.62s.28-2.69.05-4c-.18-1,.43-2.19-.61-3.07-.24-.21-.11-.86-.15-1.31l1.12,0c-.54-.81-1.14-1.58-1.6-2.42a11,11,0,0,1-.89-2.23A18.75,18.75,0,0,1,0,28.48a30.6,30.6,0,0,1,.1-3.17c0-.68-.38-1.41.71-1.71.24-.06.24-.87.45-1.28.63-1.24,1.35-2.43,2-3.68a48,48,0,0,1,2.17-4.51c.47-.73,1.51-1.08,2.28-1.62s1.6-1.21,2.42-1.79c.27-.2.65-.28.88-.51a19.47,19.47,0,0,1,2.18-2.34A6.12,6.12,0,0,1,16,6.63a16.37,16.37,0,0,1,3.25.55A4.94,4.94,0,0,0,21.18,7a33.31,33.31,0,0,0,3.74-1.34c.38-.15.62-.63.91-1s.38-.57.64-.69C28.3,3.2,30.12,2.33,32,1.68a43.49,43.49,0,0,1,4.31-1A11.7,11.7,0,0,1,39.18,0a35.1,35.1,0,0,1,6,.77A6.46,6.46,0,0,1,48.5,2.35,4.13,4.13,0,0,0,51,3.67a22.39,22.39,0,0,0,2.32.13c1.66.13,3.39-.13,4.83,1.12.24.21,1-.23,1.57-.34a13.87,13.87,0,0,1,3-.54,12.83,12.83,0,0,1,2.67.6,4.22,4.22,0,0,0,1.06.09,7.17,7.17,0,0,1,1.42-.18,4.37,4.37,0,0,1,1.91.59c.92.64,1.63,1.57,2.56,2.19.65.44,1.27,1.1,2.33.71,1.44-.52,2.61.34,3.85,1s1.24,1.44,1.44,2.54c.17.89,1.13,1.61,1.67,2.45A1.78,1.78,0,0,1,82,15.16c-.1.64-.22,1.52-.65,1.82a9,9,0,0,1-2.58.92c-.18.06-.45,0-.57.05-1.36,1-2.3.18-3.23-.7-.65-.6-1.3-1.2-1.92-1.83-.11-.12,0-.42-.07-.63l-.12-1c-.26,0-.58,0-.76.12-1.65,1.26-3.36,1-5.08.24a34.89,34.89,0,0,1-3.14-1.66c-.31-.19-.68-.62-.66-.92,0-1.06-.21-1.44-1.27-.93a2.93,2.93,0,0,1-1,.08l-.41.37c-.13-.22-.27-.43-.28-.45-.69-.27-1.23-.49-1.79-.68-1.2-.41-2.41-.8-3.62-1.18a13.13,13.13,0,0,0-3.1-.89c-2.29-.11-4.6.08-6.9,0-1.24,0-2.49-.42-3.72-.37a41.81,41.81,0,0,0-4.54.68l-.49,0a15.41,15.41,0,0,0-3.14.57c-.82.32-1.42,1.17-2.23,1.58a7.47,7.47,0,0,1-2,.33,4.14,4.14,0,0,0-.84.28c-.59.23-1.15.52-1.75.71a14.66,14.66,0,0,0-2.54.75c-1.57.89-3,1.94-5,1.1-.61-.26-1.57.43-2.39.52a2.41,2.41,0,0,1-1.55-.34c-.92-.71-1.7-1.61-2.61-2.33-.21-.17-.73.07-.94.09.22,1,.45,1.94.6,2.87.08.55,0,1.11.09,1.65,0,.13.44.3.63.26.67-.13,1.32-.37,2-.51a3.32,3.32,0,0,1,.88.08c-.11.41-.09.94-.36,1.19C14,17.91,13,18.66,12,19.44c-.13.11-.34.2-.37.33a10.76,10.76,0,0,1-.56,2.52,21,21,0,0,1-2,2.76c.53.88-.22,3.4-1.13,4-1.12.75-.38,1.49-.22,2.16.38,1.6.91,3.15,1.43,4.71a1.09,1.09,0,0,0,.62.52c.85.35,1.71.67,2.59.95s1.93.54,2.89.85c.19.06.31.35.48.52s.38.39.47.35c2-.88,3.3.5,4.8,1.3.15.08.29.24.44.25,2.23.07,3.7,1.41,5.15,2.91.8.82.85,1.67-.16,2.25-.14.08-.31.32-.28.45a1.16,1.16,0,0,0,.36.73c1.37.78,2.75,1.54,4.16,2.24a5.4,5.4,0,0,0,1.73.46c1.12.11,1.31.94,1.3,1.74a2.72,2.72,0,0,1-2.76,3,30.19,30.19,0,0,1-5.29-.16c-.42,0-.9-.8-1.09-1.32s-2.51-1.82-3.19-1.56a8.24,8.24,0,0,1-2.25.64A1.47,1.47,0,0,1,18,51.36c-.62-1.52-1-3.12-1.67-4.64-.23-.55-.45-1.2-1.54-1-.68.09-1.5-.92-2.26-1.43ZM79,48.87l1.63-.7a3.6,3.6,0,0,1,3.77,1.11,1.28,1.28,0,0,1,.07.28c.25.62.52,1.23.75,1.85a5.13,5.13,0,0,1,.3,1.15c0,.17-.23.36-.35.55.18,0,.48.12.51.07.15-.26.35-.59.29-.83-.58-2.28-1.34-4.48-3.59-5.59,0-.56.08-1,.13-1.76-1.37,2.61-3.72,1.16-5.82,1.74l.93.79,0,.07ZM65.24,24.33a17.83,17.83,0,0,0-1.46-2.59c-.32-.41-1-.54-1.51-.79-.14.32-.42.66-.41,1A2.75,2.75,0,0,0,65.24,24.33Z"/><path class="cls-1" d="M98.05,46.46c0,.29-.06.65.08.86a1.83,1.83,0,0,1-.07,2c-.14.27,0,.65-.09,1-.11.67-.25,1.34-.38,2-.07.38-.16.76-.24,1.14-.2.94-.42,1.88-.59,2.83a.89.89,0,0,0,.24.58c.48.57,1,1.12,1.49,1.65.3.3.66.53,1,.8,1.26,1,2.47,2.1,3.8,3S106,64,107.39,64.77c.81.49,1.56,1.08,2.34,1.61a.24.24,0,0,0,.21,0c1-.55,1.42.55,2.12.86a3.27,3.27,0,0,1,.44.29l-.16-.4c.64.46,1.17.83,1.69,1.22a4.57,4.57,0,0,0,2.73,1.16,11.94,11.94,0,0,1,2.47.78c.7.19,1.44.24,2.13.45a2.72,2.72,0,0,1,.86.63c.22.18.41.39.73.69.08-1,.46-1.31,1.23-1.36.24,0,.45-.38.69-.56a1,1,0,0,1,.56-.25c1.11,0,2.22.11,3.33.18s2,.17,3,.19c.29,0,.63.07.84-.48a6.78,6.78,0,0,1,1.36-1.71.49.49,0,0,0,.18-.39c-.43.17-.86.36-1.3.5-.19.06-.42,0-.61,0a.76.76,0,0,0-.44.32c-.47.87-1.26.8-2.05.73a5.08,5.08,0,0,1-1.18-.14,2.16,2.16,0,0,1-.92-.58,2.37,2.37,0,0,1-.76-2.37s-.15-.18-.26-.22c-.87-.3-1.76-.52-2.6-.88a2.66,2.66,0,0,1-1.36-1,1.49,1.49,0,0,1,.61-1.66c.37-.34.38-1.09.53-1.67a5.45,5.45,0,0,0,.12-.74,7.35,7.35,0,0,0-1.52-.16,11.93,11.93,0,0,0-1.62.47.59.59,0,0,1-.43-.06,1.71,1.71,0,0,0-.68-.32l.37.32,0,.07-1.85-.82.08-.18.38.2c.06-.24,0-.55.18-.73a5.59,5.59,0,0,1,.94-.8c.06.1,0,0,0,0,.47-.45,1.17-.82,1.31-1.34.22-.81.82-.93,1.37-1.2a2.91,2.91,0,0,1,3.12.07c.54.34,1.43.07,2,.36a15.08,15.08,0,0,1,2.77,1.86c.22.17.09.73.18,1.09a1.36,1.36,0,0,0,2,1c.39-.13.94.15,1.39.33a2,2,0,0,1,.57.53,6.16,6.16,0,0,0,.56.58,1,1,0,0,0,.61.26,2.32,2.32,0,0,1,2,1.46c1-.5,1-.5,1.53.18a8.77,8.77,0,0,1,.75-.84,5.94,5.94,0,0,1,1.22-.85c.67-.3.56-.75.52-1.34a17.67,17.67,0,0,1,.19-2.16c0-.16-.24-.38-.42-.48a11.16,11.16,0,0,0-1.31-.62c-.36-.15-.84-.46-1.07-.34-.78.44-1.28-.23-1.91-.33-.19,0-.37-.14-.56-.16-1.26-.11-2.09-.6-1.89-2.08,0-.11-.28-.26-.63-.57,0-.1,0-.48.06-.91l-.42.06c-1,.13-2,.29-3.08.37a7.09,7.09,0,0,1-1.25-.25c-.47-.07-.76-.22-.83-.79a14.32,14.32,0,0,0-.51-1.57c0-.17.19-.4.26-.54s0-.56,0-.83c0-.74-.68-.91-1.12-1.13a4.16,4.16,0,0,1-1.85-4.31c0-.09.14-.16.19-.25s.29-.42.27-.62c-.09-.89-.29-1.77-.34-2.66,0-.17.53-.56.75-.52a5.23,5.23,0,0,1,1.67.65,7.76,7.76,0,0,1,1.65,1.3c.35.38.45,1,.79,1.38.57.68,0,1.11-.18,1.67-.06.21.22.59.44.79a3.78,3.78,0,0,0,.93.5,2.71,2.71,0,0,0,.91.33,2.45,2.45,0,0,1,2.29,1.28c.12.23.43.37.79.67l-.73,0a10.18,10.18,0,0,1,1.59.62c.22.12.3.48.44.73s.34.65.51,1c0,0,0,.11.05.12,1.11,0,.65,1.48,1.61,1.7.34.07.58.53.89.79.07.06.27.1.3.06a.43.43,0,0,0,.09-.35A2.11,2.11,0,0,1,141,50.1a.33.33,0,0,1,.24,0l2.67.62v-.37a1.06,1.06,0,0,0,.46,0A3.89,3.89,0,0,0,145,50v.43l.17-.05c.07.12.1.32.2.37.91.4.66,1.39,1.08,2a2.67,2.67,0,0,1-.31,3.4c-.1.11-.35.08-.38.09,0,.38,0,.76-.06,1.23.81.25.55,1,.55,1.68,0,1,.23,2.05-.49,2.91-.3.37-.75.61-1.06,1s-.52.82-.82,1.2c-.11.15-.35.2-.53.29l-.58.29.4.56-.61.13c0,.6-.14,1-.93,1-.09,0-.2.28-.3.43-.4.62-.79,1.24-1.19,1.85-.65,1-1.26,2-2.69,1.94-.24,0-.49.26-.83.45,0,0-.06-.06-.16-.13a2.4,2.4,0,0,0-.26-.18c0,.1-.15.2-.15.29a5.67,5.67,0,0,1,0,1.59A3.18,3.18,0,0,1,135.2,74a3.87,3.87,0,0,1-1,.76,2.35,2.35,0,0,1-.81.08,5.52,5.52,0,0,1-3-.46c-.18-.09-.45,0-.68,0l.1.27a10.89,10.89,0,0,1-1.16.43,15.79,15.79,0,0,0-2,.42c-.45.18-1.31.11-1.55-.32-.12-.21-.3-.38-.48-.33-.44,0-1,.23-1.3.07a8.19,8.19,0,0,1-1.52-1.16,6.24,6.24,0,0,1-1.63.14,10.78,10.78,0,0,1-1.72-.62c-.46-.15-.94-.21-1.41-.32-1.26-.32-2.55-.56-3.77-1a5,5,0,0,1-1.63-1.35c-.18-.09-.36-.18-.53-.28-.7-.4-1.41-.8-2.1-1.23-.21-.13-.32-.42-.53-.53-.58-.32-1.19-.58-1.8-.85-.15-.08-.33-.11-.48-.2q-2.37-1.43-4.72-2.88a2,2,0,0,1-.37-.44,7.78,7.78,0,0,0-1.11-1c-1.12-.68-2.28-1.29-3.42-1.93a11.87,11.87,0,0,1-4-3.93A3.54,3.54,0,0,1,92,54.35c.11-.4-.07-.88,0-1.31.12-.86.33-1.71.5-2.56,0,0,.07-.13.1-.13,1.32-.11.4-1,.52-1.51a3.78,3.78,0,0,0,.05-.67c0-.39,0-.78,0-1.17a5,5,0,0,1,.24-.81c-.82-.32-.64-1.23-.44-1.95s.85-1.36,1.06-2.1c.17-.58.8-1,.48-1.79-.07-.18.17-.49.26-.74l.61.27c-.08-.57-.19-1.14-.22-1.7a6.75,6.75,0,0,1,.11-1.42,11.7,11.7,0,0,1,.48-1.94c.22-.58.61-1.09.88-1.65.18-.36.17-.85.83-.72.15,0,.35-.41.57-.57.66-.49,1.35-.94,2-1.44a27.15,27.15,0,0,1,2.33-1.83,4.68,4.68,0,0,1,1.63-.27c.59-.09,1.17-.22,1.75-.32a3.08,3.08,0,0,0,.61,0,11.89,11.89,0,0,1,1.77-.67,3.77,3.77,0,0,1,1.83.08,10,10,0,0,1,1.58,1.14,2.93,2.93,0,0,0,1.06.41,20.42,20.42,0,0,0,2.34.26c.24,0,.49-.17.74-.27a1.59,1.59,0,0,1,.52-.2c1.18.05,2.37.06,3.55.21a25.33,25.33,0,0,1,2.54.61,6.66,6.66,0,0,1,1.71.37,20.85,20.85,0,0,1,3,2,3.8,3.8,0,0,1,1.37,1.71,2.44,2.44,0,0,0,1,1.36c.36.27.8.44,1.19.68.85.5,1.84.81,2.28,1.85.07.18.6.15.92.23a8.65,8.65,0,0,1,1.71.49,8,8,0,0,1,1.27,1,2.11,2.11,0,0,0,.54.33,5,5,0,0,1,.8.27,2.6,2.6,0,0,1,.86.82c.32.58.46,1.26.79,1.83.23.4.38.92,1.05,1,.9.09,1.3.86,1.78,1.53a1.75,1.75,0,0,1,.11,1.73c-.15.52.17,1.15.24,1.74a1.08,1.08,0,0,1-.11.69c-.22.31-.51.75-.82.8a5.29,5.29,0,0,1-1.61-.19c-.11,0-.22-.14-.32-.12-1,.19-1.27-.51-1.53-1.22-.19-.49-.38-1-.54-1.47,0-.1.08-.23.13-.35s.13-.39.2-.58c-.15-.05-.31-.16-.44-.13a2.72,2.72,0,0,1-2.76-1.2A19,19,0,0,1,133.88,43a.76.76,0,0,1-.11-.66c.3-.55.26-.82-.43-.82a1.92,1.92,0,0,1-.58-.23l-.32.09,0-.32c-.3-.32-.52-.58-.77-.83-.53-.52-1.07-1.05-1.62-1.57a7.71,7.71,0,0,0-1.41-1.28c-1.19-.66-2.47-1.16-3.68-1.78-.65-.34-1.21-.88-1.88-1.17a24.44,24.44,0,0,0-2.59-.83l-.27-.1a9.37,9.37,0,0,0-1.82-.52c-.52,0-1.06.25-1.59.26a4.6,4.6,0,0,1-1.15-.35,2.32,2.32,0,0,0-.52-.07c-.38,0-.75,0-1.12-.08a8.55,8.55,0,0,0-1.54-.26c-1.07.06-2.09.25-2.94-.73-.26-.29-1-.18-1.41-.34a1.43,1.43,0,0,1-.73-.59c-.31-.61-.48-1.29-.78-1.92-.07-.14-.41-.15-.52-.19-.16.59-.27,1.14-.44,1.68-.09.31-.28.59-.38.9,0,.07.15.27.27.3.39.11.79.15,1.18.25a1.74,1.74,0,0,1,.45.27c-.16.19-.3.48-.5.54-.69.22-1.41.36-2.12.53-.09,0-.23,0-.28.08a6.62,6.62,0,0,1-1,1.19,11.83,11.83,0,0,1-1.81.93c.06.61-1,1.76-1.65,1.84s-.59.7-.68,1.1c-.21.94-.34,1.91-.47,2.87a.67.67,0,0,0,.19.44c.37.41.74.8,1.13,1.18s.89.79,1.32,1.2c.09.09.07.28.12.41s.1.31.15.31c1.28,0,1.63,1.13,2.21,1.94.06.08.1.21.17.25a4.43,4.43,0,0,1,2,2.89c.21.65,0,1.11-.67,1.16a.34.34,0,0,0-.27.16.72.72,0,0,0,0,.48c.53.77,1.06,1.54,1.63,2.28a3.17,3.17,0,0,0,.8.7c.56.35.45.84.23,1.26a1.6,1.6,0,0,1-2.25.89,17.08,17.08,0,0,1-2.77-1.47c-.21-.13-.27-.66-.24-1s-.86-1.62-1.28-1.66a5.54,5.54,0,0,1-1.37-.25.89.89,0,0,1-.42-.69c.07-1,.26-1.93.32-2.91,0-.34.08-.75-.54-.95-.38-.13-.56-.88-.83-1.35Zm34.37,19.82,1,.06a2.13,2.13,0,0,1,1.72,1.57c0,.06,0,.11,0,.17,0,.39-.05.79-.09,1.18a3,3,0,0,1-.14.68c0,.1-.22.14-.33.21.09.06.22.19.25.17s.34-.22.37-.37c.29-1.36.46-2.72-.45-3.9l.53-.9c-1.41,1-2.28-.36-3.54-.6l.28.66,0,0Zm-.89-16.63a11.88,11.88,0,0,0-.1-1.75c-.06-.3-.39-.55-.6-.82-.16.14-.39.24-.47.41A1.62,1.62,0,0,0,131.53,49.65Z"/></g></g></svg>